<svg width="150" xmlns="http://www.w3.org/2000/svg" height="150" fill="none">
    <g data-testid="ArrowIcon">
        <g class="fills">
            <rect rx="0" ry="0" width="150" height="150" class="frame-background"/>
        </g>
        <g class="frame-children">
            <g data-testid="Ellipse">
                <circle cx="75" cy="75" style="fill: rgb(245, 158, 11); fill-opacity: 1;" r="75" class="fills"/>
                <g class="strokes">
                    <g class="inner-stroke-shape">
                        <defs>
                            <clipPath id="b">
                                <use href="#a"/>
                            </clipPath>
                            <circle cx="75" cy="75" id="a"
                                    style="fill: none; stroke-width: 6; stroke: rgb(69, 26, 3); stroke-opacity: 1;"
                                    r="75"/>
                        </defs>
                        <use href="#a" clip-path="url('#b')"/>
                    </g>
                </g>
            </g>
            <g data-testid="FlecheNoire" style="fill: rgb(0, 0, 0);">
                <g data-testid="svg-path">
                    <path d="M140 74.241Za1.34 1.34 0 0 1-1.206 1.339c-9.319.935-19.469 1.592-28.778 2.137-19.976 1.12-39.958 1.685-59.959 1.924-3.902.053-8.024.077-12.132.092-1.275.005-1.827 1.612-.82 2.395 10.11 7.868 20.03 15.984 29.642 24.446 4.449 3.934 8.845 7.917 13.08 12.094.483.477.532 1.246.112 1.782l-.024.034a1.352 1.352 0 0 1-1.769.317C58.268 108.609 39.649 94.48 21.417 79.986c-1.69-1.188-.894-3.768-1.388-5.735a.932.932 0 0 1 .015-.516c.591-1.831.171-4.139 1.788-5.195l3.707-2.951c2.461-1.976 4.957-3.914 7.443-5.857 9.969-7.76 20.074-15.331 30.419-22.595 4.767-3.335 9.798-6.778 14.736-9.928a1.349 1.349 0 0 1 1.782.307 1.337 1.337 0 0 1-.131 1.797c-.86.808-1.734 1.601-2.594 2.405-3.434 3.106-7.175 6.436-10.672 9.416-9.592 8.223-19.424 16.14-29.413 23.881-.39.302-.781.604-1.177.906-1.006.778-.464 2.385.811 2.395 9.446.073 18.946.224 28.314.448 24.553.681 49.257 1.689 73.722 4.128A1.363 1.363 0 0 1 140 74.241Z"
                          style="fill: rgb(254, 243, 199); fill-opacity: 1;" class="fills"/>
                    <g class="strokes">
                        <g class="inner-stroke-shape">
                            <defs>
                                <clipPath id="d">
                                    <use href="#c"/>
                                </clipPath>
                                <path d="M140 74.241Za1.34 1.34 0 0 1-1.206 1.339c-9.319.935-19.469 1.592-28.778 2.137-19.976 1.12-39.958 1.685-59.959 1.924-3.902.053-8.024.077-12.132.092-1.275.005-1.827 1.612-.82 2.395 10.11 7.868 20.03 15.984 29.642 24.446 4.449 3.934 8.845 7.917 13.08 12.094.483.477.532 1.246.112 1.782l-.024.034a1.352 1.352 0 0 1-1.769.317C58.268 108.609 39.649 94.48 21.417 79.986c-1.69-1.188-.894-3.768-1.388-5.735a.932.932 0 0 1 .015-.516c.591-1.831.171-4.139 1.788-5.195l3.707-2.951c2.461-1.976 4.957-3.914 7.443-5.857 9.969-7.76 20.074-15.331 30.419-22.595 4.767-3.335 9.798-6.778 14.736-9.928a1.349 1.349 0 0 1 1.782.307 1.337 1.337 0 0 1-.131 1.797c-.86.808-1.734 1.601-2.594 2.405-3.434 3.106-7.175 6.436-10.672 9.416-9.592 8.223-19.424 16.14-29.413 23.881-.39.302-.781.604-1.177.906-1.006.778-.464 2.385.811 2.395 9.446.073 18.946.224 28.314.448 24.553.681 49.257 1.689 73.722 4.128A1.363 1.363 0 0 1 140 74.241Z"
                                      id="c"
                                      style="fill: none; stroke-width: 2; stroke: rgb(0, 0, 0); stroke-opacity: 1;"/>
                            </defs>
                            <use href="#c" clip-path="url('#d')"/>
                        </g>
                    </g>
                </g>
            </g>
        </g>
    </g>
</svg>