<?xml version="1.0" encoding="UTF-8"?>
<svg id="animation-illus" xmlns="http://www.w3.org/2000/svg" viewBox="0 0 1472.43 842.55">
  <g>
    <path d="M1058.59,549.47c-12.71,0-22.41-2.48-28.86-7.38-34.72-26.4-27.09-152.81-23.92-190.93.77-9.31,3.82-18.33,8.81-26.11l72.63-113.09c9.64-15.02,25.54-23.99,42.52-23.99,12.36,0,24.22,4.82,33.4,13.58,25.54,24.36,43.81,40.54,54.29,48.1,10.48,7.56,31.39,19.62,62.15,35.86,12.82,6.77,22.01,18.59,25.88,33.29,4.07,15.48,1.47,32.04-7.14,45.44l-80.45,125.27c-5.62,8.74-13.41,15.54-22.55,19.67-26.84,12.11-93.9,40.29-136.75,40.29h0ZM1066.5,379.74c-16.28,0-31.16,3.97-36.2,9.64-1.28,1.44-1.84,2.92-1.66,4.38.61,5.06,10.25,9.65,24.83,16.59,23.49,11.18,59,28.07,88.8,61.53,1.69,1.9,3.26,3.74,4.78,5.51,5.6,6.55,9.65,11.28,12.95,11.28.06,0,.12,0,.18,0,1.28-.07,3.09-.93,4.4-4.63,4.84-13.61-1.18-52.69-29.95-78.88-24.31-22.13-53.12-25.43-68.13-25.43ZM1211.95,312.33c-7.55,16.43-4.92,44.72,8.79,53.09,10.35,6.32,20.58,10.09,27.37,10.09,2.39,0,4.09-.51,4.91-1.48.45-.54.63-1.21.5-1.94-.24-1.41-2.78-3.43-6.63-6.5-5.3-4.21-12.55-9.99-17.77-17.31-5.07-7.11-7.86-14.98-10.33-21.93-1.83-5.14-3.55-10-5.97-14.08l-.49-.82-.4.87ZM1102,262.51c-.12,0-.23.01-.33.03-.9.19-1.5.8-1.74,1.77-.99,3.95,4.43,15.26,19.58,28.04,3.76,3.17,9.06,4.85,15.33,4.85,12.37,0,26.58-6.45,34.57-15.68l.56-.65-.84-.17c-3.41-.68-6.99-.77-10.03-.77-1.48,0-2.99.03-4.53.05-1.59.03-3.22.05-4.87.05-5.3,0-11.61-.26-18.15-2.19-8.34-2.46-16.07-7.49-21.71-11.16-3.87-2.52-6.43-4.19-7.84-4.19Z" fill="#fff"/>
    <path d="M1129.77,188.47c12.23,0,23.97,4.77,33.05,13.44,25.56,24.37,43.84,40.57,54.34,48.14,10.5,7.57,31.43,19.65,62.2,35.9,12.7,6.7,21.8,18.42,25.63,32.98,4.03,15.34,1.45,31.76-7.08,45.04l-80.45,125.27c-5.56,8.66-13.28,15.4-22.33,19.48-26.81,12.1-93.79,40.24-136.55,40.24-12.59,0-22.2-2.45-28.55-7.28-14.6-11.1-23.33-40.99-25.96-88.84-2.15-39.21.47-80.52,2.23-101.65.77-9.22,3.79-18.17,8.74-25.88l72.63-113.1c9.55-14.87,25.29-23.75,42.1-23.75M1134.85,297.7c12.5,0,26.87-6.52,34.95-15.85l1.12-1.3-1.69-.34c-3.46-.69-7.06-.78-10.13-.78-1.49,0-2.97.02-4.54.05-1.58.03-3.22.05-4.87.05-5.27,0-11.53-.26-18.01-2.17-8.27-2.44-15.96-7.44-21.58-11.1-4.43-2.88-6.62-4.27-8.12-4.27h0c-.15,0-.3.01-.43.04-1.08.23-1.83.99-2.12,2.13-1.21,4.82,5.84,16.82,19.75,28.55,3.85,3.25,9.26,4.96,15.66,4.96M1248.12,376.01c2.58,0,4.36-.56,5.29-1.66.55-.65.76-1.46.61-2.34-.26-1.53-2.4-3.29-6.81-6.8-5.27-4.2-12.49-9.94-17.67-17.21-5.03-7.05-7.69-14.55-10.26-21.81-1.83-5.17-3.57-10.05-6.01-14.16l-.97-1.64-.8,1.73c-3.81,8.3-5.17,19.55-3.61,30.09,1.64,11.13,6.23,19.75,12.6,23.63,10.43,6.37,20.76,10.17,27.63,10.17M1159.99,489.19c.07,0,.14,0,.21,0,1.43-.08,3.44-1,4.85-4.96,2.68-7.54,1.82-21.13-2.2-34.62-3.62-12.16-11.4-29.8-27.88-44.8-24.44-22.24-53.38-25.56-68.47-25.56-16.41,0-31.45,4.04-36.57,9.81-1.38,1.55-1.98,3.16-1.78,4.78.64,5.34,9.85,9.72,25.11,16.98,23.46,11.16,58.91,28.03,88.64,61.41,1.69,1.89,3.26,3.73,4.78,5.51,5.69,6.65,9.8,11.46,13.33,11.46M1129.77,187.47c-16.41,0-32.75,8.34-42.94,24.21l-72.63,113.09c-5.04,7.86-8.11,16.91-8.89,26.34-3.53,42.57-10.45,165.08,24.12,191.37,6.97,5.3,17.15,7.48,29.16,7.48,42.55,0,108.22-27.36,136.96-40.33,9.21-4.16,17.1-11.04,22.76-19.85l80.45-125.27c17.65-27.48,8.72-64.84-18.92-79.44-23.94-12.64-49.65-26.86-62.09-35.83-12.44-8.97-34.36-29.1-54.23-48.05-9.7-9.25-21.74-13.72-33.74-13.72h0ZM1134.85,296.7c-5.82,0-11.13-1.46-15.01-4.73-17.19-14.51-22.43-28.02-18.06-28.94.07-.01.14-.02.23-.02,3.21,0,15.54,11.24,29.41,15.33,6.35,1.87,12.49,2.21,18.29,2.21,3.25,0,6.39-.11,9.4-.11,3.5,0,6.83.14,9.93.76-8.04,9.3-22.19,15.5-34.19,15.5h0ZM1248.12,375.01c-5.55,0-15.32-2.82-27.11-10.02-13.15-8.03-16.33-35.62-8.6-52.45,5.71,9.62,7.53,23.7,16.32,36.04,8.9,12.48,23.8,20.61,24.31,23.6.3,1.77-1.51,2.84-4.92,2.84h0ZM1159.99,488.19c-3.93,0-9.62-7.95-17.35-16.63-48.26-54.19-111.99-65.28-113.5-77.85-.79-6.59,15.53-13.47,37.36-13.47,20.94,0,46.94,6.32,67.79,25.3,35.34,32.16,35.46,82.11,25.86,82.64-.05,0-.1,0-.16,0h0Z"/>
  </g>
  <g>
    <path d="M1016.15,547.05c-42.68,0-115.87-72.16-145.35-103.19-6.23-6.55-10.78-14.78-13.17-23.79l-34.8-131.08c-4.17-15.72-1.54-32.41,7.22-45.81,8.12-12.41,20.33-20.44,34.39-22.6,34.15-5.25,57.67-9.79,69.91-13.5,12.24-3.7,34.49-13.02,66.14-27.68,6.45-2.99,13.25-4.51,20.2-4.51,22.58,0,42.65,16.2,48.81,39.4l38.55,145.2c2.69,10.14,2.57,20.82-.37,30.88-12.64,43.38-46.05,145.38-83.36,155.63-2.5.69-5.24,1.04-8.15,1.04ZM1056.23,361.22c-3.35,0-7.85,3.45-13.55,7.81-1.91,1.46-3.88,2.97-5.99,4.49-37.09,26.75-76.86,27.49-103.17,27.97-16.41.3-27.25.5-28.87,7.02-.99,3.98,1.59,10.15,7.24,17.38,12.39,15.84,42.85,39.41,75.95,39.41,9.97,0,19.39-2.21,27.99-6.56,31.09-15.74,44.67-55.8,46.21-78.88.63-9.43-.66-15.98-3.54-17.96-.66-.45-1.42-.68-2.28-.68ZM900.06,267.89c-1.79,0-3.59.2-5.36.58-15.57,3.41-26.45,20.88-24.25,38.93l.11.93.71-.62c11.12-9.65,22.71-14.9,34.44-15.59.89-.05,1.8-.08,2.7-.08,6.75,0,12.1,1.46,16,2.52,2.09.57,3.75,1.02,4.89,1.02.94,0,1.56-.3,1.89-.93.74-1.41-.21-4.54-2.53-8.36-5.15-8.49-15.74-18.41-28.61-18.41ZM1008.13,236.3c-3.38,0-6.65.61-9.73,1.81-13.22,5.15-19,19.71-20,31.62-.4,4.74.02,10.01,1.84,11.1.24.14.5.21.77.21,1.28,0,2.67-1.53,4.97-4.08,3.05-3.37,7.67-8.47,14.73-12.56,7.75-4.5,16.74-6.77,26.7-6.77,3.29,0,6.74.25,10.28.74l.87.12-.34-.81c-5.48-12.99-17.29-21.38-30.08-21.38Z" fill="#fff"/>
    <path d="M1020.68,175.41c10.66,0,21.27,3.74,29.89,10.54,8.99,7.09,15.37,16.94,18.43,28.49l38.55,145.2c2.67,10.05,2.54,20.64-.36,30.61-5.58,19.15-17.16,56.2-32.02,89.16-17.8,39.47-34.96,61.72-50.99,66.12-2.46.67-5.16,1.02-8.02,1.02-18.46,0-44.87-13.76-78.51-40.91-27.81-22.44-53.59-48.55-66.48-62.12-6.17-6.49-10.68-14.64-13.05-23.57l-34.8-131.08c-4.14-15.58-1.53-32.13,7.16-45.4,8.04-12.29,20.13-20.24,34.04-22.38,34.17-5.25,57.71-9.8,69.98-13.51,12.27-3.71,34.54-13.03,66.21-27.7,6.39-2.96,13.11-4.46,19.99-4.46M981.01,281.55c1.5,0,2.95-1.6,5.34-4.24,3.03-3.35,7.62-8.41,14.61-12.46,7.68-4.45,16.57-6.71,26.45-6.71,3.26,0,6.7.25,10.21.74l1.74.24-.68-1.62c-5.55-13.18-17.54-21.69-30.54-21.69-3.44,0-6.78.62-9.92,1.84-13.43,5.24-19.3,19.99-20.31,32.05-.4,4.75-.06,10.29,2.08,11.57.32.19.66.28,1.03.28M870.19,309.33l1.42-1.23c11.04-9.58,22.53-14.78,34.15-15.46.88-.05,1.78-.08,2.67-.08,6.68,0,11.99,1.45,15.87,2.5,2.21.6,3.81,1.04,5.02,1.04,1.13,0,1.92-.4,2.33-1.2,1.18-2.26-1.39-6.94-2.54-8.85-5.22-8.61-15.95-18.65-29.04-18.65-1.82,0-3.66.2-5.47.6-15.82,3.47-26.87,21.18-24.64,39.48l.23,1.87M987.85,465.81c10.05,0,19.54-2.23,28.21-6.62,31.28-15.84,44.94-56.1,46.49-79.29.64-9.61-.73-16.32-3.76-18.41-.74-.51-1.6-.77-2.56-.77-3.52,0-8.08,3.49-13.85,7.92-1.9,1.46-3.87,2.97-5.97,4.48-36.96,26.66-76.64,27.39-102.89,27.88-16.64.31-27.64.51-29.34,7.4-1.02,4.13,1.58,10.45,7.33,17.8,12.45,15.92,43.06,39.6,76.34,39.6M1020.68,174.41c-6.8,0-13.72,1.45-20.41,4.55-24.62,11.41-51.54,23.25-66.08,27.65-14.53,4.4-43.27,9.4-69.84,13.48-30.69,4.72-50.47,37.18-42.02,69.03l34.8,131.08c2.42,9.11,6.98,17.36,13.29,24,26.71,28.1,102.27,103.34,145.71,103.34,2.91,0,5.68-.34,8.29-1.05,37.91-10.41,71.9-115.41,83.71-155.97,2.95-10.14,3.08-20.94.37-31.15l-38.55-145.2c-6.47-24.36-27.18-39.77-49.29-39.77h0ZM981.01,280.55c-.18,0-.35-.05-.51-.14-3.87-2.32-2.65-33.75,18.08-41.82,3.07-1.2,6.31-1.78,9.55-1.78,11.88,0,23.99,7.72,29.62,21.08-3.2-.45-6.69-.75-10.34-.75-8.51,0-17.96,1.63-26.95,6.84-11.96,6.93-16.83,16.57-19.45,16.57h0ZM870.95,307.34c-2.26-18.5,8.93-35.11,23.86-38.38,1.79-.39,3.54-.57,5.25-.57,18.96,0,32.68,22.25,30.7,26.05-.24.47-.73.66-1.44.66-3.07,0-10.39-3.54-20.89-3.54-.89,0-1.8.03-2.73.08-14.6.86-26.4,8.47-34.74,15.71h0ZM987.85,464.81c-43.73,0-86.09-42.53-82.71-56.17,3.99-16.11,71.7,8.67,131.84-34.71,8.32-6,14.98-12.21,19.24-12.21.74,0,1.4.19,2,.59,9.78,6.72-.03,74.42-42.61,95.98-9.03,4.57-18.43,6.51-27.76,6.51h0Z"/>
  </g>
  <path d="M398.34,117.6c2.04,3.57-10.05-4.74-23.49-19.15-17.62-18.89-8.83-38.06-14.13-35.4-15.66,7.83,2.28,157.29,4.59,221.4.05,1.38.15,4.95-.87,9.39-5.08,22.03-31.67,38.53-52.74,41.17-44.59,5.58-90.48-47.69-82.22-70.59,9.13-25.31,88.16-24,92.33-23.27,1.1.19,3.17.3,7.31.52,1.09.06,1.73.08,2.48-.17,0,0,2.62-.89,4.08-5.44,3.1-9.63-1.35-149.15,0-169.79.32-4.93,1.5-10.97,5.58-16.18,0,0,27.33-19.73,28.72-10.35,4.34,29.36,26.7,74.99,28.34,77.87Z" fill="#fff" stroke="#000" stroke-miterlimit="10"/>
  <path d="M703.17,359.45c.05,1.38.15,4.95-.87,9.39-5.08,22.03-31.68,38.53-52.75,41.16-44.59,5.58-90.47-47.69-82.21-70.59,9.13-25.31,88.16-24,92.33-23.27,1.1.19,3.17.3,7.31.52.01,0,.02,0,.03,0,1.87.1,3.71-.68,4.83-2.18.61-.81,1.22-1.92,1.71-3.44,2.52-7.79.07-100.78-.23-146.82-.03-3.85-3.15-6.95-7-6.95l-170.53,38.04c-3.46,0-6.4,2.52-6.92,5.95-5.82,38.07,7.51,154.77,9.48,209.42.05,1.38.16,4.95-.87,9.39-5.08,22.03-31.67,38.53-52.74,41.16-44.59,5.58-90.48-47.68-82.22-70.59,9.13-25.31,88.16-24,92.34-23.27,1.09.19,3.17.3,7.31.53.02,0,.05,0,.07,0,1.85.08,3.66-.7,4.77-2.17.61-.81,1.23-1.92,1.73-3.44,2.98-9.27-1.04-138.84-.13-166.98.01-.35.02-.69.03-1.01.04-1.06.33-2.08.83-3.01h0s0,0,0,0c5.59-10.46,16.49-16.99,28.34-16.99l193.7-38.04c5.29,0,8.66,5.64,6.17,10.3l-3.98,7.43c-.45.83-.72,1.74-.8,2.68-3.67,43.54,8.39,150.99,10.26,202.77Z" fill="#fff" stroke="#000" stroke-miterlimit="10"/>
  <path d="M1152.98,758.07c-.41.51-1.48,1.82-3.18,3.15-8.41,6.57-21.84,5.36-29.25.64-15.69-9.98-13.56-41.51-3.89-47.54,10.69-6.66,35.03,15.06,36.11,16.45.29.36.9.96,2.13,2.15,0,0,0,0,0,0,.55.54,1.37.75,2.19.51.44-.13.98-.36,1.6-.78,3.2-2.13,31.21-36.28,45.36-52.95,1.18-1.39,1.16-3.35-.04-4.38l-65.16-32.16c-1.08-.93-2.78-.81-4.01.28-13.6,12.15-45.54,57.77-61.84,77.99-.41.51-1.48,1.83-3.18,3.15-8.41,6.57-21.84,5.36-29.25.64-15.69-9.98-13.57-41.51-3.89-47.54,10.69-6.66,35.03,15.06,36.11,16.45.28.36.9.96,2.12,2.16,0,0,.01.01.02.02.55.53,1.36.73,2.16.5.44-.13.98-.36,1.61-.78,3.8-2.54,42.64-50.29,51.63-60.19.11-.12.22-.24.32-.35.34-.37.75-.66,1.19-.86h0c4.99-2.26,10.42-1.69,14.13,1.5l72.41,38.39c1.66,1.42.97,4.36-1.26,5.37l-3.54,1.61c-.4.18-.76.43-1.08.75-14.62,14.7-44.1,56.65-59.54,75.8Z" fill="#fff" stroke="#000" stroke-miterlimit="10"/>
  <path d="M785.91,476.67c6.31,6.32-.13,17.1-.13,17.1l-4,60.51h-185.11l-3.74-60.51s-4.3-9.7.13-17.1c9.69-16.19,19.74,4.34,19.74,4.34,0,0-2.95-8.05,8.85-11.82,12.77-4.09,15.49,10.55,15.49,10.55,0,0-1.6-13.25,10.72-14.39,11.06-1.02,13.4,7.37,13.4,7.37,0,0,2.09-10.68,13.32-10.34,6.16.19,6.3,8.85,6.3,8.85,0,0-.17-8.85,8.74-9.55,8.46-.66,12.03,9.04,12.03,9.04,0,0,1.02-9.11,11.91-8.43,9.86.62,12.26,9.87,12.26,9.87,0,0,3.49-10.35,10.55-9.53,14.64,1.7,13.36,9.83,13.36,9.83,0,0,3.46-9.82,13.79-4.72,9.06,4.47,4.85,12.13,4.85,12.13,0,0,7.18-13.58,17.54-3.19Z" fill="#fff" stroke="#000" stroke-miterlimit="10"/>
  <polygon points="785.91 493.78 781.91 554.29 764.63 815.48 612.97 815.48 596.8 554.29 593.06 493.78 785.91 493.78" fill="#fff" stroke="#000" stroke-miterlimit="10"/>
  <g id="curtainRight">
    <path d="M1422.63,531.59c-.09,134.68-.05,242.52,0,312.51h49.8V1.55h-223.42c0,310.3,173.62,454.46,173.62,454.46,0,0,.04,10.88,0,75.58Z" fill="#fff" stroke="#000" stroke-miterlimit="10"/>
    <path d="M1311.32,37.3c.11,156.22,46.17,260.47,89.87,326.81,3.67,5.57,7.42,11.01,11.23,16.34" fill="none" stroke="#000" stroke-miterlimit="10"/>
    <path d="M1368.51,36.27c-5.4,146.39,28.87,254.09,67.4,329.87,2.99,5.88,6.06,11.67,9.19,17.36" fill="none" stroke="#000" stroke-miterlimit="10"/>
    <path d="M1457.36,424.36c1.36,139.4,2.72,278.8,4.09,418.19" fill="none" stroke="#000" stroke-miterlimit="10"/>
    <path d="M1443.06,425.38l1.02,417.17" fill="none" stroke="#000" stroke-miterlimit="10"/>
    <rect x="1422.63" y="456.02" width="49.8" height="75.57" transform="translate(2895.07 987.61) rotate(180)" fill="#fff" stroke="#000" stroke-miterlimit="10"/>
  </g>
  <line x1="596.8" y1="554.29" x2="781.91" y2="554.29" fill="none" stroke="#000" stroke-miterlimit="10"/>
</svg>