<?xml version="1.0" encoding="UTF-8"?>
<svg id="Calque_1" xmlns="http://www.w3.org/2000/svg" viewBox="0 0 246 193">
  <path d="M246,97v.02c0,1.41-1.07,2.59-2.47,2.73-19.08,1.92-39.86,3.27-58.92,4.39-40.9,2.3-81.81,3.46-122.76,3.95-7.99.11-16.43.16-24.84.19-2.61.01-3.74,3.31-1.68,4.92,20.7,16.16,41.01,32.83,60.69,50.21,9.11,8.08,18.11,16.26,26.78,24.84.99.98,1.09,2.56.23,3.66l-.05.07c-.86,1.1-2.42,1.39-3.62.65-40.7-25.04-78.82-54.06-116.15-83.83-3.46-2.44-1.83-7.74-2.84-11.78-.08-.32-.09-.67.03-1.06,1.21-3.76.35-8.5,3.66-10.67l7.59-6.06c5.04-4.06,10.15-8.04,15.24-12.03,20.41-15.94,41.1-31.49,62.28-46.41,9.76-6.85,20.06-13.92,30.17-20.39,1.19-.76,2.77-.49,3.65.63h0c.87,1.12.76,2.72-.27,3.69-1.76,1.66-3.55,3.29-5.31,4.94-7.03,6.38-14.69,13.22-21.85,19.34-19.64,16.89-39.77,33.15-60.22,49.05-.8.62-1.6,1.24-2.41,1.86-2.06,1.6-.95,4.9,1.66,4.92,19.34.15,38.79.46,57.97.92,50.27,1.4,100.85,3.47,150.94,8.48,1.41.14,2.49,1.34,2.48,2.76Z"/>
</svg>