<?xml version="1.0" encoding="UTF-8"?>
<svg id="hosting-illus" xmlns="http://www.w3.org/2000/svg" viewBox="0 0 1290.21 704.67">
  <g id="bed">
    <g id="frontSupport">
      <g>
        <rect x="22.7" y="204.81" width="32.32" height="181.99" fill="#fff"/>
        <path d="M54.52,205.31v180.99h-31.32v-180.99h31.32M55.52,204.31H22.2v182.99h33.32v-182.99h0Z"/>
      </g>
      <g>
        <path d="M38.86,203.81c-8.91,0-16.16-5.56-16.16-12.4s7.25-12.4,16.16-12.4,16.16,5.56,16.16,12.4-7.25,12.4-16.16,12.4Z" fill="#fff"/>
        <path d="M38.86,179.5c8.63,0,15.66,5.34,15.66,11.9s-7.02,11.9-15.66,11.9-15.66-5.34-15.66-11.9,7.02-11.9,15.66-11.9M38.86,178.5c-9.2,0-16.66,5.78-16.66,12.9s7.46,12.9,16.66,12.9,16.66-5.78,16.66-12.9-7.46-12.9-16.66-12.9h0Z"/>
      </g>
    </g>
    <g id="bottomSupport">
      <rect x="56.02" y="317.42" width="538.12" height="27.15" fill="#fff"/>
      <path d="M593.65,317.92v26.15H56.52v-26.15h537.12M594.65,316.92H55.52v28.15h539.12v-28.15h0Z"/>
    </g>
    <g id="backSupport">
      <path d="M595.15,386.81v-240.87c0-12.81,10.42-23.24,23.24-23.24h3.99c2.8,0,5.09,2.28,5.09,5.09v259.02h-32.32Z" fill="#fff"/>
      <path d="M622.38,123.2c2.53,0,4.59,2.06,4.59,4.59v258.52h-31.32v-240.37c0-12.54,10.2-22.74,22.74-22.74h3.99M622.38,122.2h-3.99c-13.11,0-23.74,10.63-23.74,23.74v241.37h33.32V127.79c0-3.09-2.5-5.59-5.59-5.59h0Z"/>
    </g>
    <g id="mastress">
      <path d="M464.91,316.42v-81.11h110.88c10.12,0,18.35,8.23,18.35,18.35v62.76h-129.24Z" fill="#fff"/>
      <path d="M575.79,235.81c9.84,0,17.85,8.01,17.85,17.85v62.26h-128.24v-80.11h110.38M575.79,234.81h-111.38v82.11h130.24v-63.26c0-10.41-8.44-18.85-18.85-18.85h0Z"/>
    </g>
    <g id="blanket">
      <path d="M56.02,316.42v-78.43c0-7.95,6.47-14.42,14.42-14.42h401.21c7.08,0,12.84,5.76,12.84,12.84v63.65c0,9.02-7.34,16.36-16.36,16.36H56.02Z" fill="#fff"/>
      <path d="M471.65,224.08c6.8,0,12.34,5.54,12.34,12.34v63.65c0,8.74-7.11,15.86-15.86,15.86H56.52v-77.93c0-7.67,6.24-13.92,13.92-13.92h401.21M471.65,223.08H70.44c-8.24,0-14.92,6.68-14.92,14.92v78.93h412.61c9.31,0,16.86-7.55,16.86-16.86v-63.65c0-7.37-5.97-13.34-13.34-13.34h0Z"/>
    </g>
    <g id="pillow">
      <path d="M554.93,235.22c-10.14,0-20.63-.33-29.07-.59-5.42-.17-10.09-.32-12.99-.32-18.33,0-21.86-3.59-22.33-5.73-.82-3.73,5.65-9.39,16.49-14.43,3.15-1.46,6.04-3.05,8.83-4.59,11.03-6.06,21.45-11.79,48.51-11.79,13.28,0,20.98-1.49,25.11-2.29,1.63-.32,2.8-.54,3.57-.54.58,0,.78.14.88.24.45.46.4,1.95.32,4.42-.04,1.26-.09,2.83-.09,4.72s.27,4.14.55,6.48c.96,8.02,2.06,17.1-6.33,21.22-4.39,2.16-15.33,3.2-33.44,3.2Z" fill="#fff"/>
      <path d="M593.04,194.44v1c.43,0,.52.08.52.09.3.31.24,2.13.18,4.05-.04,1.26-.09,2.84-.09,4.74s.27,4.19.55,6.54c.94,7.85,2.01,16.75-6.05,20.71-4.26,2.09-15.43,3.15-33.22,3.15-10.13,0-20.62-.33-29.05-.59-5.42-.17-10.1-.32-13.01-.32-18.65,0-21.49-3.73-21.84-5.34-.76-3.44,5.75-9.01,16.21-13.87,3.17-1.47,6.06-3.06,8.86-4.6,10.97-6.03,21.33-11.73,48.26-11.73,13.33,0,21.06-1.5,25.21-2.3,1.6-.31,2.76-.53,3.47-.53v-1M593.04,194.44c-2.87,0-10.23,2.84-28.68,2.84-34.29,0-42.4,9.38-57.55,16.42-18.65,8.67-28.23,21.11,6.06,21.11,7.29,0,25.23.91,42.06.91,14.64,0,28.44-.69,33.66-3.25,11.24-5.52,6.06-19.73,6.06-28.15,0-7.78.85-9.88-1.61-9.88h0Z"/>
    </g>
    <g>
      <path d="M242.87,99.19c0-.15-.03-.26-.07-.33-.15-.24-.43-.4-.84-.5s-.83-.07-1.22.08l-12.37,4.56,1.05,5.95c.13,1.37.03,2.62-.32,3.72-.35,1.11-.85,2.09-1.53,2.96-.67.87-1.48,1.61-2.43,2.24-.95.63-1.99,1.15-3.12,1.56-1.27.47-2.54.78-3.81.93-1.27.15-2.45.14-3.56-.04-1.11-.17-2.1-.52-2.98-1.04-.88-.52-1.58-1.21-2.11-2.07-.79-1.29-1.34-2.81-1.64-4.56-.3-1.75-.2-3.52.29-5.29.49-1.78,1.44-3.46,2.87-5.06,1.43-1.59,3.47-2.88,6.12-3.86l58.35-21.52c2.11-.78,3.74-1.08,4.92-.92,1.17.16,1.98.61,2.43,1.34.3.49.46,1.09.46,1.79,0,.7-.14,1.43-.42,2.19l-7.69,45.87c-.32.93-.33,1.64-.04,2.11.2.32.52.53.98.61s.96.1,1.52.03c.56-.06,1.16-.19,1.8-.38.64-.2,1.23-.39,1.77-.6,2.25-.83,3.98-1.67,5.17-2.52,1.19-.85,2.04-1.7,2.55-2.54.51-.84.77-1.7.8-2.55.03-.85-.01-1.7-.13-2.54-.11-.84-.2-1.68-.23-2.51-.04-.83.13-1.65.53-2.45.39-.81,1.09-1.59,2.08-2.37.99-.77,2.49-1.53,4.49-2.27,1.27-.47,2.54-.78,3.8-.93,1.27-.15,2.45-.13,3.55.06s2.08.54,2.95,1.05c.87.51,1.57,1.2,2.1,2.06.79,1.29,1.35,2.82,1.66,4.6.31,1.77.23,3.56-.24,5.37-.47,1.81-1.4,3.52-2.8,5.13-1.39,1.61-3.42,2.91-6.07,3.89l-60.04,22.14c-.69.26-1.4.47-2.15.64-.75.17-1.45.25-2.12.25-.67,0-1.28-.11-1.83-.32-.55-.21-.98-.57-1.3-1.08-.3-.49-.46-1.13-.47-1.9s.15-1.74.47-2.88l8.82-48.06Z" fill="none" stroke="#000" stroke-miterlimit="10"/>
      <path d="M379.16,101.29c.82.19,1.47.68,1.96,1.47s.8,1.88.93,3.26c.14,1.38-.08,2.72-.65,4-.56,1.28-1.48,2.15-2.75,2.62l-41,15.15c-1.93.71-3.16.64-3.68-.22-1.06-1.72,2.93-11.74,11.96-30.09,3.45-7.05,5.81-11.93,7.07-14.64-2.6.63-6.25,1.81-10.95,3.55l-18.86,7.02.49,1.18c.86,2.11.92,4.08.17,5.91-.43,1.03-1.12,1.71-2.07,2.06-.95.35-1.81.39-2.57.11-.76-.27-1.48-.97-2.17-2.08-.68-1.11-1.1-2.25-1.26-3.42-.16-1.16.12-2.23.83-3.2,1.26-1.7,4.16-3.39,8.7-5.07l26.36-9.78c4.34-1.6,7.65-2.67,9.94-3.21h-.06c.76.01,1.28.25,1.54.67.26.43.26,1.2-.01,2.3-.28,1.1-.75,2.54-1.44,4.32-.88,2.37-2.55,6.33-5.02,11.89-2.47,5.56-5.04,11.01-7.73,16.35-2.68,5.34-4.4,8.58-5.18,9.71,1.63-.19,6.12-1.64,13.47-4.35,7.35-2.71,13.06-4.91,17.13-6.59.51-1.15.93-3.27,1.28-6.35.29-1.45.63-2.24,1.01-2.38.86-.32,1.7-.38,2.52-.19Z"/>
      <path d="M404.22,81.18c0-.09-.01-.15-.04-.19-.08-.13-.24-.23-.48-.28-.23-.05-.46-.04-.69.05l-7.01,2.58.59,3.37c.08.78.01,1.48-.18,2.11-.2.63-.49,1.19-.86,1.68-.38.49-.84.92-1.38,1.27-.54.36-1.12.65-1.76.89-.72.27-1.44.44-2.16.52-.72.09-1.39.08-2.02-.02-.63-.1-1.19-.29-1.69-.59-.5-.3-.9-.69-1.19-1.17-.45-.73-.76-1.59-.93-2.59s-.12-1.99.16-3c.28-1.01.82-1.96,1.63-2.87.81-.9,1.96-1.63,3.46-2.19l33.06-12.19c1.19-.44,2.12-.61,2.79-.52s1.12.35,1.38.76c.17.28.26.62.26,1.01s-.08.81-.24,1.24l-4.36,25.99c-.18.53-.18.93-.02,1.2.11.18.3.3.55.35.25.05.54.05.86.02.32-.04.66-.11,1.02-.22.36-.11.7-.22,1.01-.34,1.27-.47,2.25-.95,2.93-1.43.67-.48,1.15-.96,1.44-1.44.29-.48.44-.96.46-1.45s0-.96-.07-1.44c-.07-.48-.11-.95-.14-1.42-.02-.47.08-.93.3-1.39.22-.45.62-.9,1.18-1.34s1.41-.87,2.54-1.28c.72-.27,1.44-.44,2.16-.53.72-.08,1.39-.07,2.01.04.62.11,1.18.31,1.67.6.49.29.89.68,1.19,1.16.45.73.76,1.6.94,2.6.18,1,.13,2.02-.13,3.05-.27,1.02-.8,1.99-1.59,2.91s-1.94,1.65-3.44,2.2l-34.02,12.55c-.39.14-.8.26-1.22.36-.42.1-.82.14-1.2.14s-.72-.06-1.04-.18c-.31-.11-.56-.32-.74-.61-.17-.28-.26-.64-.27-1.08,0-.44.09-.98.27-1.63l5-27.24Z" fill="none" stroke="#000" stroke-miterlimit="10"/>
      <path d="M481.58,82.91c.45.08.8.33,1.06.74.25.4.39.97.42,1.69.04.72-.13,1.42-.49,2.1-.36.68-.9,1.15-1.62,1.43l-23.46,8.67c-1.11.41-1.79.39-2.06-.05-.54-.88,2-6.2,7.62-15.95,2.15-3.75,3.62-6.34,4.41-7.79-1.48.38-3.56,1.06-6.25,2.05l-10.79,4.01.24.61c.42,1.09.39,2.12-.08,3.09-.27.54-.68.92-1.22,1.12-.55.2-1.03.23-1.45.11-.42-.13-.8-.48-1.15-1.05s-.55-1.15-.6-1.76.14-1.17.56-1.69c.75-.91,2.43-1.85,5.04-2.8l15.08-5.6c2.48-.91,4.37-1.54,5.68-1.86h-.03c.43,0,.71.11.84.33.14.22.11.62-.08,1.2s-.5,1.34-.93,2.29c-.56,1.25-1.63,3.35-3.18,6.31-1.55,2.96-3.16,5.85-4.83,8.69s-2.73,4.56-3.2,5.17c.92-.13,3.48-.97,7.69-2.52,4.21-1.55,7.48-2.81,9.81-3.76.32-.61.62-1.73.91-3.34.21-.77.42-1.19.64-1.26.49-.18.97-.23,1.42-.14Z"/>
    </g>
  </g>
  <path d="M789.41,57.92c-1.7,53.26.13,189.91-92.76,545.94h185.78c-92.89-356.03-91.33-492.68-93.02-545.94Z" fill="none" stroke="#000" stroke-miterlimit="10"/>
  <path d="M1106.51,420.01v183.85h-224.08c-92.89-356.03-91.33-492.68-93.02-545.94l317.1,362.09Z" fill="#fff" stroke="#000" stroke-miterlimit="10" stroke-width="2"/>
  <path d="M789.41,57.92c-1.7,53.26.13,189.91-92.76,545.94h-199.84v-183.85L789.41,57.92Z" fill="#fff" stroke="#000" stroke-miterlimit="10" stroke-width="2"/>
  <line x1="496.81" y1="420.01" x2="315.91" y2="603.86" fill="none" stroke="#000" stroke-miterlimit="10"/>
  <line x1="1106.51" y1="420.01" x2="1271.83" y2="603.86" fill="none" stroke="#000" stroke-miterlimit="10"/>
  <line x1="789.41" y1="57.92" x2="789.41" y2="29.11" fill="none" stroke="#000" stroke-miterlimit="10" stroke-width="2"/>
  <path d="M1097.86,76.93c-32.71,0-59.23,26.52-59.23,59.23s26.52,59.23,59.23,59.23,59.23-26.52,59.23-59.23-26.51-59.23-59.23-59.23ZM1097.86,180.7c-24.6,0-44.54-19.94-44.54-44.54s19.94-44.54,44.54-44.54,44.54,19.94,44.54,44.54-19.94,44.54-44.54,44.54Z" fill="#fff" stroke="#000" stroke-miterlimit="10" stroke-width="2"/>
  <path d="M763.29,136.16c-11.23,111.83-37.64,280.25-108.77,415.84-7.84,14.94-16.04,29.23-24.51,42.89" fill="#fff" stroke="#000" stroke-miterlimit="10" stroke-width="2"/>
  <path d="M1014.29,352.34c12.07,8.88,27.99,27.39,40.74,41.37,61.45,67.34,39,168.34,38.07,201.19" fill="#fff" stroke="#000" stroke-miterlimit="10" stroke-width="2"/>
</svg>