<?xml version="1.0" encoding="UTF-8"?>
<svg id="Logo_Noir" xmlns="http://www.w3.org/2000/svg" xmlns:xlink="http://www.w3.org/1999/xlink" viewBox="0 0 1920 1080">
  <defs>
    <clipPath id="clippath">
      <rect x="1352.63" y="373.01" width="46.43" height="4.72" fill="none"/>
    </clipPath>
  </defs>
  <g>
    <path d="M814,395.98c7.03,0,10.55,1.25,10.55,3.75,0,1.09-.37,2.31-1.11,3.66-.74,1.35-1.11,2.9-1.11,4.66s.64,4.61,1.93,8.55c5.39,16.45,9.14,27.23,11.25,32.34,2.11,5.12,3.36,7.68,3.75,7.68,1.13,0,5.04-10.31,11.72-30.94,2.58-7.97,3.87-14,3.87-18.11,0-.98-.58-2.46-1.73-4.45-1.15-1.99-1.73-3.24-1.73-3.75,0-1.29.71-2.18,2.14-2.67,1.43-.49,4.29-.73,8.58-.73h4.1c4.41,0,7.26.34,8.53,1.03,1.27.68,1.9,1.63,1.9,2.84s-1.27,2.81-3.81,4.8c-2.54,1.99-4.41,4.24-5.62,6.74-.23.47-3.86,10.21-10.87,29.21-7.01,19-11.47,30.05-13.36,33.13-1.9,3.09-4.95,4.63-9.17,4.63-2.42,0-4.77-2.58-7.03-7.73-1.29-2.89-5.23-12.93-11.84-30.12l-5.8-15.18c-.98-2.54-2.07-5.44-3.28-8.7-1.21-3.26-2.07-5.46-2.58-6.59-.98-2.11-2.87-3.99-5.68-5.65-2.81-1.66-4.22-3.24-4.22-4.75s.31-2.41.94-2.72c1.21-.62,7.15-.94,17.81-.94h1.88Z"/>
    <path d="M946.35,477.55h-5.57c-5.2,0-8.31-.15-9.35-.44-1.04-.29-1.55-1.13-1.55-2.52s.98-3.06,2.93-5.01,3.18-3.92,3.69-5.89c.51-1.97.76-7.11.76-15.41s-.22-13.19-.64-14.68c-.43-1.48-1.77-2.76-4.01-3.84-2.25-1.07-3.37-2.36-3.37-3.87s1.03-2.61,3.11-3.31c4.69-1.56,9.86-2.34,15.53-2.34h.88c2.27,0,3.57.96,3.93,2.87.19,1.09.29,7.65.29,19.66s.26,19.04.79,21.09,1.88,4.23,4.07,6.53c2.19,2.31,3.28,3.75,3.28,4.34v.7c0,1.41-4.92,2.11-14.77,2.11ZM935.21,401.32c0-2.27.89-4.18,2.67-5.74,1.78-1.56,3.7-2.34,5.77-2.34h1.88c.59.12,1.07.18,1.46.18,1.88,0,3.53.84,4.98,2.52,1.44,1.68,2.17,3.28,2.17,4.8v1.52c-.08.39-.12.68-.12.88,0,1.64-.92,3.24-2.75,4.8-1.84,1.56-3.87,2.34-6.09,2.34h-1.82c-2.19,0-4.07-.69-5.65-2.08-1.58-1.39-2.37-2.98-2.37-4.78l-.12-.59v-1.52Z"/>
    <path d="M1058.25,428.56c0,3.28-.23,5.45-.7,6.5s-1.39,1.58-2.75,1.58c-2.19,0-4.54-1.58-7.06-4.75s-5.69-4.75-9.52-4.75c-2.19,0-3.93.57-5.21,1.7-1.29,1.13-1.93,2.38-1.93,3.75,0,2.34,1.13,4.3,3.4,5.86,1.09.74,4.6,2.35,10.52,4.83,5.92,2.48,10.16,5.04,12.71,7.68,2.56,2.64,3.84,6.22,3.84,10.75s-1.93,8.48-5.8,11.84c-3.87,3.36-8.83,5.04-14.88,5.04h-3.11c-7.58,0-13.26-.9-17.05-2.7-2.66-1.25-3.98-4.22-3.98-8.91s.88-7.03,2.64-7.03c2.23,0,4.99,1.82,8.29,5.45s6.88,5.45,10.75,5.45c2.34,0,4.33-.5,5.95-1.49s2.43-2.56,2.43-4.69-1.13-4.03-3.4-5.71c-1.21-.9-4.48-2.49-9.81-4.78s-9.13-4.5-11.4-6.65c-3.4-3.2-5.1-7.14-5.1-11.81s1.99-8.53,5.98-11.6c3.98-3.07,8.63-4.6,13.95-4.6h1.58c8.36,0,14.04.86,17.05,2.58,1.76,1.02,2.64,3.16,2.64,6.45Z"/>
    <path d="M1134.58,477.55h-5.57c-5.2,0-8.31-.15-9.35-.44-1.04-.29-1.55-1.13-1.55-2.52s.98-3.06,2.93-5.01c1.95-1.95,3.18-3.92,3.69-5.89.51-1.97.76-7.11.76-15.41s-.21-13.19-.64-14.68c-.43-1.48-1.77-2.76-4.01-3.84-2.25-1.07-3.37-2.36-3.37-3.87s1.03-2.61,3.11-3.31c4.69-1.56,9.86-2.34,15.53-2.34h.88c2.26,0,3.57.96,3.93,2.87.2,1.09.29,7.65.29,19.66s.26,19.04.79,21.09,1.88,4.23,4.07,6.53c2.19,2.31,3.28,3.75,3.28,4.34v.7c0,1.41-4.92,2.11-14.77,2.11ZM1123.44,401.32c0-2.27.89-4.18,2.67-5.74,1.78-1.56,3.7-2.34,5.77-2.34h1.88c.59.12,1.07.18,1.46.18,1.88,0,3.54.84,4.98,2.52,1.44,1.68,2.17,3.28,2.17,4.8v1.52c-.08.39-.12.68-.12.88,0,1.64-.92,3.24-2.75,4.8-1.84,1.56-3.87,2.34-6.09,2.34h-1.82c-2.19,0-4.07-.69-5.65-2.08-1.58-1.39-2.37-2.98-2.37-4.78l-.12-.59v-1.52Z"/>
    <path d="M1205.99,428.68c-1.72-1.17-2.58-2.31-2.58-3.43s1.03-2.22,3.11-3.31c2.07-1.09,3.36-1.97,3.87-2.64.51-.66,1.32-2.5,2.43-5.51,1.11-3.01,2.29-5.32,3.54-6.94,1.25-1.62,2.89-2.43,4.92-2.43s3.5.82,4.39,2.46c.39.74.91,2.5,1.55,5.27.64,2.77,1.42,4.55,2.31,5.33.9.78,2.62,1.65,5.16,2.61,2.54.96,3.85,1.46,3.93,1.49,1.33,1.05,1.99,2.31,1.99,3.75,0,1.25-1.85,2.36-5.54,3.34-3.69.98-6.06,2.46-7.09,4.45-1.04,1.99-1.55,6.97-1.55,14.94s.62,13.15,1.85,15.53c1.23,2.38,3.25,3.57,6.06,3.57l2.11-.18c.94-.08,1.95-.12,3.05-.12,2.38,0,3.57.9,3.57,2.7,0,2.31-1.45,4.14-4.34,5.51-4.14,1.95-8.52,2.93-13.12,2.93-2.15,0-4.3-.59-6.45-1.76-2.15-1.17-3.79-2.6-4.92-4.28-2.23-3.28-3.34-7.97-3.34-14.06l-.06-1.23c-.04-.86-.06-1.82-.06-2.87v-3.46c0-6.76-.55-12.52-1.64-17.29-.39-1.76-1.45-3.22-3.16-4.39Z"/>
    <path d="M528.79,487.79v55.59c0,4.03.54,7.16,1.61,9.4,1.07,2.24,2.42,3.94,4.03,5.1,1.61,1.16,3.36,1.97,5.24,2.42,1.88.45,3.63.94,5.24,1.48s2.95,1.28,4.03,2.21c1.07.94,1.61,2.48,1.61,4.63,0,5.55-1.23,10.34-3.69,14.37-2.46,4.03-5.62,7.32-9.47,9.87-3.85,2.55-8.17,4.43-12.96,5.64-4.79,1.21-9.47,1.81-14.03,1.81-5.37,0-10.59-.6-15.64-1.81-5.06-1.21-9.53-3.09-13.43-5.64-3.89-2.55-7.03-5.84-9.4-9.87-2.37-4.03-3.56-8.82-3.56-14.37,0-2.15.54-3.69,1.61-4.63,1.07-.94,2.39-1.66,3.96-2.15,1.57-.49,3.27-.96,5.1-1.41,1.83-.45,3.54-1.23,5.1-2.35,1.57-1.12,2.89-2.75,3.96-4.9s1.61-5.24,1.61-9.27v-101.25c0-3.94-.54-7-1.61-9.2-1.07-2.19-2.4-3.85-3.96-4.97-1.57-1.12-3.27-1.9-5.1-2.35-1.84-.45-3.54-.92-5.1-1.41-1.57-.49-2.89-1.21-3.96-2.15-1.07-.94-1.61-2.48-1.61-4.63,0-5.55,1.3-10.32,3.89-14.3,2.6-3.98,6.15-7.25,10.68-9.8,4.52-2.55,9.8-4.43,15.84-5.64,6.04-1.21,12.55-1.81,19.54-1.81,6.62,0,12.2.63,16.72,1.88,4.52,1.25,8.57,3.25,12.15,5.98,3.58,2.73,6.96,6.29,10.14,10.68,3.18,4.39,6.69,9.67,10.54,15.84l35.99,58.28,32.5-55.32c2.95-5.1,6.11-9.91,9.47-14.44,3.36-4.52,7.09-8.48,11.21-11.88,4.12-3.4,8.73-6.09,13.83-8.06,5.1-1.97,10.92-2.95,17.46-2.95,10.92,0,20.32.6,28.2,1.81,7.88,1.21,14.34,3.09,19.4,5.64,5.06,2.55,8.79,5.82,11.21,9.8,2.42,3.98,3.63,8.75,3.63,14.3,0,2.15-.54,3.69-1.61,4.63-1.07.94-2.42,1.66-4.03,2.15-1.61.49-3.36.96-5.24,1.41-1.88.45-3.63,1.23-5.24,2.35-1.61,1.12-2.95,2.78-4.03,4.97-1.07,2.19-1.61,5.26-1.61,9.2v100.71c0,4.03.54,7.16,1.61,9.4,1.07,2.24,2.42,3.94,4.03,5.1,1.61,1.16,3.36,1.97,5.24,2.42,1.88.45,3.63.94,5.24,1.48s2.95,1.28,4.03,2.21c1.07.94,1.61,2.48,1.61,4.63,0,11.19-5.77,19.27-17.32,24.24-11.55,4.97-28.24,7.45-50.09,7.45-10.56,0-19.94-.6-28.13-1.81-8.19-1.21-15.08-3.09-20.68-5.64-5.6-2.55-9.85-5.84-12.76-9.87-2.91-4.03-4.36-8.82-4.36-14.37,0-2.15.54-3.69,1.61-4.63,1.07-.94,2.39-1.66,3.96-2.15,1.57-.49,3.27-.96,5.1-1.41,1.83-.45,3.54-1.23,5.1-2.35,1.57-1.12,2.89-2.75,3.96-4.9s1.61-5.24,1.61-9.27v-55.86l-48.07,80.57c-1.07,2.06-2.78,3.09-5.1,3.09-2.06,0-3.85-1.03-5.37-3.09l-51.43-80.83Z"/>
    <path d="M819.61,602.09c-5.66,0-10.85-.67-15.58-2-4.73-1.33-8.98-3.15-12.76-5.45-3.78-2.3-7.09-5.03-9.94-8.16s-5.23-6.52-7.13-10.16c-1.9-3.64-3.33-7.43-4.28-11.37-.95-3.94-1.43-7.89-1.43-11.83s.51-8.02,1.53-11.94c1.02-3.92,2.57-7.64,4.63-11.16,2.07-3.52,4.65-6.75,7.73-9.7,3.09-2.95,6.71-5.49,10.87-7.63,4.16-2.14,8.84-3.81,14.04-5.03s10.94-1.82,17.22-1.82c5.51,0,10.56.62,15.15,1.85,4.59,1.24,8.73,2.94,12.44,5.1,3.71,2.16,6.95,4.72,9.73,7.66,2.78,2.95,5.1,6.16,6.95,9.62,1.85,3.47,3.24,7.13,4.17,10.98s1.39,7.72,1.39,11.62-.5,8.08-1.5,12.12c-1,4.04-2.51,7.89-4.53,11.55-2.02,3.66-4.55,7.06-7.59,10.19-3.04,3.14-6.59,5.86-10.66,8.16-4.06,2.31-8.64,4.11-13.72,5.42-5.09,1.31-10.67,1.96-16.75,1.96ZM822.82,583.84c1.57,0,2.89-.46,3.96-1.39,1.07-.93,1.94-2.27,2.6-4.03.67-1.76,1.14-3.89,1.43-6.38.29-2.5.43-5.29.43-8.38,0-2.71-.02-5.57-.07-8.59-.05-3.02-.17-5.99-.36-8.91-.19-2.92-.5-5.71-.93-8.38-.43-2.66-1.03-5.01-1.82-7.06-.78-2.04-1.77-3.66-2.96-4.85-1.19-1.19-2.64-1.78-4.35-1.78s-3.08.46-4.24,1.39c-1.17.93-2.13,2.22-2.89,3.89-.76,1.66-1.32,3.66-1.68,5.99-.36,2.33-.53,4.9-.53,7.7,0,2.61.05,5.44.14,8.48.09,3.04.29,6.07.57,9.09.29,3.02.7,5.93,1.25,8.73.55,2.8,1.24,5.28,2.07,7.41.83,2.14,1.85,3.85,3.07,5.13s2.65,1.92,4.31,1.92Z"/>
    <path d="M929.12,572.87c0,1.95.26,3.47.78,4.56.52,1.09,1.18,1.91,1.96,2.46.78.55,1.63.93,2.53,1.14.9.21,1.75.44,2.53.68.78.24,1.44.58,1.96,1.03.52.45.78,1.2.78,2.25,0,5.42-2.8,9.33-8.41,11.73-5.61,2.4-13.71,3.6-24.31,3.6-5.13,0-9.67-.29-13.62-.86-3.95-.57-7.27-1.48-9.98-2.74-2.71-1.26-4.77-2.85-6.17-4.78-1.4-1.92-2.1-4.24-2.1-6.95,0-1.04.26-1.79.78-2.25.52-.45,1.16-.8,1.92-1.03.76-.24,1.59-.45,2.5-.64.9-.19,1.73-.56,2.5-1.11.76-.54,1.4-1.33,1.92-2.35.52-1.02.78-2.51.78-4.46v-38.07c0-1.9-.26-3.37-.78-4.42-.52-1.04-1.17-1.84-1.92-2.39-.76-.55-1.59-.92-2.5-1.11-.9-.19-1.74-.4-2.5-.64-.76-.24-1.4-.58-1.92-1.03-.52-.45-.78-1.2-.78-2.25,0-2.71.7-5.03,2.1-6.95,1.4-1.92,3.46-3.52,6.17-4.78,2.71-1.26,6.04-2.17,9.98-2.74,3.94-.57,8.48-.86,13.62-.86,4.66,0,8.36.39,11.12,1.18,2.76.78,4.89,1.65,6.42,2.6,1.76,1.14,2.97,2.4,3.64,3.78,2.47-1.76,5.42-3.35,8.84-4.78,2.95-1.24,6.55-2.35,10.8-3.35,4.25-1,9.23-1.5,14.94-1.5,5.23,0,9.73.65,13.51,1.96,3.78,1.31,6.99,3.07,9.62,5.28s4.76,4.78,6.38,7.7c1.62,2.92,2.86,5.98,3.74,9.16.88,3.18,1.47,6.41,1.78,9.66.31,3.26.46,6.36.46,9.3v23.6c0,2,.26,3.55.78,4.67.52,1.12,1.19,1.97,2,2.57.81.59,1.67,1,2.6,1.21.93.21,1.79.45,2.6.71.81.26,1.47.62,2,1.07.52.45.78,1.2.78,2.25,0,5.42-2.79,9.33-8.38,11.73-5.58,2.4-13.68,3.6-24.27,3.6-5.13,0-9.67-.29-13.62-.86-3.95-.57-7.27-1.48-9.98-2.74-2.71-1.26-4.77-2.85-6.17-4.78-1.4-1.92-2.1-4.24-2.1-6.95,0-1.04.26-1.79.78-2.25.52-.45,1.19-.8,2-1.03.81-.24,1.66-.45,2.57-.64.9-.19,1.76-.56,2.57-1.11.81-.54,1.47-1.33,2-2.35.52-1.02.78-2.51.78-4.46v-30.44c0-2.95-.23-5.57-.68-7.88-.45-2.3-1.21-4.25-2.28-5.85-1.07-1.59-2.48-2.8-4.24-3.64-1.76-.83-3.95-1.25-6.56-1.25-1.66,0-3.23.27-4.71.82-1.47.55-2.76,1.31-3.85,2.28-1.09.97-1.96,2.14-2.6,3.49-.64,1.35-.96,2.82-.96,4.38l-.14,37.78Z"/>
    <path d="M1057.8,564.81c0,1.57.05,3.08.14,4.53.1,1.45.38,2.74.86,3.88s1.21,2.04,2.21,2.71c1,.67,2.38,1,4.13,1,2.47,0,4.62-.32,6.45-.96,1.83-.64,3.72-1.48,5.67-2.53.76-.43,1.47-.64,2.14-.64,1.09,0,1.96.48,2.6,1.43.64.95.96,2.02.96,3.21,0,.81-.12,1.47-.36,2-1.38,3.52-3.15,6.68-5.31,9.48-2.16,2.8-4.66,5.18-7.48,7.13-2.83,1.95-5.93,3.45-9.3,4.49s-6.99,1.57-10.84,1.57c-5.32,0-9.88-.68-13.69-2.03-3.8-1.35-7.01-3.16-9.62-5.42-2.61-2.26-4.71-4.87-6.27-7.84-1.57-2.97-2.77-6.08-3.6-9.34-.83-3.25-1.38-6.53-1.64-9.84-.26-3.3-.39-6.43-.39-9.38v-36.07h-3.49c-1.76,0-3.14-.51-4.13-1.53-1-1.02-1.5-2.15-1.5-3.39,0-1.47.67-2.71,2-3.71,5.56-3.99,10.65-7.85,15.26-11.58,4.61-3.73,8.58-7.07,11.91-10.02,3.9-3.42,7.39-6.63,10.48-9.62,1.24-1.24,2.5-2.15,3.78-2.74,1.28-.59,2.52-.89,3.71-.89,1.47,0,2.71.5,3.71,1.5s1.5,2.54,1.5,4.63v23.1h17.39c.57,0,1.25.04,2.03.11.78.07,1.53.32,2.24.75s1.32,1.1,1.82,2.03c.5.93.75,2.25.75,3.96,0,1.85-.24,3.28-.71,4.28s-1.07,1.74-1.78,2.21c-.71.48-1.46.75-2.25.82-.78.07-1.49.11-2.1.11h-17.39l.14,42.63Z"/>
    <path d="M1128.74,505.85c7.08,0,13.13.78,18.14,2.35,5.01,1.57,9.12,3.68,12.33,6.34,3.21,2.66,5.55,5.77,7.02,9.34,1.47,3.56,2.21,7.34,2.21,11.33,0,1.66-.26,3.14-.78,4.42-.52,1.28-1.22,2.38-2.1,3.28-.88.9-1.94,1.59-3.17,2.07-1.24.48-2.57.71-3.99.71-1.24,0-2.5-.21-3.78-.64s-2.5-1.12-3.64-2.07c-1.14-.95-2.16-2.19-3.07-3.71-.9-1.52-1.59-3.37-2.07-5.56-.38-1.57-.95-2.95-1.71-4.13-.76-1.19-1.63-2.2-2.6-3.03-.97-.83-2.04-1.45-3.21-1.85-1.17-.4-2.32-.61-3.46-.61-2.04,0-3.81.43-5.31,1.28-1.5.86-2.74,2.1-3.74,3.74-1,1.64-1.74,3.63-2.21,5.99-.48,2.35-.71,5-.71,7.95,0,11.41,1.72,19.85,5.17,25.34,3.44,5.49,8.97,8.23,16.57,8.23,2.19,0,4.42-.3,6.7-.89,2.28-.59,4.4-1.25,6.34-1.96,1.95-.71,3.64-1.37,5.06-1.96,1.43-.59,2.4-.89,2.92-.89,1.09,0,1.95.46,2.57,1.39.62.93.93,1.98.93,3.17,0,.38-.01.74-.04,1.07-.03.33-.11.67-.25,1-1.38,3.52-3.33,6.76-5.85,9.73-2.52,2.97-5.53,5.56-9.02,7.77-3.49,2.21-7.45,3.93-11.87,5.17s-9.22,1.85-14.4,1.85-10.19-.63-14.61-1.89c-4.42-1.26-8.4-3.02-11.94-5.28-3.54-2.26-6.63-4.91-9.27-7.95-2.64-3.04-4.85-6.36-6.63-9.94-1.78-3.59-3.11-7.34-3.99-11.26-.88-3.92-1.32-7.88-1.32-11.87s.45-8.04,1.35-12.01c.9-3.97,2.26-7.73,4.06-11.3,1.81-3.56,4.06-6.85,6.77-9.87,2.71-3.02,5.87-5.63,9.48-7.84,3.61-2.21,7.67-3.93,12.19-5.17,4.51-1.24,9.48-1.85,14.9-1.85Z"/>
    <path d="M1247.44,535.37c0-1.95-.26-3.47-.78-4.56-.52-1.09-1.18-1.91-1.96-2.46-.78-.55-1.63-.93-2.53-1.14-.9-.21-1.75-.44-2.53-.68-.79-.24-1.44-.58-1.96-1.03-.52-.45-.78-1.2-.78-2.25,0-5.42,2.8-9.33,8.41-11.73,5.61-2.4,13.71-3.6,24.31-3.6,3.56,0,6.56.33,8.98,1,2.42.67,4.43,1.59,6.02,2.78,1.59,1.19,2.83,2.61,3.71,4.28.88,1.66,1.52,3.51,1.93,5.52.4,2.02.64,4.17.71,6.45.07,2.28.11,4.66.11,7.13v38.21c0,1.9.25,3.38.75,4.42.5,1.05,1.14,1.84,1.92,2.39.79.55,1.62.92,2.5,1.11.88.19,1.71.4,2.49.64.79.24,1.43.58,1.93,1.03.5.45.75,1.2.75,2.25,0,5.42-2.74,9.33-8.23,11.73-5.49,2.4-13.34,3.6-23.56,3.6-2.52,0-4.75-.19-6.7-.57-1.95-.38-3.65-.88-5.1-1.5-1.45-.62-2.7-1.32-3.74-2.1-1.05-.79-1.92-1.6-2.64-2.46-1.66-1.9-2.71-4.11-3.14-6.63-2.47,2.8-5.39,5.3-8.77,7.49-1.43.95-3.04,1.87-4.85,2.75-1.81.88-3.78,1.66-5.92,2.35-2.14.69-4.46,1.25-6.95,1.68-2.5.43-5.15.64-7.95.64-5.23,0-9.74-.65-13.54-1.96-3.8-1.31-7.02-3.05-9.66-5.24-2.64-2.19-4.76-4.73-6.38-7.63-1.62-2.9-2.88-5.94-3.78-9.12-.9-3.18-1.51-6.4-1.82-9.66-.31-3.25-.46-6.36-.46-9.3v-23.45c0-2-.26-3.55-.78-4.67-.52-1.12-1.19-1.97-2-2.57-.81-.59-1.66-1-2.57-1.21-.9-.21-1.76-.45-2.57-.71-.81-.26-1.47-.62-2-1.07-.52-.45-.78-1.2-.78-2.25,0-5.42,2.8-9.33,8.41-11.73,5.61-2.4,13.71-3.6,24.31-3.6,4.71,0,8.46.57,11.26,1.71,2.8,1.14,4.94,2.7,6.42,4.67,1.47,1.97,2.42,4.31,2.85,7.02s.64,5.63.64,8.77v35.22c0,2.95.22,5.57.68,7.88.45,2.31,1.21,4.27,2.28,5.88,1.07,1.62,2.48,2.84,4.24,3.67,1.76.83,3.94,1.25,6.56,1.25,1.66,0,3.23-.26,4.71-.78,1.47-.52,2.76-1.26,3.85-2.21,1.09-.95,1.96-2.08,2.6-3.39.64-1.31.96-2.75.96-4.31l.14-37.93Z"/>
    <path d="M1365.57,592.9c-1.28,1.14-2.82,2.26-4.6,3.35-1.78,1.09-3.85,2.07-6.2,2.92-2.35.86-5,1.56-7.95,2.1-2.95.54-6.23.82-9.84.82-4.8,0-9.04-.67-12.72-2-3.68-1.33-6.87-3.15-9.55-5.45-2.69-2.3-4.93-5-6.74-8.09-1.81-3.09-3.26-6.39-4.35-9.91-1.09-3.52-1.87-7.15-2.32-10.91-.45-3.75-.68-7.46-.68-11.12s.24-7.56.71-11.41c.47-3.85,1.27-7.58,2.39-11.19,1.12-3.61,2.6-7.01,4.46-10.19,1.85-3.18,4.15-5.95,6.88-8.31,2.73-2.35,5.94-4.22,9.62-5.6,3.68-1.38,7.92-2.07,12.72-2.07,3.85,0,7.32.32,10.41.96,3.09.64,5.86,1.46,8.3,2.46,2.45,1,4.57,2.12,6.38,3.35,1.81,1.24,3.33,2.42,4.56,3.56.52-1.57,1.28-2.88,2.28-3.92,1-1.04,2.32-1.89,3.96-2.53,1.64-.64,3.66-1.1,6.06-1.39,2.4-.29,5.26-.43,8.59-.43,5.08,0,9.6.29,13.54.86,3.94.57,7.27,1.49,9.98,2.74,2.71,1.26,4.76,2.85,6.17,4.78,1.4,1.92,2.1,4.24,2.1,6.95,0,1.05-.25,1.79-.75,2.25-.5.45-1.14.8-1.92,1.03-.79.24-1.62.45-2.5.64-.88.19-1.71.56-2.49,1.11-.79.55-1.43,1.34-1.93,2.39-.5,1.05-.75,2.52-.75,4.42v78.06c0,1.95.25,3.43.75,4.46.5,1.02,1.14,1.81,1.93,2.35.78.54,1.61.91,2.49,1.1.88.19,1.71.4,2.5.64.78.24,1.43.58,1.92,1.03.5.45.75,1.2.75,2.25,0,2.71-.7,5.03-2.1,6.95-1.4,1.92-3.46,3.52-6.17,4.78-2.71,1.26-6.04,2.17-9.98,2.75-3.95.57-8.46.86-13.54.86-10.6,0-18.7-1.2-24.31-3.6-5.61-2.4-8.41-6.31-8.41-11.73,0-1.05.26-1.79.78-2.25.52-.45,1.16-.8,1.92-1.03.76-.24,1.6-.46,2.53-.68.93-.21,1.77-.59,2.53-1.14.76-.55,1.4-1.35,1.92-2.42.52-1.07.78-2.6.78-4.6l-.14-19.96ZM1354.81,583.2c1.9,0,3.8-.33,5.7-1,1.9-.67,3.59-1.4,5.06-2.21v-52.68c-1.33-.9-2.79-1.66-4.38-2.28-1.59-.62-3.29-.93-5.1-.93-2.19,0-4.04.5-5.56,1.5-1.52,1-2.76,2.67-3.71,5.03-.95,2.35-1.64,5.51-2.07,9.48-.43,3.97-.64,8.9-.64,14.79s.06,10.24.18,13.9c.12,3.66.51,6.56,1.18,8.7.67,2.14,1.72,3.62,3.17,4.46,1.45.83,3.5,1.25,6.17,1.25Z"/>
  </g>
  <g id="Donjon">
    <path d="M1405.85,362.2c-1.07.16-1.12.63-1.17.72-1.19,3.53-1.64,4.13-2.83,7.66h-.34v127.66h7.83v-135.26c-.46-.88-2.58-.92-3.49-.78Z"/>
    <path d="M1351.46,370.59v127.66h48.77v-127.66h-48.77ZM1376.74,394.09h-1.79v-4.84h1.79v4.84ZM1394.53,416.88h-5.28v-10.38h0s0,0,0,0c0-.99,1.18-3.06,2.64-3.06s2.63,2.07,2.63,3.06c0,0,0,0,0,0h0v10.38Z"/>
    <g clip-path="url(#clippath)">
      <g>
        <rect x="1354.14" y="373.01" width=".85" height="1.66" fill="#fff"/>
        <rect x="1357.16" y="373.01" width=".85" height="1.66" fill="#fff"/>
        <rect x="1360.17" y="373.01" width=".85" height="1.66" fill="#fff"/>
        <rect x="1363.19" y="373.01" width=".85" height="1.66" fill="#fff"/>
        <rect x="1366.2" y="373.01" width=".85" height="1.66" fill="#fff"/>
        <rect x="1369.22" y="373.01" width=".85" height="1.66" fill="#fff"/>
        <rect x="1372.23" y="373.01" width=".85" height="1.66" fill="#fff"/>
        <rect x="1375.25" y="373.01" width=".85" height="1.66" fill="#fff"/>
        <rect x="1378.26" y="373.01" width=".85" height="1.66" fill="#fff"/>
        <rect x="1381.28" y="373.01" width=".85" height="1.66" fill="#fff"/>
        <rect x="1384.3" y="373.01" width=".85" height="1.66" fill="#fff"/>
        <rect x="1387.31" y="373.01" width=".85" height="1.66" fill="#fff"/>
        <rect x="1390.33" y="373.01" width=".85" height="1.66" fill="#fff"/>
        <rect x="1393.34" y="373.01" width=".85" height="1.66" fill="#fff"/>
        <rect x="1396.36" y="373.01" width=".85" height="1.66" fill="#fff"/>
      </g>
    </g>
  </g>
  <g id="Clocher">
    <path d="M1341.83,364.33h-75.32v55.47h75.32v-55.47ZM1274.2,416.13l-4.99-.85v-32.37c0-.92,1.83-2.52,2.5-2.52s2.49,1.6,2.49,2.52v33.22ZM1296.34,416.05h-11.91v-31.33c0-1.22,1.36-4.33,5.95-4.33,3.92,0,5.96,3.11,5.96,4.33v31.33ZM1323.92,416.05h-11.92v-31.33c0-1.22,1.36-4.33,5.96-4.33,3.91,0,5.96,3.11,5.96,4.33v31.33ZM1334.2,416.13v-33.65c0-.92,1.82-2.52,2.49-2.52s2.5,1.6,2.5,2.52v32.46l-4.99,1.19Z"/>
    <polygon points="1342.78 363.48 1345.07 362.7 1304.17 346.63 1263.27 362.7 1265.57 363.48 1342.78 363.48"/>
    <path d="M1266.51,420.65v77.6h75.32v-77.6h-75.32ZM1274.17,468.81l-4.99-.85v-32.37c0-.92,1.83-2.52,2.5-2.52s2.49,1.6,2.49,2.52v33.22ZM1296.31,468.73h-11.91v-31.33c0-1.22,1.36-4.33,5.95-4.33,3.92,0,5.96,3.11,5.96,4.33v31.33ZM1323.89,468.73h-11.92v-31.33c0-1.22,1.36-4.33,5.96-4.33,3.91,0,5.96,3.11,5.96,4.33v31.33ZM1339.16,467.63l-4.99,1.19v-33.65c0-.92,1.82-2.52,2.49-2.52s2.5,1.6,2.5,2.52v32.46Z"/>
    <line x1="1304.17" y1="347.72" x2="1304.17" y2="338.65" fill="none" stroke="#000" stroke-miterlimit="10" stroke-width=".75"/>
  </g>
</svg>