<?xml version="1.0" encoding="UTF-8"?>
<svg id="Mini_Logo_Blanc" xmlns="http://www.w3.org/2000/svg" xmlns:xlink="http://www.w3.org/1999/xlink" viewBox="0 0 491.55 302.33">
  <defs>
    <clipPath id="clippath">
      <rect x="434.85" y="35.88" width="46.43" height="4.72" fill="none"/>
    </clipPath>
  </defs>
  <g>
    <path d="M80.25,130.01v64.89c0,4.7.63,8.36,1.88,10.97,1.25,2.61,2.82,4.6,4.7,5.96,1.88,1.36,3.92,2.3,6.11,2.82,2.19.52,4.23,1.1,6.11,1.72s3.45,1.49,4.7,2.59c1.25,1.1,1.88,2.9,1.88,5.41,0,6.48-1.44,12.07-4.31,16.77-2.88,4.7-6.56,8.54-11.05,11.52-4.49,2.98-9.54,5.17-15.12,6.58-5.59,1.41-11.05,2.12-16.38,2.12-6.27,0-12.36-.71-18.26-2.12-5.9-1.41-11.13-3.6-15.67-6.58-4.54-2.98-8.2-6.82-10.97-11.52-2.77-4.7-4.15-10.29-4.15-16.77,0-2.51.63-4.31,1.88-5.41,1.25-1.1,2.79-1.93,4.62-2.51,1.83-.57,3.81-1.12,5.96-1.65,2.14-.52,4.13-1.44,5.96-2.74,1.83-1.31,3.37-3.21,4.62-5.72s1.88-6.11,1.88-10.81v-118.18c0-4.6-.63-8.17-1.88-10.74-1.25-2.56-2.8-4.49-4.62-5.8-1.83-1.3-3.82-2.22-5.96-2.74-2.14-.52-4.13-1.07-5.96-1.65-1.83-.57-3.37-1.41-4.62-2.51-1.25-1.1-1.88-2.9-1.88-5.41,0-6.48,1.51-12.04,4.55-16.69,3.03-4.65,7.18-8.46,12.46-11.44,5.28-2.98,11.44-5.17,18.5-6.58,7.05-1.41,14.66-2.12,22.81-2.12,7.73,0,14.24.73,19.51,2.19,5.28,1.46,10,3.79,14.19,6.97,4.18,3.19,8.12,7.34,11.83,12.46,3.71,5.12,7.81,11.29,12.3,18.5l42.01,68.02,37.93-64.58c3.45-5.96,7.13-11.57,11.05-16.85,3.92-5.28,8.28-9.9,13.09-13.87,4.8-3.97,10.19-7.1,16.14-9.4,5.96-2.3,12.75-3.45,20.38-3.45,12.75,0,23.72.71,32.92,2.12,9.19,1.41,16.74,3.61,22.65,6.58,5.9,2.98,10.27,6.79,13.09,11.44,2.82,4.65,4.23,10.21,4.23,16.69,0,2.51-.63,4.31-1.88,5.41-1.25,1.1-2.82,1.94-4.7,2.51-1.88.58-3.92,1.12-6.11,1.65-2.19.52-4.23,1.44-6.11,2.74-1.88,1.31-3.45,3.24-4.7,5.8-1.25,2.56-1.88,6.14-1.88,10.74v117.55c0,4.7.63,8.36,1.88,10.97,1.25,2.61,2.82,4.6,4.7,5.96,1.88,1.36,3.92,2.3,6.11,2.82,2.19.52,4.23,1.1,6.11,1.72s3.45,1.49,4.7,2.59c1.25,1.1,1.88,2.9,1.88,5.41,0,13.06-6.74,22.49-20.22,28.29-13.48,5.8-32.97,8.7-58.46,8.7-12.33,0-23.28-.71-32.84-2.12-9.56-1.41-17.61-3.6-24.14-6.58-6.53-2.98-11.5-6.82-14.89-11.52-3.4-4.7-5.09-10.29-5.09-16.77,0-2.51.63-4.31,1.88-5.41,1.25-1.1,2.79-1.93,4.62-2.51,1.83-.57,3.81-1.12,5.96-1.65,2.14-.52,4.13-1.44,5.96-2.74,1.83-1.31,3.37-3.21,4.62-5.72s1.88-6.11,1.88-10.81v-65.2l-56.11,94.04c-1.25,2.41-3.24,3.61-5.96,3.61-2.41,0-4.49-1.2-6.27-3.61l-60.03-94.36Z" fill="#fff"/>
    <path d="M425.12,253.95c-1.28,1.14-2.82,2.26-4.6,3.35-1.78,1.09-3.85,2.07-6.2,2.92-2.35.86-5,1.56-7.95,2.1-2.95.54-6.23.82-9.84.82-4.8,0-9.04-.67-12.72-2-3.68-1.33-6.87-3.15-9.55-5.45-2.69-2.3-4.93-5-6.74-8.09-1.81-3.09-3.26-6.39-4.35-9.91-1.09-3.52-1.87-7.15-2.32-10.91-.45-3.75-.68-7.46-.68-11.12s.24-7.56.71-11.41c.47-3.85,1.27-7.58,2.39-11.19,1.12-3.61,2.6-7.01,4.46-10.19,1.85-3.18,4.15-5.95,6.88-8.3,2.73-2.35,5.94-4.22,9.62-5.6,3.68-1.38,7.92-2.07,12.72-2.07,3.85,0,7.32.32,10.41.96,3.09.64,5.86,1.46,8.3,2.46,2.45,1,4.57,2.12,6.38,3.35,1.81,1.24,3.33,2.42,4.56,3.56.52-1.57,1.28-2.88,2.28-3.92,1-1.04,2.32-1.89,3.96-2.53,1.64-.64,3.66-1.11,6.06-1.39,2.4-.29,5.26-.43,8.59-.43,5.08,0,9.6.29,13.54.86,3.94.57,7.27,1.49,9.98,2.75,2.71,1.26,4.76,2.85,6.17,4.78,1.4,1.92,2.1,4.24,2.1,6.95,0,1.05-.25,1.79-.75,2.25-.5.45-1.14.8-1.92,1.03-.79.24-1.62.45-2.5.64-.88.19-1.71.56-2.49,1.11-.79.55-1.43,1.34-1.93,2.39-.5,1.05-.75,2.52-.75,4.42v78.06c0,1.95.25,3.43.75,4.46.5,1.02,1.14,1.81,1.93,2.35.78.54,1.61.91,2.49,1.1.88.19,1.71.4,2.5.64.78.24,1.43.58,1.92,1.03.5.45.75,1.2.75,2.25,0,2.71-.7,5.03-2.1,6.95-1.4,1.92-3.46,3.52-6.17,4.78-2.71,1.26-6.04,2.17-9.98,2.75-3.95.57-8.46.86-13.54.86-10.6,0-18.7-1.2-24.31-3.6-5.61-2.4-8.41-6.31-8.41-11.73,0-1.05.26-1.79.78-2.25.52-.45,1.16-.8,1.92-1.03.76-.24,1.6-.46,2.53-.68.93-.21,1.77-.59,2.53-1.14.76-.55,1.4-1.35,1.92-2.42.52-1.07.78-2.6.78-4.6l-.14-19.96ZM414.36,244.25c1.9,0,3.8-.33,5.7-1,1.9-.67,3.59-1.4,5.06-2.21v-52.68c-1.33-.9-2.79-1.66-4.38-2.28-1.59-.62-3.29-.93-5.1-.93-2.19,0-4.04.5-5.56,1.5-1.52,1-2.76,2.67-3.71,5.03-.95,2.35-1.64,5.51-2.07,9.48-.43,3.97-.64,8.9-.64,14.79s.06,10.24.18,13.9c.12,3.66.51,6.56,1.18,8.7.67,2.14,1.72,3.62,3.17,4.46,1.45.83,3.5,1.25,6.17,1.25Z" fill="#fff"/>
  </g>
  <g id="Donjon">
    <path d="M488.07,25.07c-1.07.16-1.12.63-1.17.72-1.19,3.53-1.64,4.13-2.83,7.66h-.34v127.66h7.83V25.85c-.46-.88-2.58-.92-3.49-.78Z" fill="#fff"/>
    <path d="M433.68,33.45v127.66h48.77V33.45h-48.77ZM458.96,56.95h-1.79v-4.84h1.79v4.84ZM476.75,79.75h-5.28v-10.38h0s0,0,0,0c0-.99,1.18-3.06,2.64-3.06s2.63,2.07,2.63,3.06c0,0,0,0,0,0h0v10.38Z" fill="#fff"/>
    <g clip-path="url(#clippath)">
      <g>
        <rect x="436.36" y="35.88" width=".85" height="1.66"/>
        <rect x="439.38" y="35.88" width=".85" height="1.66"/>
        <rect x="442.39" y="35.88" width=".85" height="1.66"/>
        <rect x="445.41" y="35.88" width=".85" height="1.66"/>
        <rect x="448.42" y="35.88" width=".85" height="1.66"/>
        <rect x="451.44" y="35.88" width=".85" height="1.66"/>
        <rect x="454.46" y="35.88" width=".85" height="1.66"/>
        <rect x="457.47" y="35.88" width=".85" height="1.66"/>
        <rect x="460.49" y="35.88" width=".85" height="1.66"/>
        <rect x="463.5" y="35.88" width=".85" height="1.66"/>
        <rect x="466.52" y="35.88" width=".85" height="1.66"/>
        <rect x="469.53" y="35.88" width=".85" height="1.66"/>
        <rect x="472.55" y="35.88" width=".85" height="1.66"/>
        <rect x="475.56" y="35.88" width=".85" height="1.66"/>
        <rect x="478.58" y="35.88" width=".85" height="1.66"/>
      </g>
    </g>
  </g>
  <g id="Clocher">
    <path d="M424.05,27.19h-75.32v55.47h75.32V27.19ZM356.42,78.99l-4.99-.85v-32.37c0-.92,1.83-2.52,2.5-2.52s2.49,1.6,2.49,2.52v33.22ZM378.56,78.91h-11.91v-31.33c0-1.22,1.36-4.33,5.95-4.33,3.92,0,5.96,3.11,5.96,4.33v31.33ZM406.14,78.91h-11.92v-31.33c0-1.22,1.36-4.33,5.96-4.33,3.91,0,5.96,3.11,5.96,4.33v31.33ZM416.42,79v-33.65c0-.92,1.82-2.52,2.49-2.52s2.5,1.6,2.5,2.52v32.46l-4.99,1.19Z" fill="#fff"/>
    <polygon points="425 26.34 427.29 25.56 386.39 9.49 345.49 25.56 347.79 26.34 425 26.34" fill="#fff"/>
    <path d="M348.73,83.51v77.6h75.32v-77.6h-75.32ZM356.39,131.68l-4.99-.85v-32.37c0-.92,1.83-2.52,2.5-2.52s2.49,1.6,2.49,2.52v33.22ZM378.53,131.6h-11.91v-31.33c0-1.22,1.36-4.33,5.95-4.33,3.92,0,5.96,3.11,5.96,4.33v31.33ZM406.11,131.6h-11.92v-31.33c0-1.22,1.36-4.33,5.96-4.33,3.91,0,5.96,3.11,5.96,4.33v31.33ZM421.38,130.49l-4.99,1.19v-33.65c0-.92,1.82-2.52,2.49-2.52s2.5,1.6,2.5,2.52v32.46Z" fill="#fff"/>
    <line x1="386.39" y1="10.58" x2="386.39" y2="1.51" fill="#fff" stroke="#fff" stroke-miterlimit="10" stroke-width=".75"/>
  </g>
</svg>