<?xml version="1.0" encoding="UTF-8"?>
<svg id="visit-illus" xmlns="http://www.w3.org/2000/svg" viewBox="0 0 1652.74 842.55">
  <g id="support">
    <path d="M303.03,732.31c25.86-87.79,13.87-508.98,13.36-526.27h44.9c-.31,17.05-7.48,431.31,13.97,526.27h-72.23Z" fill="#fff"/>
    <path d="M360.78,206.54c-.2,11.3-1.97,114.25-1.27,226.53.68,108.46,3.85,247.86,15.12,298.74h-70.94c13.56-47.21,16.45-186.67,16.48-295.88.03-113.2-2.93-217.93-3.26-229.4h43.87M361.8,205.54h-45.92s13.29,438.63-13.52,527.27h73.53c-22.21-96.3-14.09-527.27-14.09-527.27h0Z"/>
  </g>
  <g id="topPane">
    <g id="topPane-2" data-name="topPane">
      <path d="M253.98,123h169.73c9.91,0,17.96,8.05,17.96,17.96v54.43c0,9.91-8.05,17.96-17.96,17.96h-169.73c-9.91,0-17.96-8.05-17.96-17.96v-54.43c0-9.91,8.05-17.96,17.96-17.96Z" fill="#fff"/>
      <path d="M423.71,123.5c9.62,0,17.46,7.83,17.46,17.46v54.43c0,9.62-7.83,17.46-17.46,17.46h-169.73c-9.62,0-17.46-7.83-17.46-17.46v-54.43c0-9.62,7.83-17.46,17.46-17.46h169.73M423.71,122.5h-169.73c-10.19,0-18.46,8.26-18.46,18.46v54.43c0,10.19,8.26,18.46,18.46,18.46h169.73c10.19,0,18.46-8.26,18.46-18.46v-54.43c0-10.19-8.26-18.46-18.46-18.46h0Z"/>
    </g>
    <g>
      <path d="M288.17,167.5v10.07c0,.73.13,1.3.4,1.7.27.41.6.71,1.01.92.4.21.84.36,1.31.44.47.08.91.17,1.31.27.4.1.74.23,1.01.4.27.17.4.45.4.84,0,1.01-.31,1.87-.93,2.6-.62.73-1.41,1.33-2.37,1.79-.96.46-2.05.8-3.25,1.02-1.2.22-2.37.33-3.51.33-1.35,0-2.65-.11-3.92-.33-1.27-.22-2.39-.56-3.36-1.02-.98-.46-1.76-1.06-2.35-1.79-.59-.73-.89-1.6-.89-2.6,0-.39.13-.67.4-.84.27-.17.6-.3.99-.39.39-.09.82-.17,1.28-.25.46-.08.89-.22,1.28-.43.39-.2.72-.5.99-.89.27-.39.4-.95.4-1.68v-18.34c0-.71-.13-1.27-.4-1.67s-.6-.7-.99-.9c-.39-.2-.82-.34-1.28-.43-.46-.08-.89-.17-1.28-.26-.39-.09-.72-.22-.99-.39-.27-.17-.4-.45-.4-.84,0-1,.32-1.87.98-2.59.65-.72,1.54-1.31,2.67-1.78,1.13-.46,2.46-.8,3.97-1.02s3.14-.33,4.89-.33c1.66,0,3.06.11,4.19.34,1.13.23,2.15.59,3.04,1.08.9.49,1.74,1.14,2.54,1.93.8.79,1.68,1.75,2.64,2.87l9.01,10.56,8.14-10.02c.74-.92,1.53-1.8,2.37-2.62.84-.82,1.78-1.54,2.81-2.15,1.03-.62,2.19-1.1,3.46-1.46,1.28-.36,2.74-.54,4.37-.54,2.74,0,5.09.11,7.06.33s3.59.56,4.86,1.02c1.27.46,2.2,1.05,2.81,1.78.61.72.91,1.59.91,2.59,0,.39-.13.67-.4.84-.27.17-.61.3-1.01.39-.4.09-.84.17-1.31.26-.47.08-.91.22-1.31.43-.4.2-.74.5-1.01.9s-.4.95-.4,1.67v18.25c0,.73.13,1.3.4,1.7s.61.71,1.01.92c.4.21.84.36,1.31.44.47.08.91.17,1.31.27.4.1.74.23,1.01.4.27.17.4.45.4.84,0,2.03-1.45,3.49-4.34,4.39-2.89.9-7.07,1.35-12.54,1.35-2.65,0-4.99-.11-7.05-.33s-3.78-.56-5.18-1.02c-1.4-.46-2.47-1.06-3.2-1.79-.73-.73-1.09-1.6-1.09-2.6,0-.39.13-.67.4-.84.27-.17.6-.3.99-.39.39-.09.82-.17,1.28-.25s.89-.22,1.28-.43c.39-.2.72-.5.99-.89.27-.39.4-.95.4-1.68v-10.12l-12.04,14.6c-.27.37-.7.56-1.28.56-.52,0-.96-.19-1.35-.56l-12.88-14.64Z"/>
      <path d="M377.06,185.35c-.61.39-1.33.77-2.17,1.14s-1.82.71-2.93,1c-1.11.29-2.36.53-3.75.72-1.39.19-2.94.28-4.64.28-2.27,0-4.27-.23-6-.68-1.74-.45-3.24-1.07-4.51-1.86-1.27-.79-2.33-1.71-3.18-2.76-.85-1.05-1.54-2.18-2.05-3.38-.52-1.2-.88-2.44-1.09-3.72-.21-1.28-.32-2.55-.32-3.79s.11-2.58.34-3.89c.22-1.31.6-2.59,1.13-3.82s1.23-2.39,2.1-3.48c.87-1.09,1.96-2.03,3.25-2.83,1.29-.8,2.8-1.44,4.54-1.91,1.74-.47,3.74-.71,6-.71,1.82,0,3.45.11,4.91.33,1.46.22,2.76.5,3.92.84s2.16.72,3.01,1.14,1.57.83,2.15,1.22c.25-.54.61-.98,1.08-1.34.47-.36,1.09-.64,1.87-.86.77-.22,1.73-.38,2.86-.47,1.13-.1,2.48-.15,4.05-.15,2.4,0,4.53.1,6.39.29,1.86.19,3.43.51,4.71.94,1.28.43,2.25.97,2.91,1.63.66.66.99,1.45.99,2.37,0,.36-.12.61-.35.77-.24.15-.54.27-.91.35-.37.08-.76.15-1.18.22-.42.06-.81.19-1.18.38s-.67.46-.91.81c-.24.36-.35.86-.35,1.51v26.64c0,.67.12,1.17.35,1.52s.54.62.91.8.76.31,1.18.38c.41.06.81.14,1.18.22.37.08.67.2.91.35s.35.41.35.77c0,.92-.33,1.71-.99,2.37-.66.66-1.63,1.2-2.91,1.63-1.28.43-2.85.74-4.71.94-1.86.19-3.99.29-6.39.29-5,0-8.82-.41-11.47-1.23-2.65-.82-3.97-2.15-3.97-4,0-.36.12-.61.37-.77.25-.15.55-.27.91-.35.36-.08.76-.16,1.19-.23.44-.07.83-.2,1.19-.39.36-.19.66-.46.91-.83.25-.37.37-.89.37-1.57l-.07-6.81ZM371.98,182.05c.9,0,1.79-.11,2.69-.34.9-.23,1.69-.48,2.39-.75v-17.98c-.63-.31-1.32-.57-2.07-.78-.75-.21-1.55-.32-2.4-.32-1.03,0-1.91.17-2.62.51-.72.34-1.3.91-1.75,1.71-.45.8-.77,1.88-.98,3.24-.2,1.35-.3,3.04-.3,5.05s.03,3.5.08,4.74c.06,1.25.24,2.24.56,2.97.31.73.81,1.24,1.5,1.52.68.28,1.65.42,2.91.42Z"/>
    </g>
  </g>
  <g id="paneLeft">
    <path id="directRight" d="M484.36,308.07l-290.5,22c-7.53.57-14.24-3.88-15.13-10.03l-4.82-33.28c-.84-5.83,4.34-11.09,11.48-11.63l291.11-22.05c9.66-.73,19.34.94,27.8,4.83,11.59,5.31,27.84,13.11,36.27,18.7,0,0-15.88,13.01-34.11,24.44-6.4,4.01-14.08,6.41-22.11,7.02Z" fill="#fff" stroke="#000" stroke-miterlimit="10"/>
  </g>
  <g>
    <path d="M493.67,748.18c2,.24,3.99.47,5.96.7" fill="none" stroke="#000" stroke-miterlimit="10" stroke-width="3"/>
    <path d="M511.52,750.25c180.79,20.66,237.98,17.82,247.18,8.06,13.24-14.05-81.39-33.37-91.91-73.77-14.57-55.92,139.89-122.26,186.89-111.37,42.82,9.92,30.37,91.77-35.23,104.86-80.72,16.1-264.9-67.29-235.91-103.42,43.21-53.86,584.61-33.19,706.21,3.62,6.93,2.1,29.35,9.35,49.02,5.79,37.76-6.84,69.59-79.65,33.7-84.61-166.03-22.98-226.12-26.04-170.04-65.87,56.09-39.83,149.53,27.57,204.68-12.26,55.15-39.83-59.74-44.43-82.72-70.47-22.98-26.04-58.21-55.15,42.89-32.17,50.85,11.56,75.78,15.75,88.01,17.07" fill="none" stroke="#000" stroke-dasharray="11.96 11.96" stroke-miterlimit="10" stroke-width="3"/>
    <path d="M1460.24,336.18c6.01.26,5.8-.7,5.8-.7" fill="none" stroke="#000" stroke-miterlimit="10" stroke-width="3"/>
  </g>
  <path d="M1480.5,222.92c-4.59-2.24-9.25-3.6-13.78-3.6-4.1,0-8.36,1.1-12.63,2.95-27.59,11.95-35.06,41.95-16.93,65.94l26.61,35.19c1.35,1.78,4.04,1.76,5.35-.05l26.8-36.9c16.31-22.46,9.53-51.36-15.42-63.53ZM1466.03,274.98c-10.6,0-19.19-8.59-19.19-19.19s8.59-19.19,19.19-19.19,19.19,8.59,19.19,19.19-8.59,19.19-19.19,19.19Z" fill="#fff" stroke="#000" stroke-miterlimit="10"/>
  <g>
    <path d="M208.53,295.99c.01.13-.27.59-.84,1.37-.57.78-.89,1.42-.96,1.92-.07.5.11,2.86.53,7.08s.72,6.53.88,6.96.45.7.85.82c.4.12,1.08.13,2.02.04.94-.09,1.75-.35,2.42-.76.67-.41,1.37-1.09,2.1-2.05.73-.95,1.39-1.46,1.97-1.52.45-.04.7.21.76.76l.04.4c.08.77.04,1.64-.12,2.6-.16.96-.3,1.52-.43,1.67-.29.33-1.06.56-2.31.68l-8.43.85c-2.75.28-4.28.4-4.57.38-.51-.04-.79-.29-.84-.76-.02-.25.21-.67.71-1.27s.81-1.35.93-2.24c.05-.36-.14-2.66-.57-6.91-.43-4.25-.72-6.57-.89-6.97-.17-.4-.61-.77-1.33-1.13-.72-.35-1.11-.79-1.16-1.31-.04-.42.96-.73,3-.94l4.16-.42c.82-.08,1.36-.08,1.63.01.27.09.42.33.46.71Z"/>
    <path d="M224.36,309.2c.1,1.03.68,1.87,1.74,2.52.79.49,1.75.68,2.88.57.51-.05,1.26-.27,2.24-.66.98-.39,1.55-.59,1.71-.61.47-.05.73.18.78.68.06.6-.5,1.26-1.69,2-1.19.74-2.45,1.17-3.79,1.31l-.69.07s-.05,0-.08,0c-.85.08-1.73,0-2.64-.25-1.8-.48-3.15-1.51-4.05-3.08-.62-1.08-.97-2.12-1.08-3.14l-.07-.71c-.1-1.04-.02-2.06.25-3.06.51-1.89,1.59-3.32,3.26-4.29,1-.58,2.07-.92,3.22-1.04l.36-.04c1.7-.17,3.19.2,4.47,1.12.67.49,1.21,1.11,1.62,1.86.41.75.65,1.52.73,2.33.08.81-.27,1.38-1.05,1.71-1.09.47-3.17.86-6.22,1.17-.82.08-1.35.24-1.6.46-.25.23-.35.58-.3,1.06ZM226.68,301.56l-.46.05c-.66.07-1.26.47-1.79,1.2-.53.73-.75,1.57-.66,2.5l.02.25c.04.38.27.55.7.5l.16.02,1.11-.11.08-.02,2.6-.42c.15-.05.26-.07.31-.08.53-.05.77-.35.72-.9l-.05-.51c-.07-.69-.38-1.29-.94-1.8-.56-.51-1.16-.74-1.81-.67Z"/>
    <path d="M261.76,293.71c.1,1.04-.15,1.59-.77,1.65-.27.03-.96-.31-2.07-1-1.11-.7-2.01-1.17-2.73-1.42-.71-.24-1.51-.32-2.39-.23-.02,0-.04,0-.05,0-.85.08-1.64.39-2.37.91-2.05,1.46-2.87,4.24-2.46,8.33.12,1.17.42,2.29.91,3.36,1.43,3.16,3.69,4.59,6.8,4.28,0,0,.02,0,.03,0,1.42-.14,2.84-.82,4.27-2.01.92-.77,1.45-1.16,1.59-1.17.51-.05.79.16.84.63l.04.38c.02.24-.17.74-.59,1.5-.41.77-1.01,1.38-1.79,1.83-1.36.79-3,1.28-4.92,1.47l-.53.05c-1.54.16-2.98.02-4.32-.41-2.67-.85-4.64-2.5-5.89-4.96-.67-1.31-1.07-2.61-1.2-3.91l-.11-1.08c-.13-1.28,0-2.62.37-4,.78-2.87,2.4-4.97,4.85-6.32,1.29-.71,2.6-1.13,3.92-1.26l.52-.05c3.31-.33,5.52-.25,6.65.26.74.33,1.2,1.38,1.38,3.16Z"/>
    <path d="M284.15,308.05c.05.48-.27.83-.96,1.05-.69.22-1.68.39-2.97.52-1.3.13-2.15.13-2.55,0-.4-.12-.62-.38-.66-.77-.02-.16.09-.51.31-1.04.22-.53.37-.97.44-1.33.07-.35,0-1.6-.22-3.75-.22-2.14-.54-3.58-.99-4.29-.44-.72-1.17-1.03-2.19-.92-1.02.1-1.77.52-2.24,1.24-.47.73-.62,1.98-.44,3.75.06.58.22,1.48.49,2.69.27,1.21.57,2.11.91,2.72.34.61.51.94.51,1.01.05.46-.21.78-.76.96-.81.26-2.05.47-3.72.64-1.67.17-2.53,0-2.58-.5-.04-.36.16-.9.57-1.61.42-.71.64-1.32.66-1.82.02-.5-.2-2.97-.64-7.4-.45-4.43-.77-6.92-.96-7.45-.2-.53-.46-.92-.81-1.16-.81-.58-1.22-.91-1.22-1-.04-.42.15-.75.58-.98.92-.5,2.18-.83,3.77-.99.76-.08,1.28.15,1.56.67.17.32.37,1.63.6,3.93.23,2.29.38,3.51.43,3.65.14.35.37.51.7.47.14-.01.42-.15.86-.4,1.22-.7,2.35-1.11,3.4-1.21,1.89-.19,3.31.41,4.24,1.8.67,1,1.13,2.78,1.39,5.33.26,2.56.47,4,.66,4.32.18.32.53.68,1.04,1.08.51.39.78.65.79.78Z"/>
    <path d="M294.34,297.64c-.16-1.63-.94-2.38-2.33-2.24-.74.08-1.38.57-1.92,1.47-.54.9-1.31,1.41-2.31,1.51-.49.05-.89-.06-1.2-.32-.31-.26-.49-.58-.53-.97-.04-.39.05-.78.26-1.16s.66-.79,1.36-1.22c1.37-.85,2.94-1.37,4.7-1.55l.41-.04c2.21-.21,3.84.29,4.89,1.51.48.57.81,1.23.97,1.97.17.74.36,2.17.58,4.3s.42,3.35.61,3.67c.2.32.57.57,1.13.73.56.16.85.44.89.83.04.39-.12.7-.48.94-.8.53-1.7.84-2.69.94-.99.1-1.7.02-2.12-.25-.14-.09-.32-.25-.55-.47-.23-.22-.42-.33-.55-.32-.12.01-.39.16-.78.45-1.21.91-2.35,1.42-3.43,1.54l-.39.04c-1.35.14-2.46-.12-3.33-.75-.87-.64-1.38-1.61-1.51-2.91-.27-2.67,1.79-4.54,6.17-5.61.71-.17,1.27-.38,1.67-.6s.57-.71.49-1.46ZM288.44,291.74l-.25.03c-.64.06-.98-.11-1.02-.52-.02-.18.05-.4.21-.63.16-.24.31-.5.48-.77l.87-1.41c.1-.16.18-.29.24-.41l.93-1.48c.4-.47.92-.75,1.58-.81h.14s.14-.01.14-.01c.63-.06,1.19.14,1.68.61,2.28,2.16,3.44,3.45,3.48,3.88v.11c.05.37-.28.59-.98.66-.7.07-1.43-.21-2.22-.83-1.17-.94-1.82-1.4-1.94-1.39-.12.01-.31.19-.56.52s-.57.7-.95,1.11c-.78.87-1.39,1.32-1.84,1.37ZM294.89,301.92c-.06-.56-.29-.83-.7-.79h-.08s-.08.03-.08.03l-.17.02c-.43.12-.71.18-.84.19-.88.09-1.56.43-2.05,1.02-.49.59-.71,1.1-.67,1.54v.42s.02.28.02.28c.05.5.26.93.64,1.29.38.36.86.5,1.43.45l.25-.03c.67-.07,1.24-.32,1.72-.77.48-.45.69-.92.64-1.42.02-.16.02-.26.02-.31v-.5s-.14-1.42-.14-1.42Z"/>
    <path d="M302.99,294.25c-.49-.26-.75-.54-.78-.83-.03-.29.22-.61.74-.95.53-.34.85-.61.97-.8.12-.19.29-.69.51-1.51.22-.82.47-1.46.77-1.92s.71-.72,1.25-.77.96.12,1.24.53c.12.18.31.63.55,1.34.25.71.5,1.16.76,1.34.26.18.74.36,1.45.55.71.18,1.07.28,1.09.29.38.24.59.55.63.93.03.33-.43.67-1.39,1.03-.96.36-1.56.81-1.78,1.36s-.23,1.88-.02,3.97c.21,2.09.51,3.44.9,4.03.39.59.97.85,1.72.78l.56-.1c.25-.04.52-.08.81-.11.64-.06.98.14,1.03.61.06.61-.28,1.13-1.02,1.56-1.06.63-2.2,1-3.44,1.12-.58.06-1.17-.04-1.77-.29-.61-.25-1.08-.58-1.43-.99-.68-.8-1.11-2-1.27-3.61l-.05-.32c-.03-.22-.06-.47-.09-.75l-.09-.91c-.18-1.78-.48-3.28-.9-4.5-.15-.45-.47-.81-.96-1.07Z"/>
    <path d="M320.26,299.56c.1,1.03.68,1.87,1.74,2.52.79.49,1.75.68,2.88.57.51-.05,1.26-.27,2.24-.66.98-.39,1.55-.59,1.71-.61.47-.05.73.18.78.68.06.6-.51,1.26-1.69,2-1.19.74-2.45,1.17-3.79,1.31l-.69.07s-.05,0-.08,0c-.85.08-1.73,0-2.64-.25-1.8-.48-3.15-1.51-4.05-3.08-.62-1.08-.97-2.12-1.08-3.14l-.07-.71c-.1-1.04-.02-2.06.25-3.06.51-1.89,1.59-3.32,3.26-4.29,1-.58,2.07-.92,3.22-1.04l.36-.04c1.7-.17,3.2.2,4.47,1.12.67.49,1.21,1.11,1.62,1.86.41.75.65,1.52.73,2.33.08.81-.27,1.38-1.05,1.71-1.09.47-3.17.86-6.22,1.17-.82.08-1.35.24-1.6.46-.25.23-.35.58-.3,1.06ZM322.58,291.92l-.46.05c-.66.07-1.26.47-1.79,1.2-.53.73-.75,1.57-.66,2.5l.02.25c.04.38.27.55.7.5h.16s1.11-.1,1.11-.1l.08-.02,2.6-.42c.15-.05.26-.07.31-.08.53-.05.77-.35.72-.9l-.05-.51c-.07-.69-.38-1.29-.94-1.8-.56-.51-1.16-.74-1.81-.67Z"/>
    <path d="M347.99,301.2l.02.23c.04.35-.32.71-1.08,1.09-.75.38-1.67.63-2.75.74-.66.07-1.26-.17-1.8-.71-.29-.3-.52-.45-.66-.43-.15,0-.39.15-.72.43-1.11.92-2.36,1.45-3.74,1.59-.01,0-.02,0-.03.02-1.36.14-2.48-.1-3.37-.7s-1.4-1.53-1.53-2.77c-.27-2.67,1.65-4.56,5.77-5.67.99-.25,1.58-.43,1.77-.54.58-.31.83-.89.74-1.74-.08-.85-.34-1.45-.77-1.78s-.91-.48-1.43-.42c-.83.08-1.53.59-2.11,1.53-.58.94-1.32,1.45-2.21,1.54-.52.05-.93-.05-1.23-.3-.29-.25-.46-.53-.49-.83-.09-.9.32-1.67,1.23-2.3,1.51-1.04,3.16-1.66,4.95-1.83l.82-.08c.9-.09,1.78,0,2.64.3.86.29,1.55.8,2.08,1.53.53.72.93,2.42,1.19,5.09.27,2.67.51,4.2.72,4.58.21.39.59.65,1.12.79s.82.36.85.65ZM341.13,296.96c-.05-.46-.22-.68-.51-.65l-.41.04c-.26.08-.45.12-.59.14-.95.1-1.72.45-2.32,1.06-.59.61-.86,1.26-.79,1.95l.04.35c.05.52.27.96.64,1.3s.8.5,1.28.45l.5-.05c.69-.07,1.26-.34,1.71-.81.45-.47.65-.91.61-1.31.02-.21.03-.34.02-.41v-.25s-.06-.66-.06-.66v-.25s-.08-.68-.08-.68c-.03-.1-.05-.18-.05-.23Z"/>
    <path d="M367.35,299.5c.08.83-1.07,1.37-3.47,1.61-.71.07-1.21.02-1.49-.15-.28-.17-.52-.4-.72-.71-.2-.31-.36-.46-.46-.44-.11.01-.42.21-.92.6-.5.39-1.04.74-1.61,1.06s-1.35.52-2.32.62c-.97.1-1.82-.02-2.53-.37s-1.3-.88-1.76-1.63c-.46-.74-.83-2.48-1.1-5.22-.28-2.74-.49-4.23-.63-4.48-.15-.25-.51-.46-1.09-.65-.58-.19-.89-.47-.92-.83-.05-.49.23-.85.84-1.08.95-.35,2.14-.6,3.59-.75.69-.07,1.17.18,1.44.74.27.57.54,2.19.81,4.87.27,2.68.53,4.36.78,5.04.34.94.92,1.46,1.76,1.57.21.03.43.03.65.01.38-.04.76-.15,1.14-.33.62-.29,1.08-.68,1.37-1.16.28-.48.33-1.64.15-3.49-.19-1.85-.41-3.14-.68-3.88s-.6-1.35-.99-1.83c-.4-.48-.61-.83-.63-1.04-.07-.72,1.24-1.21,3.94-1.49l.44-.04c.54-.05.92.01,1.14.2.21.19.37.72.45,1.58l.16,2.24.03.46.23,2.28c.23,2.26.43,3.65.61,4.17.18.52.53,1.05,1.04,1.59.51.54.77.85.78.93Z"/>
  </g>
  <g>
    <g id="paneRight">
      <path id="directLeft" d="M196.56,337.92l294.72,28.88c6.4.63,10.89,5.47,9.92,10.69l-6.08,32.44c-1.34,7.13-9.33,12.11-18.08,11.26l-292.92-28.7c-4.95-.48-9.51-2.45-12.85-5.47-10.92-9.88-19.18-16.06-28.99-26.64,0,0,23.65-12.54,34.97-18.69,5.68-3.09,12.55-4.41,19.32-3.75Z" fill="#fff" stroke="#000" stroke-miterlimit="10"/>
    </g>
    <g>
      <path d="M322.5,366.84c-.01.13-.38.52-1.09,1.17-.71.65-1.16,1.22-1.33,1.7-.17.48-.46,2.83-.88,7.04-.42,4.21-.59,6.55-.51,7s.3.78.67.98c.37.2,1.03.34,1.97.44.94.09,1.78,0,2.52-.26.74-.27,1.56-.8,2.46-1.59.9-.79,1.65-1.16,2.23-1.1.45.04.65.34.59.9l-.04.4c-.08.77-.29,1.61-.63,2.53-.34.92-.6,1.43-.76,1.55-.35.27-1.15.34-2.4.21l-8.43-.84c-2.75-.27-4.27-.45-4.56-.53-.49-.14-.72-.45-.67-.91.03-.25.34-.61.95-1.1.61-.49,1.06-1.16,1.36-2.01.12-.34.39-2.64.81-6.89.42-4.25.59-6.58.51-7.01-.08-.42-.45-.88-1.08-1.37-.64-.49-.93-.99-.88-1.52.04-.42,1.08-.53,3.12-.33l4.16.41c.82.08,1.35.19,1.59.34.24.14.35.41.31.79Z"/>
      <path d="M335.4,382.93c-.1,1.03.3,1.96,1.21,2.81.68.64,1.58,1.01,2.71,1.13.51.05,1.29-.02,2.33-.2,1.04-.19,1.64-.27,1.79-.26.47.05.68.32.63.82-.06.6-.74,1.14-2.05,1.62-1.31.49-2.64.66-3.98.53l-.69-.07s-.05,0-.08,0c-.85-.08-1.69-.34-2.54-.77-1.67-.83-2.79-2.1-3.36-3.82-.39-1.18-.53-2.28-.43-3.29l.07-.71c.1-1.04.39-2.02.85-2.95.87-1.75,2.22-2.94,4.05-3.56,1.09-.37,2.21-.5,3.37-.38l.36.04c1.71.17,3.09.83,4.16,1.98.56.62.97,1.33,1.22,2.14.25.81.34,1.62.26,2.43-.08.81-.54,1.3-1.37,1.47-1.17.25-3.28.22-6.33-.09-.82-.08-1.37-.04-1.66.14-.29.17-.46.5-.51.98ZM339.19,375.9l-.46-.04c-.66-.07-1.32.21-1.99.82-.67.61-1.05,1.39-1.14,2.32l-.03.25c-.04.38.16.59.59.63l.15.05,1.11.11h.08s2.64.1,2.64.1c.16-.01.27-.02.32-.01.53.05.83-.19.88-.74l.05-.51c.07-.69-.12-1.34-.57-1.95-.45-.61-.99-.95-1.64-1.02Z"/>
      <path d="M364.97,370.2l1.69.17c2.59.26,4.5.92,5.73,1.97,1.23,1.06,1.76,2.36,1.61,3.92-.09.89-.38,1.69-.87,2.4-.49.71-1.05,1.22-1.68,1.55-.63.33-.95.51-.95.57s.38.32,1.15.8c.77.48,1.37,1.02,1.8,1.63.67.97.96,1.98.86,3.02l-.04.4c-.3,3.06-2.36,4.81-6.18,5.25-1.02.12-2.43.08-4.24-.1l-.83-.08-.42-.06c-.28-.04-.56-.07-.83-.1l-.83-.11c-.27-.04-.55-.07-.83-.1l-2.02-.25c-1.14-.11-1.81-.2-2.02-.26-.53-.16-.78-.43-.74-.83.03-.29.42-.68,1.16-1.17.5-.33.86-.89,1.09-1.66.23-.78.54-3.11.93-7.01.39-3.9.54-6.14.46-6.73-.08-.59-.39-1.14-.93-1.65-.54-.51-.79-.94-.75-1.3.04-.35.27-.57.69-.65.42-.08,1.54-.03,3.34.15l1.64.1c1.09.07,1.77.11,2.03.14ZM362.34,387.8l-.03.63c-.06.61.47.96,1.59,1.08l.14.03.12.03.56.07.71.07c1.04.1,1.95-.13,2.74-.71.79-.57,1.24-1.42,1.35-2.52l.06-.59c.1-1.04-.18-1.96-.86-2.78-.68-.81-1.79-1.3-3.34-1.45l-.97-.1c-.79-.08-1.24-.03-1.34.14-.1.17-.25,1.34-.47,3.51l-.04.26-.04.38-.03.12-.03.26-.07.52v.12s0,.13,0,.13l-.03.26v.12c0,.09-.02.19-.02.28v.12ZM363.3,378.38l-.02.54c-.03.32.18.5.64.54l.72.07h.13s.85.05.85.05c.08,0,.17,0,.25,0,.8.08,1.57-.14,2.3-.67.73-.52,1.14-1.24,1.23-2.14l.05-.24.05-.49c.09-.93-.17-1.73-.78-2.39-.62-.66-1.6-1.06-2.95-1.2l-.61-.06c-.69-.07-1.11.05-1.26.37-.05.12-.17,1.02-.33,2.7l-.28,2.77v.12Z"/>
      <path d="M385.11,378.35l.79.08c.93.09,1.87.4,2.81.93,1.79,1.01,2.95,2.47,3.46,4.39.26.99.34,1.98.24,2.98l-.03.28c-.11,1.07-.43,2.09-.97,3.08-.54.98-1.22,1.78-2.03,2.38-1.69,1.22-3.53,1.73-5.54,1.53-.16-.02-.31-.04-.47-.06-1-.1-1.97-.4-2.9-.89-.93-.49-1.67-1.1-2.22-1.81-1.19-1.57-1.67-3.44-1.46-5.6l.03-.26.04-.26c.11-.95.38-1.88.83-2.78.87-1.72,2.27-2.91,4.19-3.58,1.08-.37,2.16-.5,3.22-.39ZM384.89,380.39l-.3-.03c-.9-.09-1.68.34-2.35,1.27-.67.94-1.07,2.1-1.21,3.49l-.09.86c-.16,1.56.04,2.91.59,4.06s1.29,1.76,2.21,1.85l.3.03c.81.08,1.55-.25,2.23-1,.68-.75,1.09-1.79,1.22-3.14l.06-.32.08-.65.02-.17v-.17s.03-.32.03-.32c0-.23,0-.4.02-.5.14-1.37-.08-2.56-.64-3.59-.56-1.03-1.29-1.59-2.18-1.68Z"/>
      <path d="M406.63,382.95c-.09.86-.21,1.43-.36,1.69s-.41.38-.78.34c-.59-.06-1.18-.54-1.77-1.43-.59-.9-1.4-1.4-2.43-1.5-.59-.06-1.07.04-1.44.31-.38.26-.58.58-.62.93-.06.62.19,1.16.76,1.63.27.22,1.17.74,2.69,1.55,1.52.81,2.59,1.6,3.2,2.36s.87,1.74.75,2.93c-.12,1.19-.74,2.18-1.86,2.96-1.12.78-2.5,1.09-4.12.93l-.83-.08c-2.03-.2-3.53-.59-4.5-1.16-.68-.4-.96-1.21-.83-2.45.12-1.23.42-1.82.89-1.78.6.06,1.29.61,2.08,1.65.79,1.04,1.7,1.62,2.74,1.72.63.06,1.17-.02,1.63-.23.46-.22.72-.61.77-1.17.06-.56-.2-1.09-.76-1.59-.3-.27-1.13-.77-2.5-1.52-1.37-.74-2.33-1.43-2.88-2.05-.83-.93-1.18-2.01-1.06-3.24s.76-2.19,1.9-2.89,2.43-.98,3.86-.84l.42.04c2.24.22,3.74.6,4.5,1.13.44.31.62.9.54,1.76Z"/>
      <path d="M419.16,397.8c.09-.86-.12-1.32-.61-1.37-.06,0-.28.04-.65.13-.37.09-.77.18-1.21.27-.44.09-1.03.09-1.78.02-.02,0-.04,0-.06,0-.74-.07-1.48-.32-2.22-.74-1.5-.83-2.5-2.24-3-4.22-.24-.92-.31-1.85-.21-2.81l.08-.82c.09-.89.36-1.79.82-2.69.89-1.74,2.22-2.92,3.98-3.55.99-.36,2.03-.48,3.13-.37l.77.08c.42.04.94.16,1.56.37.62.2,1.2.33,1.74.38.53.05.96.09,1.27.1h.75c.2,0,.49.01.87.05.83.08,1.17.82,1.03,2.22-.03.27-.18.81-.46,1.63-.28.82-.47,1.67-.55,2.55l-.06.4-.47,4.74c-.38,3.85-.54,6.12-.47,6.8s.23,1.19.48,1.5c.6.74.9,1.15.89,1.21l-.03.29c-.05.47-.85.63-2.41.48l-.8-.05-1.6-.13c-1.33-.13-2.22-.28-2.67-.43-.45-.15-.66-.4-.62-.72.03-.33.29-.68.79-1.04.49-.37.8-.66.94-.87.36-.57.63-1.7.8-3.4ZM413.54,388.7l-.04.35c-.16,1.59.04,2.9.6,3.93.56,1.03,1.35,1.6,2.38,1.7h.13c.97.09,1.73-.17,2.28-.79.37-.41.65-1.63.86-3.68l.17-1.68c.18-1.85.13-3.11-.15-3.78-.28-.67-.92-1.06-1.91-1.16l-.42-.04c-.98-.1-1.84.33-2.56,1.28-.72.95-1.17,2.24-1.33,3.85Z"/>
      <path d="M444.74,398.5c-.08.83-1.32,1.13-3.72.89-.71-.07-1.19-.22-1.43-.44-.24-.22-.43-.5-.57-.84s-.26-.52-.37-.53c-.11-.01-.45.12-1.01.4-.57.28-1.16.52-1.79.72-.63.2-1.43.25-2.4.15-.97-.1-1.78-.38-2.41-.86-.63-.48-1.1-1.12-1.41-1.94-.3-.82-.32-2.6-.05-5.34.27-2.74.36-4.25.27-4.51-.1-.27-.41-.55-.94-.86s-.78-.63-.74-.99c.05-.49.4-.79,1.04-.89,1-.16,2.22-.17,3.66-.02.69.07,1.11.41,1.26,1.01.15.61.09,2.25-.17,4.93-.27,2.68-.35,4.38-.24,5.09.14.99.62,1.62,1.41,1.88.2.07.42.12.64.14.38.04.77,0,1.18-.1.67-.16,1.19-.45,1.57-.86.37-.41.65-1.54.84-3.39.18-1.85.22-3.16.11-3.94-.11-.78-.32-1.44-.61-1.99-.29-.55-.43-.93-.41-1.15.07-.72,1.46-.94,4.16-.67l.44.04c.54.05.9.2,1.08.43.17.23.22.78.13,1.64l-.29,2.23-.06.46-.23,2.28c-.23,2.26-.3,3.66-.23,4.21.07.55.31,1.13.7,1.76.4.63.59.99.58,1.07Z"/>
      <path d="M451.93,394.53c-.1,1.03.3,1.96,1.21,2.81.68.64,1.58,1.01,2.71,1.13.51.05,1.29-.02,2.33-.2,1.04-.19,1.64-.27,1.79-.26.47.05.68.32.63.82-.06.6-.74,1.14-2.06,1.62-1.31.49-2.64.66-3.98.53l-.69-.07s-.05,0-.08,0c-.85-.08-1.69-.34-2.54-.77-1.67-.83-2.79-2.1-3.36-3.82-.39-1.18-.53-2.28-.43-3.29l.07-.71c.1-1.04.39-2.02.85-2.95.87-1.75,2.22-2.94,4.05-3.56,1.09-.37,2.21-.5,3.37-.38l.36.04c1.71.17,3.09.83,4.16,1.98.56.62.97,1.33,1.22,2.14s.34,1.62.26,2.43c-.08.81-.54,1.3-1.37,1.47-1.17.25-3.28.22-6.33-.09-.82-.08-1.37-.04-1.66.14-.29.17-.46.5-.51.98ZM455.72,387.51l-.46-.04c-.66-.07-1.32.21-1.99.82-.67.61-1.05,1.39-1.14,2.32l-.02.25c-.04.38.16.59.59.63l.15.05,1.11.11h.08s2.64.1,2.64.1c.16-.01.27-.02.32-.01.53.05.83-.19.88-.74l.05-.51c.07-.69-.12-1.34-.57-1.95-.45-.61-.99-.95-1.64-1.02Z"/>
      <path d="M465.08,388.8c-.43-.35-.63-.68-.6-.97.03-.29.33-.56.92-.79.58-.23.95-.43,1.1-.59.15-.16.42-.62.79-1.38s.75-1.34,1.13-1.73c.38-.39.84-.56,1.38-.51.54.05.91.31,1.11.76.08.21.18.68.28,1.43.1.75.26,1.23.48,1.46s.66.5,1.31.82c.66.32.99.49,1.01.5.33.31.47.66.44,1.04-.03.33-.56.57-1.57.73-1.01.16-1.69.48-2.02.98-.33.5-.6,1.79-.81,3.89-.21,2.09-.18,3.47.09,4.13.27.66.78,1.03,1.53,1.1h.57c.25.01.53.03.82.06.64.06.93.33.89.8-.06.61-.5,1.05-1.31,1.33-1.16.4-2.36.54-3.59.42-.58-.06-1.14-.27-1.68-.63s-.95-.78-1.21-1.26c-.51-.92-.69-2.18-.53-3.78l.02-.33c.01-.23.03-.48.06-.76l.09-.91c.18-1.78.18-3.3.01-4.59-.06-.47-.3-.89-.73-1.24Z"/>
    </g>
  </g>
  <g>
    <g id="paneRight-2" data-name="paneRight">
      <path id="directLeft-2" data-name="directLeft" d="M116.71,441.79l296.13-.75c6.43-.02,11.39,4.36,10.94,9.65l.03,37.65c-.62,7.23-10.9,8.22-19.69,8.24l-294.32.75c-4.97.01-9.7-1.48-13.34-4.16-11.85-8.74-20.69-14.06-31.52-23.61,0,0,22.28-14.84,32.92-22.1,5.34-3.65,12.04-5.64,18.85-5.66Z" fill="#fff" stroke="#000" stroke-miterlimit="10"/>
    </g>
    <g>
      <path d="M325.08,470.28c-1.33,0-2.13.21-2.4.62-.18.29-.27,1.12-.27,2.51,0,1.38.09,2.36.26,2.93.17.57.48,1.13.93,1.68.45.55.67.98.67,1.29,0,.31-.41.54-1.22.68-.81.14-2.7.21-5.65.21-.61,0-1.01-.08-1.21-.24-.2-.16-.29-.49-.29-1,0-.19.27-.49.8-.92s.86-.86.98-1.31c.13-.44.19-2.89.18-7.33,0-4.44-.08-6.89-.22-7.33-.14-.45-.58-.9-1.3-1.34-.49-.31-.74-.77-.74-1.38l.36-.33c.43-.23,2.36-.34,5.8-.35,1.6,0,2.4.26,2.4.79,0,.25-.19.76-.57,1.53-.38.77-.63,1.39-.75,1.86-.12.47-.18,1.5-.18,3.1,0,.8.2,1.36.58,1.65.23.18,1.46.26,3.68.26,2.22,0,3.5-.11,3.84-.33.34-.22.5-.94.5-2.17,0-1.23-.08-2.12-.23-2.68-.15-.55-.44-1.13-.86-1.74-.42-.61-.63-.98-.63-1.11,0-.39.37-.68,1.1-.85.4-.09,1.48-.14,3.23-.14,1.76,0,2.86.05,3.31.15.59.13.88.52.88,1.16,0,.22-.28.58-.83,1.08-.55.5-.87.85-.95,1.06-.19.49-.28,2.45-.28,5.9l-.04,3.76-.02.74v1.5c0,1.89.12,3.05.37,3.48.09.18.42.42.97.72.55.3.83.72.83,1.26,0,.45-.75.68-2.25.68l-.73-.02h-1.5c-2.09-.01-3.32-.18-3.67-.52l-.19-.34c0-.37.22-.92.66-1.66s.73-1.39.87-1.97c.14-.58.21-1.5.21-2.76,0-1.26-.19-2.04-.58-2.34-.38-.3-2.35-.45-5.89-.45Z"/>
      <path d="M354.22,478.94c-1.38,1.25-3.23,1.88-5.57,1.88s-4.2-.71-5.58-2.13c-1.39-1.42-2.08-3.31-2.09-5.66l.02-.28v-.08c0-1.06.2-2.08.61-3.05.81-1.92,2.19-3.24,4.14-3.96.91-.34,1.92-.51,3.03-.51l.27.02c2.29,0,4.15.7,5.58,2.1,1.43,1.4,2.15,3.29,2.17,5.68l-.02.28c0,2.27-.85,4.18-2.56,5.73ZM348.63,457.96h.14l.14.02c.56,0,.99.16,1.29.49.31.33.91,1.16,1.82,2.49.91,1.33,1.36,2.05,1.36,2.15,0,.49-.37.73-1.12.73l-.13-.02h-.13c-.35,0-1-.4-1.96-1.19-.96-.79-1.48-1.19-1.56-1.19s-.65.49-1.73,1.46c-.68.62-1.36.93-2.03.93-.67,0-1.01-.23-1.01-.68v-.11c0-.11.52-.87,1.56-2.26s1.58-2.11,1.62-2.15c.45-.44,1.02-.67,1.72-.67ZM348.88,467.04h-.47c-.9,0-1.67.46-2.29,1.37-.62.91-.93,2.06-.93,3.43v.33l.02.17v.33c.02.21.03.37.03.48,0,1.2.33,2.3.99,3.29.66,1,1.48,1.5,2.47,1.5h.47c.87,0,1.6-.44,2.17-1.33.58-.88.87-2.12.86-3.71v-.46c0-1.41-.34-2.67-1.01-3.76-.67-1.09-1.44-1.64-2.33-1.64Z"/>
      <path d="M359.57,467.34c-.46-.31-.69-.61-.7-.9,0-.29.28-.59.83-.88.56-.29.9-.52,1.04-.7.14-.18.35-.66.65-1.46.3-.79.62-1.41.95-1.83.34-.43.78-.64,1.32-.64.55,0,.94.21,1.18.65.1.2.25.66.42,1.39.17.73.38,1.2.62,1.41.24.21.7.44,1.39.69.68.25,1.04.38,1.06.39.36.28.54.61.54.99,0,.33-.5.62-1.49.88-.99.26-1.63.65-1.91,1.18-.28.53-.42,1.84-.41,3.95s.17,3.47.5,4.1c.33.63.88.94,1.63.94l.57-.05c.25-.02.53-.03.82-.03.64,0,.96.24.96.71,0,.61-.39,1.09-1.17,1.46-1.11.52-2.29.78-3.53.78-.58,0-1.16-.15-1.74-.46-.58-.31-1.02-.69-1.33-1.13-.6-.87-.9-2.1-.9-3.71l-.02-.33c-.01-.23-.02-.48-.02-.76v-.91c0-1.79-.15-3.31-.45-4.56-.11-.46-.39-.85-.85-1.16Z"/>
      <path d="M376.23,474.34c0,1.03.5,1.92,1.48,2.68.74.57,1.67.85,2.81.85.52,0,1.28-.15,2.29-.44,1.01-.29,1.6-.43,1.76-.43.47,0,.71.25.71.76,0,.6-.63,1.21-1.88,1.82-1.26.61-2.56.92-3.9.92h-.69s-.05,0-.08,0c-.85,0-1.72-.17-2.6-.51-1.75-.66-2.99-1.81-3.73-3.46-.51-1.13-.76-2.21-.76-3.23v-.71c0-1.04.18-2.05.55-3.02.69-1.83,1.92-3.14,3.67-3.95,1.05-.48,2.15-.71,3.31-.71h.36c1.71,0,3.16.52,4.34,1.56.62.56,1.1,1.23,1.43,2.01.33.78.5,1.58.5,2.39,0,.81-.4,1.34-1.21,1.6-1.13.36-3.24.54-6.31.55-.82,0-1.37.1-1.64.3-.27.2-.41.54-.41,1.03ZM379.3,466.97h-.46c-.66,0-1.3.34-1.9,1.02-.6.68-.91,1.48-.9,2.42v.25c0,.38.22.57.65.57l.16.03h1.12s.08-.02.08-.02l2.63-.16c.16-.03.26-.05.32-.05.54,0,.8-.27.8-.82v-.51c0-.69-.25-1.32-.76-1.89-.5-.57-1.08-.85-1.74-.85Z"/>
      <path d="M388.06,458.7c0-.37.27-.64.82-.8,1.48-.45,2.9-.67,4.26-.67.8,0,1.24.34,1.33,1.02.02.17.03,2.93.04,8.29,0,5.36.1,8.53.29,9.51s.44,1.64.75,1.99c.8.89,1.2,1.35,1.2,1.39,0,.5-1.41.74-4.23.75h-.65c-1.68-.01-2.69-.05-3.02-.14-.33-.08-.5-.28-.5-.58,0-.3.26-.77.77-1.39.51-.62.84-1.29.98-1.98.14-.7.2-3.27.2-7.73,0-4.46-.08-6.93-.23-7.42-.15-.49-.52-.92-1.11-1.3-.59-.38-.89-.69-.89-.93Z"/>
    </g>
  </g>
  <path id="directRight-2" data-name="directRight" d="M546.05,561.93l-290.5,22c-7.53.57-14.24-3.88-15.13-10.03l-4.82-33.28c-.84-5.83,4.34-11.09,11.48-11.63l291.11-22.05c9.66-.73,19.34.94,27.8,4.83,11.59,5.31,27.84,13.11,36.27,18.7,0,0-15.88,13.01-34.11,24.44-6.4,4.01-14.08,6.41-22.11,7.02Z" fill="#fff" stroke="#000" stroke-miterlimit="10"/>
  <g>
    <path d="M268.78,544.82l1.69-.17c2.59-.26,4.6,0,6.01.79,1.41.79,2.19,1.97,2.35,3.53.09.89-.04,1.74-.38,2.53-.34.79-.79,1.41-1.34,1.85-.55.44-.83.69-.82.74,0,.05.43.24,1.28.56.85.32,1.54.73,2.08,1.24.85.82,1.33,1.75,1.44,2.79l.04.4c.31,3.06-1.37,5.18-5.02,6.37-.97.32-2.36.56-4.17.75l-.83.08-.42.03c-.28.02-.56.04-.83.07l-.83.05c-.27.02-.55.04-.83.07l-2.03.16c-1.14.11-1.82.16-2.03.14-.55-.05-.85-.27-.89-.67-.03-.29.27-.75.91-1.38.42-.43.67-1.04.74-1.85.07-.8-.09-3.16-.48-7.05s-.69-6.12-.89-6.68c-.2-.56-.61-1.04-1.24-1.43s-.96-.77-.99-1.12c-.04-.35.15-.61.55-.78s1.5-.34,3.3-.52l1.63-.23c1.08-.15,1.76-.24,2.02-.26ZM268.77,553.17l.08.54c.03.32.28.45.74.41l.72-.07.12-.03.84-.12c.08-.02.17-.03.25-.04.81-.08,1.51-.45,2.12-1.11.61-.66.87-1.44.78-2.34v-.25s-.04-.49-.04-.49c-.09-.93-.51-1.67-1.24-2.19-.74-.53-1.78-.72-3.13-.59l-.61.06c-.69.07-1.08.27-1.16.61-.03.13.04,1.03.21,2.72l.28,2.77.03.12ZM269.7,562.6l.09.63c.06.61.65.85,1.77.74h.14s.13,0,.13,0l.57-.04.71-.07c1.04-.1,1.89-.51,2.55-1.24.66-.72.94-1.63.83-2.74l-.06-.59c-.1-1.04-.57-1.89-1.4-2.55-.83-.66-2.01-.92-3.56-.76l-.97.1c-.79.08-1.22.21-1.28.4-.06.19.02,1.37.24,3.53v.26s.05.38.05.38v.13s.02.26.02.26l.04.52v.12s.04.12.04.12l.03.26.03.12c0,.09.02.19.03.28l.03.12Z"/>
    <path d="M290.14,548.81l.79-.08c.93-.09,1.91.03,2.94.36,1.96.63,3.38,1.84,4.26,3.62.45.92.73,1.88.83,2.87l.03.28c.11,1.07,0,2.14-.34,3.21-.34,1.07-.84,1.98-1.52,2.73-1.41,1.53-3.12,2.4-5.13,2.6-.16.02-.31.03-.47.03-1,.1-2.01,0-3.02-.29-1.01-.3-1.85-.75-2.54-1.34-1.47-1.3-2.32-3.04-2.54-5.2l-.03-.26v-.26c-.1-.96,0-1.92.25-2.89.51-1.86,1.64-3.3,3.4-4.34.99-.57,2.02-.92,3.08-1.02ZM290.33,550.86l-.3.03c-.9.09-1.58.66-2.05,1.71-.47,1.05-.63,2.27-.5,3.66l.09.86c.16,1.56.62,2.85,1.39,3.86.77,1.01,1.61,1.47,2.53,1.38l.3-.03c.8-.08,1.47-.56,1.99-1.42.52-.87.71-1.97.58-3.32v-.33s-.05-.65-.05-.65l-.02-.17-.03-.17-.03-.32c-.04-.22-.07-.39-.08-.49-.14-1.37-.58-2.5-1.34-3.4-.76-.9-1.58-1.3-2.47-1.21Z"/>
    <path d="M319.23,560.1c.08.83-1.07,1.37-3.47,1.61-.71.07-1.21.02-1.49-.15-.28-.17-.52-.41-.72-.71-.2-.31-.35-.45-.46-.44-.11.01-.42.21-.91.6-.5.39-1.04.74-1.61,1.06-.58.32-1.35.52-2.32.62s-1.82-.02-2.53-.37c-.72-.34-1.3-.88-1.76-1.63-.46-.74-.83-2.48-1.1-5.22-.28-2.74-.49-4.23-.63-4.48-.15-.25-.51-.46-1.09-.65s-.89-.46-.92-.82c-.05-.49.23-.85.84-1.08.95-.35,2.14-.6,3.59-.75.69-.07,1.17.18,1.44.74.27.56.54,2.18.81,4.87.27,2.68.53,4.36.78,5.04.34.94.92,1.46,1.76,1.57.21.03.43.03.65.01.38-.04.76-.15,1.14-.33.63-.29,1.08-.68,1.37-1.16.29-.48.33-1.64.15-3.49-.19-1.85-.41-3.14-.68-3.88-.26-.74-.59-1.35-.99-1.83-.4-.48-.61-.83-.63-1.04-.07-.72,1.24-1.21,3.94-1.49l.44-.04c.54-.05.92.01,1.14.2.21.19.37.72.45,1.58l.16,2.24.03.46.23,2.28c.23,2.26.43,3.65.61,4.17.18.52.53,1.05,1.04,1.59.51.54.78.85.78.93Z"/>
    <path d="M330.77,545.3c.86-.09,1.46.03,1.8.36.34.33.54.74.59,1.25.05.5-.04.97-.28,1.39-.24.42-.53.65-.88.69s-.85-.05-1.49-.25c-.64-.21-1.13-.29-1.47-.26-.33.03-.69.25-1.08.64-.38.39-.62.92-.72,1.58-.1.66-.08,1.69.06,3.07.14,1.38.33,2.26.57,2.65.24.39.7.88,1.38,1.47s1.05,1.1,1.09,1.52c.05.49-1.14.86-3.57,1.1l-1.35.14-.33.02c-.22.01-.45.03-.68.05l-.33.02c-.22.01-.45.03-.69.05-1.1.11-1.67-.07-1.72-.53-.05-.46.18-.96.68-1.48s.79-.99.88-1.38c.08-.39.01-1.7-.21-3.93s-.43-3.55-.61-3.98c-.19-.43-.56-.77-1.13-1.03-.57-.26-.87-.56-.91-.9-.05-.47.28-.84.98-1.11,1.06-.4,2.03-.64,2.91-.73.88-.09,1.48-.05,1.8.11.13.07.3.32.51.74.21.43.42.63.64.6.09,0,.28-.12.57-.34,1.13-.94,2.12-1.46,2.98-1.54Z"/>
    <path d="M349.96,543.47c.21.18.34.48.38.9.04.42-.14.74-.54.97-.68.38-1.04.61-1.07.7-.1.25-.13.63-.07,1.16l.06.4c.07.42.12.72.14.92.07.67-.04,1.34-.32,2.01-.76,1.86-2.4,3.07-4.9,3.62-1.11.25-1.68.38-1.72.39-.64.28-.93.64-.89,1.07.04.38.27.62.71.71.43.1,1.6.11,3.51.04s3.22.04,3.92.32c.7.28,1.22.64,1.57,1.06.34.43.56,1.05.64,1.87.08.82-.08,1.6-.5,2.32-.84,1.48-2.29,2.62-4.35,3.41-1.02.39-2.09.64-3.22.76l-.49.05c-1.92.19-3.43,0-4.52-.61-1.09-.6-1.69-1.41-1.79-2.43-.07-.68.09-1.35.48-2.01.07-.12.27-.4.59-.82.32-.43.47-.74.45-.95,0-.02-.22-.27-.65-.75-.43-.48-.67-.98-.72-1.51s.17-1.17.66-1.95c.49-.78.73-1.21.72-1.3,0-.09-.32-.41-.94-.95-.61-.56-1.08-1.27-1.42-2.13-.11-.29-.19-.59-.22-.91,0-.03,0-.07-.01-.11-.06-.58,0-1.19.18-1.81.3-1.02.87-1.85,1.7-2.47,1.15-.87,2.53-1.39,4.15-1.55l.47-.05c.08,0,.71-.03,1.86-.06h.86c.48.01.75,0,.82,0l3.39-.53c.49-.05.84.02,1.06.2ZM344.17,548.15l-.08-.52c-.08-.79-.36-1.44-.85-1.94-.49-.51-1.03-.73-1.61-.67l-.19.02c-.53.05-.97.4-1.32,1.04-.35.64-.48,1.37-.4,2.19l.08.79c.1.99.42,1.79.96,2.41.54.62,1.1.9,1.66.84h.11c.53-.06.98-.37,1.33-.92s.49-1.16.43-1.82v-.09s.01-.11.01-.11l-.02-.32-.08-.79-.03-.11ZM346.1,558.72c-.51-.03-.95-.03-1.33,0h-.13s-.11,0-.11,0l-.71.03c-.08,0-.16,0-.22,0h-.52s-.34.04-.34.04l-.11.03-.33.05-.42.09c-.5.05-.93.31-1.3.79s-.52,1.02-.46,1.62l.03.32c.07.66.38,1.14.93,1.44.55.3,1.23.41,2.02.33l.69-.07c1.34-.13,2.47-.61,3.41-1.43.58-.51.83-1.18.75-2l-.03-.1c-.03-.32-.2-.6-.51-.85-.31-.25-.75-.34-1.31-.29Z"/>
  </g>
</svg>