<?xml version="1.0" encoding="UTF-8"?>
<svg id="animation2" xmlns="http://www.w3.org/2000/svg" viewBox="0 0 200 200">
  <g>
    <path d="M97.93,176.08c-4.94,0-8.66-.93-11.08-2.76-13.74-10.4-10.61-61.52-9.33-76.94.3-3.59,1.48-7.08,3.42-10.08l29.86-46.25c3.73-5.77,9.85-9.22,16.39-9.22,4.75,0,9.31,1.85,12.84,5.2,10.54,10,18.1,16.66,22.45,19.78,4.36,3.12,13,8.09,25.7,14.76,4.96,2.6,8.5,7.16,10,12.83,1.57,5.97.55,12.35-2.78,17.52l-33.07,51.23c-2.17,3.36-5.19,5.98-8.71,7.56-10.96,4.92-38.32,16.36-55.69,16.36h0ZM101.18,106.67c-7.16,0-13.53,1.76-15.86,4.39-.97,1.09-1.07,2.13-.99,2.8.34,2.78,4.1,4.56,10.94,7.8,9.56,4.53,24.02,11.37,36.09,24.86.69.77,1.34,1.52,1.95,2.23,2.62,3.05,4.36,5.07,6.3,5.07h.15c.75-.05,2.14-.46,2.96-2.78,2.13-6.02-.27-22.41-12.67-33.63-10.32-9.34-22.52-10.73-28.88-10.73ZM159.8,79.86c-3.39,7.33-2.15,19.55,4.12,23.36,4.45,2.7,8.91,4.31,11.92,4.31,1.4,0,2.41-.36,3.01-1.07.43-.51.61-1.17.49-1.84-.18-1.07-1.19-1.86-3.2-3.45-2.12-1.68-5.02-3.97-7.05-6.82-1.98-2.76-3.05-5.75-4.08-8.65-.77-2.16-1.5-4.21-2.56-5.98l-1.46-2.44-1.19,2.58ZM115.37,58.77c-.85.18-1.49.81-1.71,1.68-.68,2.71,2.89,8.08,8.48,12.77,1.78,1.49,4.25,2.28,7.13,2.28,5.43,0,11.68-2.82,15.19-6.85l1.7-1.95-2.54-.5c-1.51-.3-3.06-.34-4.37-.34-.62,0-1.24.01-1.88.02-.65.01-1.31.02-1.98.02-2.09,0-4.56-.1-7.1-.84-3.25-.95-6.33-2.95-8.58-4.41-2.06-1.33-3-1.92-3.93-1.92h-.16l-.25.04Z" fill="#fff"/>
    <path d="M127.19,32.34c4.36,0,8.55,1.7,11.81,4.79,10.59,10.05,18.2,16.75,22.61,19.91,4.41,3.17,13.12,8.17,25.88,14.87,4.58,2.4,7.86,6.62,9.24,11.88,1.46,5.56.52,11.51-2.59,16.32l-33.07,51.23c-2.01,3.12-4.8,5.54-8.07,7.01-10.87,4.88-38,16.23-55.08,16.23-4.6,0-8.02-.83-10.18-2.45-10.44-7.89-11.35-44.24-8.74-75.61.28-3.35,1.38-6.6,3.19-9.39l29.86-46.25c3.45-5.34,9.1-8.53,15.13-8.53M129.28,77.01c5.93,0,12.49-2.96,16.32-7.37l3.4-3.91-5.08-1.01c-1.64-.32-3.28-.37-4.67-.37-.62,0-1.26.01-1.91.02-.64.01-1.29.02-1.96.02-1.98,0-4.33-.09-6.68-.78-3.04-.89-6.02-2.82-8.19-4.23-2.15-1.39-3.34-2.16-4.74-2.16h0c-.24,0-.48.02-.71.07-1.42.3-2.49,1.34-2.85,2.78-.97,3.86,3.81,9.96,8.97,14.29,2.05,1.72,4.86,2.64,8.1,2.64M175.84,109.03c1.86,0,3.26-.54,4.16-1.6.71-.84,1.01-1.96.82-3.06-.28-1.63-1.51-2.61-3.75-4.38-2.05-1.62-4.85-3.84-6.77-6.51-1.85-2.59-2.89-5.48-3.89-8.28-.8-2.24-1.55-4.35-2.69-6.25l-2.91-4.89-2.39,5.16c-3.66,7.93-2.38,20.97,4.7,25.27,4.74,2.88,9.37,4.53,12.7,4.53M139.61,155.31c.08,0,.15,0,.23,0,.91-.05,3.14-.52,4.3-3.77,2.25-6.36-.19-23.58-13.08-35.25-10.69-9.68-23.31-11.12-29.88-11.12-7.68,0-14.35,1.92-16.98,4.89-1.34,1.51-1.48,2.99-1.36,3.97.44,3.6,4.47,5.51,11.79,8.97,9.46,4.48,23.74,11.24,35.62,24.5.68.76,1.32,1.51,1.93,2.21,2.89,3.36,4.8,5.59,7.44,5.59M127.19,29.34c-6.75,0-13.46,3.41-17.65,9.9l-29.86,46.25c-2.07,3.21-3.33,6.91-3.65,10.77-1.45,17.41-4.3,67.51,9.92,78.26,2.87,2.17,7.05,3.06,11.99,3.06,17.49,0,44.49-11.19,56.3-16.49,3.79-1.7,7.03-4.52,9.36-8.12l33.07-51.23c7.25-11.24,3.59-26.52-7.78-32.49-9.84-5.17-20.41-10.98-25.52-14.65-5.11-3.67-14.12-11.9-22.3-19.65-3.99-3.78-8.94-5.61-13.87-5.61h0ZM129.28,74.01c-2.39,0-4.58-.6-6.17-1.93-7.07-5.93-9.22-11.46-7.42-11.83.03,0,.06,0,.09,0,1.32,0,6.39,4.6,12.09,6.27,2.61.76,5.14.9,7.52.9,1.34,0,2.63-.04,3.87-.04,1.44,0,2.81.06,4.08.31-3.31,3.8-9.12,6.34-14.06,6.34h0ZM175.84,106.03c-2.28,0-6.3-1.15-11.15-4.1-5.41-3.28-6.71-14.57-3.53-21.45,2.35,3.94,3.1,9.69,6.71,14.74,3.66,5.1,9.78,8.43,9.99,9.65.12.72-.62,1.16-2.02,1.16h0ZM139.61,152.31c-1.61,0-3.96-3.25-7.13-6.8-19.84-22.16-46.04-26.69-46.66-31.83-.33-2.69,6.38-5.51,15.36-5.51,8.61,0,19.3,2.59,27.87,10.35,14.53,13.15,14.58,33.58,10.63,33.79-.02,0-.04,0-.06,0h0Z"/>
  </g>
  <g>
    <path d="M80.48,175.09c-17.53,0-49.45-31.99-58.82-41.8-2.41-2.52-4.17-5.69-5.1-9.17L2.26,70.52c-1.61-6.05-.61-12.48,2.77-17.64,3.13-4.79,7.85-7.89,13.28-8.72,14.1-2.16,23.83-4.03,28.92-5.56,5.09-1.53,14.3-5.36,27.36-11.38,2.48-1.14,5.09-1.72,7.76-1.72,8.7,0,16.43,6.23,18.81,15.15l15.85,59.38c1.05,3.92,1,8.04-.14,11.93-4.01,13.68-18.25,58.63-33.37,62.76-.92.25-1.93.38-3.01.38ZM96.96,99.1c-1.81,0-3.72,1.45-6.35,3.46-.76.58-1.58,1.2-2.43,1.82-14.92,10.7-31.03,11-41.68,11.2-7.34.14-12.2.22-13.1,3.85-.64,2.57,1.36,5.85,3.16,8.15,5.24,6.71,18.17,16.69,32.3,16.69,4.3,0,8.37-.95,12.09-2.82,13.28-6.69,19.06-23.6,19.71-33.34.21-3.1.02-7.09-2.02-8.49-.49-.33-1.05-.5-1.67-.5ZM32.76,60.93c-.83,0-1.66.09-2.48.27-7.16,1.56-11.98,9.18-10.98,17.34l.34,2.79,2.13-1.84c4.35-3.76,8.86-5.8,13.39-6.06.35-.02.7-.03,1.03-.03,2.6,0,4.7.57,6.24.99.99.27,1.71.46,2.35.46,1.23,0,1.75-.75,1.92-1.07.54-1.03.19-2.6-1.05-4.65-2.29-3.78-7.04-8.2-12.9-8.2ZM77.19,48.02c-1.55,0-3.05.28-4.47.83-6,2.32-8.6,8.78-9.04,14.04-.18,2.14-.08,4.87,1.39,5.75.3.18.63.27.98.27,1.1,0,1.86-.83,3-2.09,1.27-1.4,3.02-3.31,5.74-4.89,2.99-1.72,6.46-2.6,10.33-2.6,1.29,0,2.65.1,4.05.29l2.62.36-1.03-2.43c-2.46-5.79-7.78-9.53-13.56-9.53Z" fill="#fff"/>
    <path d="M82.34,27c8.02,0,15.16,5.77,17.36,14.04l15.85,59.38c.97,3.65.93,7.5-.13,11.12-10.39,35.47-22.77,59.12-32.33,61.73-.79.22-1.67.32-2.62.32-16.93,0-48.47-31.64-57.73-41.33-2.24-2.34-3.87-5.29-4.74-8.52L3.7,70.14c-1.5-5.64-.57-11.63,2.58-16.43,2.9-4.43,7.25-7.29,12.25-8.06,14.17-2.17,23.96-4.05,29.12-5.61,5.16-1.55,14.43-5.41,27.55-11.46,2.28-1.05,4.68-1.59,7.13-1.59M66.04,70.4c1.76,0,2.85-1.2,4.11-2.58,1.21-1.33,2.86-3.14,5.38-4.6,2.76-1.59,5.98-2.4,9.58-2.4,1.22,0,2.52.09,3.84.28l5.24.73-2.06-4.87c-2.69-6.35-8.55-10.45-14.94-10.45-1.74,0-3.42.31-5.01.93-6.64,2.57-9.52,9.6-10,15.32-.31,3.73.4,6.14,2.11,7.16.53.31,1.13.48,1.74.48M18.5,84.3l4.25-3.67c4.1-3.54,8.3-5.45,12.5-5.7.32-.02.64-.03.95-.03,2.4,0,4.39.54,5.85.93,1.06.29,1.9.51,2.74.51,1.42,0,2.63-.7,3.25-1.88.81-1.55.46-3.56-1.1-6.12-2.49-4.11-7.7-8.92-14.18-8.92-.93,0-1.88.1-2.8.3-7.91,1.72-13.24,10.07-12.15,18.99l.68,5.58M68.85,145.75c4.54,0,8.83-1,12.76-2.98,13.84-6.97,19.86-24.5,20.53-34.58.34-5.08-.56-8.38-2.67-9.82-.73-.5-1.6-.77-2.51-.77-2.32,0-4.5,1.66-7.26,3.77-.77.59-1.56,1.19-2.39,1.79-14.54,10.43-30.37,10.72-40.84,10.92-7.75.14-13.34.25-14.53,4.99-.63,2.54.52,5.71,3.43,9.43,5.42,6.94,18.81,17.26,33.48,17.26M82.34,24c-2.79,0-5.64.59-8.39,1.86-10.12,4.66-21.19,9.51-27.16,11.31-5.98,1.8-17.79,3.84-28.71,5.51-12.62,1.93-20.75,15.2-17.27,28.23l14.31,53.6c.99,3.72,2.87,7.1,5.47,9.82,10.98,11.49,42.04,42.26,59.9,42.26,1.2,0,2.34-.14,3.41-.43,15.58-4.26,29.56-47.19,34.41-63.78,1.21-4.14,1.27-8.56.15-12.74l-15.85-59.38c-2.66-9.96-11.17-16.26-20.26-16.26h0ZM66.04,67.4c-.07,0-.14-.02-.21-.06-1.59-.95-1.09-13.8,7.43-17.1,1.26-.49,2.59-.73,3.93-.73,4.88,0,9.86,3.16,12.18,8.62-1.32-.18-2.75-.31-4.25-.31-3.5,0-7.38.67-11.08,2.8-4.92,2.84-6.92,6.78-7.99,6.78h0ZM20.79,78.36c-.93-7.56,3.67-14.36,9.81-15.69.73-.16,1.46-.23,2.16-.23,7.8,0,13.43,9.1,12.62,10.65-.1.19-.3.27-.59.27-1.26,0-4.27-1.45-8.59-1.45-.36,0-.74.01-1.12.03-6,.35-10.85,3.46-14.28,6.42h0ZM68.85,142.75c-17.98,0-35.39-17.39-34-22.97,1.64-6.59,29.48,3.54,54.2-14.19,3.42-2.45,6.16-4.99,7.91-4.99.3,0,.58.08.82.24,4.02,2.75-.01,30.43-17.52,39.25-3.71,1.87-7.58,2.66-11.41,2.66h0Z"/>
  </g>
</svg>