<?xml version="1.0" encoding="UTF-8"?>
<svg id="animation" xmlns="http://www.w3.org/2000/svg" viewBox="0 0 200 200">
  <g>
    <path d="M97.93,177.08c-5.16,0-9.09-1-11.69-2.96-14.15-10.7-11.02-62.27-9.72-77.82.31-3.76,1.55-7.4,3.58-10.54l29.86-46.25c3.91-6.06,10.35-9.67,17.23-9.67,5,0,9.81,1.94,13.53,5.47,10.51,9.97,18.03,16.6,22.35,19.69,4.32,3.1,12.93,8.04,25.58,14.69,5.21,2.73,8.94,7.51,10.5,13.46,1.64,6.24.58,12.91-2.91,18.31l-33.07,51.23c-2.28,3.53-5.44,6.27-9.14,7.93-11.02,4.95-38.54,16.45-56.1,16.45h0ZM101.18,107.67c-6.78,0-12.99,1.67-15.11,4.05-.58.65-.83,1.33-.75,2.02.27,2.23,4.07,4.03,10.37,7.01,9.64,4.56,24.2,11.46,36.41,25.09.69.77,1.35,1.53,1.96,2.25,2.35,2.74,4.06,4.72,5.55,4.72.71-.04,1.57-.43,2.17-2.11,2-5.64-.5-21.79-12.4-32.56-10.07-9.12-21.99-10.48-28.21-10.48ZM160.71,80.28c-3.15,6.82-2.03,18.59,3.73,22.09,4.3,2.61,8.56,4.17,11.41,4.17,1.09,0,1.85-.24,2.25-.71.24-.29.34-.64.27-1.03-.11-.66-.95-1.35-2.83-2.84-2.16-1.71-5.13-4.06-7.25-7.02-2.06-2.87-3.15-5.94-4.21-8.9-.76-2.12-1.47-4.12-2.48-5.81l-.49-.81-.4.86ZM115.58,59.75c-.48.1-.82.44-.94.94-.5,2,2.41,6.95,8.15,11.76,1.6,1.34,3.84,2.05,6.49,2.05,5.16,0,11.1-2.68,14.43-6.51l.57-.65-.85-.17c-1.43-.28-2.91-.32-4.18-.32-.61,0-1.23.01-1.87.02-.65.01-1.32.02-2,.02-2.16,0-4.72-.1-7.38-.88-3.39-.99-6.54-3.04-8.85-4.53-1.84-1.19-2.75-1.76-3.38-1.76h-.05l-.14.02Z" fill="#fff"/>
    <path d="M127.19,30.34c4.88,0,9.56,1.89,13.18,5.33,10.53,9.99,18.06,16.63,22.4,19.74,4.34,3.11,12.96,8.07,25.64,14.72,5.08,2.67,8.72,7.34,10.25,13.14,1.6,6.1.57,12.63-2.84,17.91l-33.07,51.23c-2.22,3.45-5.31,6.13-8.93,7.75-10.99,4.93-38.43,16.41-55.9,16.41-5.05,0-8.88-.96-11.38-2.86-13.95-10.55-10.81-61.89-9.52-77.38.31-3.68,1.52-7.24,3.5-10.31l29.86-46.25c3.82-5.91,10.1-9.44,16.81-9.44M129.28,75.01c5.3,0,11.39-2.75,14.81-6.68l1.13-1.3-1.69-.34c-1.47-.29-2.99-.33-4.28-.33-.61,0-1.24.01-1.88.02-.65.01-1.32.02-1.99.02-2.12,0-4.64-.1-7.24-.86-3.32-.97-6.44-2.99-8.72-4.47-1.97-1.28-2.87-1.84-3.66-1.84h0c-.1,0-.2.01-.3.03-.67.14-1.15.62-1.32,1.31-.62,2.49,2.95,7.77,8.31,12.27,1.69,1.42,4.05,2.17,6.81,2.17M175.84,107.03c1.24,0,2.13-.3,2.63-.89.34-.4.47-.91.38-1.44-.14-.84-.98-1.53-3.02-3.15-2.14-1.69-5.07-4.01-7.15-6.92-2.02-2.82-3.1-5.84-4.14-8.77-.76-2.14-1.49-4.16-2.52-5.9l-.97-1.63-.8,1.72c-3.3,7.15-2.14,19.04,3.92,22.72,4.37,2.66,8.74,4.24,11.67,4.24M139.61,153.31s.08,0,.12,0c.77-.04,1.83-.5,2.52-2.44,2.09-5.91-.3-22.02-12.53-33.09-10.19-9.23-22.26-10.61-28.54-10.61-7.02,0-13.25,1.7-15.48,4.22-.84.95-.94,1.84-.87,2.41.3,2.51,4.2,4.35,10.66,7.41,9.6,4.54,24.11,11.41,36.25,24.97.69.77,1.34,1.53,1.96,2.24,2.53,2.95,4.2,4.89,5.92,4.89M127.19,29.34c-6.75,0-13.46,3.41-17.65,9.9l-29.86,46.25c-2.07,3.21-3.33,6.91-3.65,10.77-1.45,17.41-4.3,67.51,9.92,78.26,2.87,2.17,7.05,3.06,11.99,3.06,17.49,0,44.49-11.19,56.3-16.49,3.79-1.7,7.03-4.52,9.36-8.12l33.07-51.23c7.25-11.24,3.59-26.52-7.78-32.49-9.84-5.17-20.41-10.98-25.52-14.65-5.11-3.67-14.12-11.9-22.3-19.65-3.99-3.78-8.94-5.61-13.87-5.61h0ZM129.28,74.01c-2.39,0-4.58-.6-6.17-1.93-7.07-5.93-9.22-11.46-7.42-11.83.03,0,.06,0,.09,0,1.32,0,6.39,4.6,12.09,6.27,2.61.76,5.14.9,7.52.9,1.34,0,2.63-.04,3.87-.04,1.44,0,2.81.06,4.08.31-3.31,3.8-9.12,6.34-14.06,6.34h0ZM175.84,106.03c-2.28,0-6.3-1.15-11.15-4.1-5.41-3.28-6.71-14.57-3.53-21.45,2.35,3.94,3.1,9.69,6.71,14.74,3.66,5.1,9.78,8.43,9.99,9.65.12.72-.62,1.16-2.02,1.16h0ZM139.61,152.31c-1.61,0-3.96-3.25-7.13-6.8-19.84-22.16-46.04-26.69-46.66-31.83-.33-2.69,6.38-5.51,15.36-5.51,8.61,0,19.3,2.59,27.87,10.35,14.53,13.15,14.58,33.58,10.63,33.79-.02,0-.04,0-.06,0h0Z"/>
  </g>
  <g>
    <path d="M80.48,176.09c-17.93,0-50.11-32.23-59.54-42.1-2.53-2.64-4.37-5.96-5.34-9.6L1.29,70.78c-1.69-6.32-.63-13.04,2.9-18.44,3.29-5.03,8.25-8.29,13.97-9.16,14.05-2.15,23.73-4.01,28.78-5.53,5.05-1.52,14.21-5.33,27.23-11.33,2.61-1.2,5.37-1.82,8.18-1.82,9.15,0,17.28,6.54,19.78,15.89l15.85,59.38c1.09,4.09,1.04,8.41-.15,12.47-4.04,13.8-18.45,59.17-34.07,63.44-1,.27-2.1.41-3.27.41h0ZM96.96,100.1c-1.48,0-3.36,1.44-5.75,3.25-.77.59-1.59,1.21-2.46,1.83-15.17,10.89-31.47,11.19-42.25,11.38-6.88.13-11.43.21-12.15,3.09-.42,1.7.63,4.29,2.98,7.29,5.12,6.55,17.74,16.3,31.51,16.3,4.14,0,8.06-.91,11.64-2.72,12.9-6.5,18.53-23.01,19.16-32.52.26-3.96-.31-6.72-1.59-7.59-.32-.22-.69-.33-1.1-.33ZM32.76,61.93c-.75,0-1.52.08-2.27.25-6.55,1.43-11.12,8.71-10.2,16.24l.11.93.71-.61c4.52-3.9,9.23-6.02,13.98-6.3.37-.02.74-.03,1.09-.03,2.74,0,4.91.59,6.5,1.02.92.25,1.58.43,2.09.43.62,0,.91-.29,1.04-.54.5-.96-.55-2.88-1.02-3.67-1.73-2.86-6.22-7.71-12.04-7.71ZM77.19,49.02c-1.42,0-2.81.26-4.11.76-5.57,2.16-7.99,8.23-8.41,13.2-.16,1.96-.01,4.26.9,4.8.14.09.3.13.47.13.66,0,1.26-.66,2.26-1.76,1.24-1.37,3.12-3.43,5.98-5.08,3.14-1.81,6.79-2.73,10.83-2.73,1.34,0,2.74.1,4.18.3l.87.12-.34-.81c-2.3-5.42-7.26-8.92-12.64-8.92Z" fill="#fff"/>
    <path d="M82.34,25c8.92,0,16.86,6.38,19.3,15.52l15.85,59.38c1.07,4.01,1.02,8.22-.14,12.2-4.02,13.74-18.35,58.9-33.72,63.1-.96.26-2.02.4-3.14.4-17.72,0-49.78-32.11-59.18-41.95-2.47-2.58-4.27-5.83-5.22-9.38L1.77,70.65c-1.65-6.19-.62-12.76,2.83-18.04,3.21-4.91,8.05-8.09,13.62-8.94,14.07-2.15,23.78-4.02,28.85-5.54,5.07-1.53,14.25-5.35,27.29-11.36,2.55-1.17,5.23-1.77,7.97-1.77M66.04,68.4c.88,0,1.54-.72,2.63-1.93,1.22-1.34,3.07-3.37,5.86-4.98,3.07-1.77,6.62-2.66,10.58-2.66,1.31,0,2.7.1,4.12.3l1.75.24-.69-1.62c-2.38-5.61-7.52-9.23-13.1-9.23-1.49,0-2.93.27-4.29.79-5.78,2.24-8.3,8.5-8.73,13.62-.11,1.32-.22,4.46,1.14,5.27.22.13.47.2.72.2M20.03,80.34l1.42-1.22c4.44-3.83,9.04-5.91,13.69-6.18.36-.02.72-.03,1.06-.03,2.67,0,4.81.58,6.37,1,.95.26,1.64.44,2.22.44.92,0,1.32-.5,1.48-.81.57-1.08-.25-2.86-1.04-4.16-2.22-3.67-6.82-7.96-12.47-7.96-.79,0-1.59.09-2.37.26-6.91,1.51-11.56,8.88-10.59,16.79l.23,1.86M68.85,143.75c4.22,0,8.21-.93,11.86-2.77,13.09-6.59,18.79-23.31,19.44-32.93.16-2.43.14-6.71-1.8-8.04-.4-.28-.87-.42-1.38-.42-1.65,0-3.59,1.48-6.05,3.36-.78.59-1.59,1.21-2.44,1.82-15.05,10.79-31.25,11.09-41.96,11.29-7.11.13-11.81.22-12.62,3.47-.59,2.38,1.34,5.51,3.07,7.72,5.18,6.63,17.95,16.49,31.9,16.49M82.34,24c-2.79,0-5.64.59-8.39,1.86-10.12,4.66-21.19,9.51-27.16,11.31-5.98,1.8-17.79,3.84-28.71,5.51-12.62,1.93-20.75,15.2-17.27,28.23l14.31,53.6c.99,3.72,2.87,7.1,5.47,9.82,10.98,11.49,42.04,42.26,59.9,42.26,1.2,0,2.34-.14,3.41-.43,15.58-4.26,29.56-47.19,34.41-63.78,1.21-4.14,1.27-8.56.15-12.74l-15.85-59.38c-2.66-9.96-11.17-16.26-20.26-16.26h0ZM66.04,67.4c-.07,0-.14-.02-.21-.06-1.59-.95-1.09-13.8,7.43-17.1,1.26-.49,2.59-.73,3.93-.73,4.88,0,9.86,3.16,12.18,8.62-1.32-.18-2.75-.31-4.25-.31-3.5,0-7.38.67-11.08,2.8-4.92,2.84-6.92,6.78-7.99,6.78h0ZM20.79,78.36c-.93-7.56,3.67-14.36,9.81-15.69.73-.16,1.46-.23,2.16-.23,7.8,0,13.43,9.1,12.62,10.65-.1.19-.3.27-.59.27-1.26,0-4.27-1.45-8.59-1.45-.36,0-.74.01-1.12.03-6,.35-10.85,3.46-14.28,6.42h0ZM68.85,142.75c-17.98,0-35.39-17.39-34-22.97,1.64-6.59,29.48,3.54,54.2-14.19,3.42-2.45,6.16-4.99,7.91-4.99.3,0,.58.08.82.24,4.02,2.75-.01,30.43-17.52,39.25-3.71,1.87-7.58,2.66-11.41,2.66h0Z"/>
  </g>
</svg>