<?xml version="1.0" encoding="UTF-8"?>
<svg id="clocher" xmlns="http://www.w3.org/2000/svg" viewBox="0 0 490.21 1024">
  <path d="M470.8,164.01H19.42v354.21h451.38V164.01ZM65.5,494.79l-29.9-5.43v-206.72c0-5.88,10.97-16.09,14.98-16.09s14.92,10.22,14.92,16.09v212.14ZM198.18,494.28h-71.37v-200.07c0-7.79,8.15-27.65,35.66-27.65,23.49,0,35.72,19.86,35.72,27.65v200.07ZM363.47,494.28h-71.43v-200.07c0-7.79,8.15-27.65,35.72-27.65,23.43,0,35.72,19.86,35.72,27.65v200.07ZM425.08,494.82v-214.89c0-5.88,10.91-16.09,14.92-16.09s14.98,10.22,14.98,16.09v207.29l-29.9,7.6Z"/>
  <polygon points="476.46 158.57 490.21 153.59 245.11 50.96 0 153.59 13.76 158.57 476.46 158.57"/>
  <path d="M19.42,523.65v495.56h451.38v-495.56H19.42ZM65.32,831.24l-29.9-5.43v-206.72c0-5.88,10.97-16.09,14.98-16.09s14.92,10.22,14.92,16.09v212.14ZM198,830.73h-71.37v-200.07c0-7.79,8.15-27.65,35.66-27.65,23.49,0,35.72,19.86,35.72,27.65v200.07ZM363.28,830.73h-71.43v-200.07c0-7.79,8.15-27.65,35.72-27.65,23.43,0,35.72,19.86,35.72,27.65v200.07ZM454.8,823.67l-29.9,7.6v-214.89c0-5.88,10.91-16.09,14.92-16.09s14.98,10.22,14.98,16.09v207.29Z"/>
  <line x1="245.11" y1="57.92" x2="245.11" fill="none" stroke="#000" stroke-miterlimit="10" stroke-width=".75"/>
</svg>