<?xml version="1.0" encoding="UTF-8"?>
<svg id="hosting2" xmlns="http://www.w3.org/2000/svg" viewBox="0 0 200 200">
  <g id="frontSupport">
    <g>
      <rect x="1.5" y="86.5" width="8" height="75" fill="#fff"/>
      <path d="M8,88v72H3v-72h5M11,85H0v78h11v-78h0Z"/>
    </g>
    <g>
      <circle cx="5.5" cy="79.5" r="4" fill="#fff"/>
      <path d="M5.5,77c1.38,0,2.5,1.12,2.5,2.5s-1.12,2.5-2.5,2.5-2.5-1.12-2.5-2.5,1.12-2.5,2.5-2.5M5.5,74c-3.04,0-5.5,2.46-5.5,5.5s2.46,5.5,5.5,5.5,5.5-2.46,5.5-5.5-2.46-5.5-5.5-5.5h0Z"/>
    </g>
  </g>
  <g id="bottomSupport">
    <rect x="12.5" y="134.5" width="175" height="9" fill="#fff"/>
    <path d="M186,136v6H14v-6h172M189,133H11v12h178v-12h0Z"/>
  </g>
  <g id="backSupport">
    <path d="M190.5,161.5V58.9c0-4.08,3.32-7.4,7.4-7.4.33,0,.6.27.6.6v109.4h-8Z" fill="#fff"/>
    <path d="M197,53.07v106.93h-5V58.9c0-2.95,2.17-5.4,5-5.84M197.9,50c-4.92,0-8.9,3.99-8.9,8.9v104.1h11V52.1c0-1.16-.94-2.1-2.1-2.1h0Z"/>
  </g>
  <g id="mastress">
    <path d="M147.5,131.5v-32h34.43c3.07,0,5.57,2.5,5.57,5.57v26.43h-40Z" fill="#fff"/>
    <path d="M181.93,101c2.25,0,4.07,1.83,4.07,4.07v24.93h-37v-29h32.93M181.93,98h-35.93v35h43v-27.93c0-3.91-3.17-7.07-7.07-7.07h0Z"/>
  </g>
  <g id="blanket">
    <path d="M12.5,131.5v-32.9c0-2.26,1.84-4.1,4.1-4.1h131.2c1.93,0,3.5,1.57,3.5,3.5v28.67c0,2.66-2.16,4.82-4.82,4.82H12.5Z" fill="#fff"/>
    <path d="M147.79,96c1.11,0,2,.9,2,2v28.67c0,1.83-1.49,3.32-3.32,3.32H14v-31.4c0-1.43,1.16-2.6,2.6-2.6h131.2M147.79,93H16.6c-3.09,0-5.6,2.51-5.6,5.6v34.4h135.47c3.49,0,6.32-2.83,6.32-6.32v-28.67c0-2.76-2.24-5-5-5h0Z"/>
  </g>
  <g id="pillow">
    <path d="M175.89,96.89c-3.32,0-6.77-.14-9.54-.25-1.88-.08-3.36-.14-4.35-.14-4.66,0-5.95-.96-6.05-1.33-.17-.59,1.08-2.64,4.82-4.88,1.09-.65,2.06-1.34,3-2.01,3.46-2.46,6.73-4.77,15.23-4.77,4.47,0,7.1-.64,8.54-1,0,.15,0,.3-.01.45-.01.55-.03,1.23-.03,2.04,0,.88.09,1.85.19,2.88.29,3.06.61,6.53-1.49,7.86-.68.43-2.92,1.15-10.31,1.15Z" fill="#fff"/>
    <path d="M186,84.39c0,.2,0,.4,0,.61,0,.95.09,1.95.19,3.02.23,2.5.52,5.61-.8,6.45-.15.09-1.73.92-9.51.92-3.29,0-6.72-.14-9.48-.25-1.89-.08-3.39-.14-4.41-.14-2.24,0-3.51-.23-4.19-.43.56-.7,1.73-1.8,3.73-3,1.13-.68,2.13-1.39,3.1-2.07,3.4-2.41,6.34-4.5,14.36-4.5,3.13,0,5.4-.3,7-.61M188.47,80.79c-.95,0-3.38,1.21-9.47,1.21-11.32,0-14,4-19,7-6.16,3.69-9.32,9,2,9,2.41,0,8.33.39,13.89.39,4.83,0,9.39-.29,11.11-1.39,3.71-2.35,2-8.41,2-12,0-3.32.28-4.21-.53-4.21h0Z"/>
  </g>
  <g>
    <path d="M72.86,40.19c0-.06,0-.11-.02-.14-.05-.1-.14-.17-.28-.21s-.27-.03-.4.03l-4.08,1.94.35,2.54c.04.59,0,1.12-.11,1.58-.12.47-.28.89-.5,1.26-.22.37-.49.69-.8.96-.31.27-.66.49-1.03.67-.42.2-.84.33-1.26.4-.42.06-.81.06-1.18-.02-.37-.07-.69-.22-.98-.44-.29-.22-.52-.52-.7-.88-.26-.55-.44-1.2-.54-1.94-.1-.75-.07-1.5.1-2.25.16-.76.48-1.48.95-2.16.47-.68,1.14-1.23,2.02-1.64l19.26-9.17c.7-.33,1.24-.46,1.62-.39.39.07.65.26.8.57.1.21.15.47.15.76,0,.3-.04.61-.14.94l-2.54,19.55c-.11.4-.11.7-.01.9.07.14.17.22.32.26s.32.04.5.01c.19-.03.38-.08.59-.16.21-.08.41-.17.58-.25.74-.35,1.31-.71,1.71-1.07.39-.36.67-.72.84-1.08.17-.36.25-.72.27-1.09,0-.36,0-.73-.04-1.08-.04-.36-.06-.71-.08-1.07-.01-.35.04-.7.17-1.04.13-.34.36-.68.69-1.01.33-.33.82-.65,1.48-.97.42-.2.84-.33,1.26-.4.42-.07.81-.06,1.17.03s.69.23.97.45c.29.22.52.51.69.88.26.55.44,1.2.55,1.96.1.76.08,1.52-.08,2.29-.16.77-.46,1.5-.92,2.19-.46.69-1.13,1.24-2,1.66l-19.82,9.44c-.23.11-.46.2-.71.27-.25.07-.48.11-.7.11-.22,0-.42-.04-.6-.13-.18-.09-.33-.24-.43-.46-.1-.21-.15-.48-.16-.81s.05-.74.15-1.23l2.91-20.49Z" fill="none" stroke="#000" stroke-miterlimit="10"/>
    <path d="M117.86,41.09c.27.08.49.29.65.63s.26.8.31,1.39c.04.59-.03,1.16-.21,1.71-.19.54-.49.92-.91,1.12l-13.54,6.46c-.64.3-1.04.27-1.22-.09-.35-.73.97-5.01,3.95-12.83,1.14-3,1.92-5.08,2.33-6.24-.86.27-2.06.77-3.61,1.51l-6.23,2.99.16.5c.28.9.3,1.74.06,2.52-.14.44-.37.73-.68.88-.31.15-.6.17-.85.05-.25-.12-.49-.41-.71-.89-.22-.47-.36-.96-.42-1.46-.05-.5.04-.95.28-1.36.42-.72,1.37-1.45,2.87-2.16l8.7-4.17c1.43-.68,2.53-1.14,3.28-1.37h-.02c.25,0,.42.1.51.29.09.18.08.51,0,.98-.09.47-.25,1.08-.47,1.84-.29,1.01-.84,2.7-1.66,5.07-.81,2.37-1.67,4.69-2.55,6.97-.88,2.28-1.45,3.66-1.71,4.14.54-.08,2.02-.7,4.45-1.86,2.43-1.15,4.31-2.09,5.66-2.81.17-.49.31-1.39.42-2.71.1-.62.21-.96.33-1.02.28-.14.56-.16.83-.08Z"/>
    <path d="M126.13,32.52s0-.06-.01-.08c-.03-.06-.08-.1-.16-.12-.08-.02-.15-.02-.23.02l-2.31,1.1.2,1.44c.03.33,0,.63-.06.9-.07.27-.16.51-.29.71-.13.21-.28.39-.46.54-.18.15-.37.28-.58.38-.24.11-.47.19-.71.22-.24.04-.46.04-.67,0-.21-.04-.39-.12-.56-.25-.16-.13-.3-.29-.39-.5-.15-.31-.25-.68-.31-1.1s-.04-.85.05-1.28c.09-.43.27-.84.54-1.22.27-.39.65-.7,1.14-.93l10.92-5.2c.39-.19.7-.26.92-.22s.37.15.46.32c.06.12.08.26.09.43s-.03.35-.08.53l-1.44,11.08c-.06.23-.06.4,0,.51.04.08.1.13.18.15.08.02.18.02.29,0,.1-.02.22-.05.34-.09.12-.05.23-.09.33-.14.42-.2.74-.4.97-.61.22-.21.38-.41.48-.61.09-.21.14-.41.15-.62s0-.41-.02-.61c-.02-.2-.04-.41-.04-.61,0-.2.03-.4.1-.59.07-.19.2-.38.39-.57s.47-.37.84-.55c.24-.11.47-.19.71-.23.24-.04.46-.03.66.02.21.04.39.13.55.25.16.12.29.29.39.5.15.31.25.68.31,1.11.06.43.04.86-.04,1.3-.09.44-.26.85-.52,1.24s-.64.7-1.13.94l-11.23,5.35c-.13.06-.26.11-.4.15-.14.04-.27.06-.4.06s-.24-.03-.34-.08c-.1-.05-.18-.14-.24-.26-.06-.12-.09-.27-.09-.46,0-.19.03-.42.09-.7l1.65-11.61Z" fill="none" stroke="#000" stroke-miterlimit="10"/>
    <path d="M151.67,33.25c.15.04.27.14.35.31.08.17.13.41.14.72.01.31-.04.61-.16.9-.12.29-.3.49-.54.61l-7.75,3.69c-.37.17-.59.17-.68-.02-.18-.37.66-2.64,2.52-6.8.71-1.6,1.2-2.7,1.46-3.32-.49.16-1.18.45-2.06.88l-3.56,1.71.08.26c.14.47.13.9-.03,1.32-.09.23-.22.39-.4.48-.18.09-.34.1-.48.04-.14-.06-.27-.21-.38-.45s-.18-.49-.2-.75.04-.5.19-.72c.25-.39.8-.79,1.66-1.2l4.98-2.39c.82-.39,1.44-.65,1.87-.79h0c.14,0,.23.04.28.14.04.09.04.26-.03.51s-.16.57-.31.97c-.19.53-.54,1.43-1.05,2.69-.51,1.26-1.04,2.49-1.59,3.71s-.9,1.95-1.06,2.2c.3-.05,1.15-.41,2.54-1.07,1.39-.66,2.47-1.2,3.24-1.6.1-.26.21-.74.3-1.42.07-.33.14-.51.21-.54.16-.08.32-.1.47-.06Z"/>
  </g>
</svg>