<?xml version="1.0" encoding="UTF-8"?>
<svg id="Calque_3" xmlns="http://www.w3.org/2000/svg" xmlns:xlink="http://www.w3.org/1999/xlink" viewBox="0 0 1280 1024">
  <defs>
    <clipPath id="clippath">
      <rect x="171.52" y="333.14" width="259.86" height="20.24" fill="none"/>
    </clipPath>
  </defs>
  <g>
    <path d="M1262.39,523.3h-256.4v173.02h256.4v-173.02ZM1032.17,684.88l-16.99-2.65v-100.97c0-2.87,6.23-7.86,8.51-7.86s8.48,4.99,8.48,7.86v103.62ZM1107.54,684.63h-40.54v-97.73c0-3.81,4.63-13.51,20.25-13.51,13.34,0,20.29,9.7,20.29,13.51v97.73ZM1201.42,684.63h-40.58v-97.73c0-3.81,4.63-13.51,20.29-13.51,13.31,0,20.29,9.7,20.29,13.51v97.73ZM1236.42,684.89v-104.96c0-2.87,6.2-7.86,8.48-7.86s8.51,4.99,8.51,7.86v101.25l-16.99,3.71Z"/>
    <polygon points="1265.61 520.65 1273.42 518.21 1134.19 468.08 994.96 518.21 1002.78 520.65 1265.61 520.65"/>
    <path d="M1005.99,698.97v242.06h256.4v-242.06h-256.4ZM1032.07,849.22l-16.99-2.65v-100.97c0-2.87,6.23-7.86,8.51-7.86s8.48,4.99,8.48,7.86v103.62ZM1107.43,848.97h-40.54v-97.73c0-3.81,4.63-13.51,20.25-13.51,13.34,0,20.29,9.7,20.29,13.51v97.73ZM1201.32,848.97h-40.58v-97.73c0-3.81,4.63-13.51,20.29-13.51,13.31,0,20.29,9.7,20.29,13.51v97.73ZM1253.31,845.52l-16.99,3.71v-104.96c0-2.87,6.2-7.86,8.48-7.86s8.51,4.99,8.51,7.86v101.25Z"/>
    <line x1="1134.19" y1="471.48" x2="1134.19" y2="443.19" fill="none" stroke="#000" stroke-miterlimit="10" stroke-width=".75"/>
  </g>
  <g>
    <path d="M469.37,286.82c-6.02.71-6.29,2.7-6.55,3.1-6.67,15.14-9.18,17.69-15.86,32.83h-1.89v547.09h43.81V290.18c-2.57-3.76-14.46-3.95-19.52-3.36Z"/>
    <path d="M164.97,322.75v547.09h272.96V322.75H164.97ZM306.45,423.46h-10v-20.75h10v20.75ZM406.01,521.16h-29.54v-44.5h.02s0-.01,0-.02c0-4.24,6.61-13.11,14.78-13.11s14.72,8.87,14.72,13.11c0,0,0,.01,0,.02h.02v44.5Z"/>
    <g clip-path="url(#clippath)">
      <g>
        <rect x="179.96" y="333.14" width="4.76" height="7.11" fill="#fff"/>
        <rect x="196.83" y="333.14" width="4.76" height="7.11" fill="#fff"/>
        <rect x="213.71" y="333.14" width="4.76" height="7.11" fill="#fff"/>
        <rect x="230.59" y="333.14" width="4.76" height="7.11" fill="#fff"/>
        <rect x="247.47" y="333.14" width="4.76" height="7.11" fill="#fff"/>
        <rect x="264.35" y="333.14" width="4.76" height="7.11" fill="#fff"/>
        <rect x="281.23" y="333.14" width="4.76" height="7.11" fill="#fff"/>
        <rect x="298.11" y="333.14" width="4.76" height="7.11" fill="#fff"/>
        <rect x="314.99" y="333.14" width="4.76" height="7.11" fill="#fff"/>
        <rect x="331.87" y="333.14" width="4.76" height="7.11" fill="#fff"/>
        <rect x="348.74" y="333.14" width="4.76" height="7.11" fill="#fff"/>
        <rect x="365.62" y="333.14" width="4.76" height="7.11" fill="#fff"/>
        <rect x="382.5" y="333.14" width="4.76" height="7.11" fill="#fff"/>
        <rect x="399.38" y="333.14" width="4.76" height="7.11" fill="#fff"/>
        <rect x="416.26" y="333.14" width="4.76" height="7.11" fill="#fff"/>
      </g>
    </g>
  </g>
</svg>