<?xml version="1.0" encoding="UTF-8"?>
<svg id="travel" xmlns="http://www.w3.org/2000/svg" viewBox="0 0 200 200">
  <g id="station">
    <g id="support">
      <rect x="153.22" y="59.1" width="4.28" height="55.4" fill="#fff"/>
      <path d="M157,59.6v54.4h-3.28v-54.4h3.28M158,58.6h-5.28v56.4h5.28v-56.4h0Z"/>
    </g>
    <g id="clock">
      <g id="topPane">
        <rect x="140.5" y="31.5" width="31" height="31" rx="14.85" ry="14.85" fill="#fff"/>
        <path d="M156.65,32c7.91,0,14.35,6.44,14.35,14.35v1.3c0,7.91-6.44,14.35-14.35,14.35h-1.3c-7.91,0-14.35-6.44-14.35-14.35v-1.3c0-7.91,6.44-14.35,14.35-14.35h1.3M156.65,31h-1.3c-8.48,0-15.35,6.87-15.35,15.35v1.3c0,8.48,6.87,15.35,15.35,15.35h1.3c8.48,0,15.35-6.87,15.35-15.35v-1.3c0-8.48-6.87-15.35-15.35-15.35h0Z"/>
      </g>
      <line x1="155.72" y1="47" x2="162.4" y2="53.4" fill="none" stroke="#000" stroke-miterlimit="10"/>
      <line x1="155.72" y1="35.62" x2="155.72" y2="47" fill="none" stroke="#000" stroke-miterlimit="10"/>
    </g>
  </g>
  <g id="train">
    <path d="M52.5,67.5H7.68c-2.05,0-3.32,2.25-2.25,4h46.07c4.11,0,31,3.33,31,7.45,0,.85-.7,1.55-1.55,1.55H10.89l13.3,21.94c9.81,16.18,27.36,26.06,46.29,26.06h113.71c6.75,0,12.22-5.42,12.31-12.15-.44-26.82-117.16-48.85-144-48.85Z" fill="#fff" stroke="#000" stroke-miterlimit="10"/>
    <path d="M86.5,71.5c-.17,7.78.22,15.72,1.23,21.52.81,4.62,4.82,7.98,9.51,7.98h47.33c9.82,0,19.55-1.95,28.61-5.73h0" fill="none" stroke="#000" stroke-miterlimit="10"/>
    <g>
      <path d="M26.42,90.41v2.57c0,.19.03.33.09.44.06.1.13.18.22.24.09.05.18.09.28.11s.2.04.28.07c.09.02.16.06.22.1.06.04.09.11.09.21,0,.26-.07.48-.2.67-.13.19-.3.34-.51.46-.21.12-.44.21-.7.26-.26.06-.51.08-.76.08-.29,0-.57-.03-.85-.08s-.52-.14-.73-.26-.38-.27-.51-.46c-.13-.19-.19-.41-.19-.67,0-.1.03-.17.09-.21.06-.04.13-.08.21-.1s.18-.04.28-.07c.1-.02.19-.06.28-.11.08-.05.16-.13.21-.23.06-.1.09-.24.09-.43v-4.68c0-.18-.03-.32-.09-.42-.06-.1-.13-.18-.21-.23-.08-.05-.18-.09-.28-.11-.1-.02-.19-.04-.28-.07-.08-.02-.16-.06-.21-.1-.06-.04-.09-.12-.09-.21,0-.26.07-.48.21-.66.14-.18.33-.34.58-.45.24-.12.53-.21.86-.26.33-.06.68-.08,1.06-.08.36,0,.66.03.9.09.25.06.46.15.66.28.19.13.38.29.55.49.17.2.36.45.57.73l1.95,2.7,1.76-2.56c.16-.24.33-.46.51-.67s.38-.39.61-.55c.22-.16.47-.28.75-.37.28-.09.59-.14.94-.14.59,0,1.1.03,1.53.08.43.06.78.14,1.05.26.27.12.48.27.61.45.13.18.2.4.2.66,0,.1-.03.17-.09.21-.06.04-.13.08-.22.1-.09.02-.18.04-.28.07s-.2.06-.28.11-.16.13-.22.23c-.06.1-.09.24-.09.42v4.66c0,.19.03.33.09.44.06.1.13.18.22.24s.18.09.28.11.2.04.28.07c.09.02.16.06.22.1.06.04.09.11.09.21,0,.52-.31.89-.94,1.12s-1.53.34-2.71.34c-.57,0-1.08-.03-1.52-.08s-.82-.14-1.12-.26-.53-.27-.69-.46c-.16-.19-.24-.41-.24-.67,0-.1.03-.17.09-.21.06-.04.13-.08.21-.1.08-.02.18-.04.28-.07s.19-.06.28-.11.16-.13.21-.23c.06-.1.09-.24.09-.43v-2.58l-2.6,3.73c-.06.1-.15.14-.28.14-.11,0-.21-.05-.29-.14l-2.78-3.74Z" fill="#fff" stroke="#000" stroke-miterlimit="10" stroke-width=".5"/>
      <path d="M45.62,94.97c-.13.1-.29.2-.47.29-.18.1-.39.18-.63.25-.24.08-.51.14-.81.18-.3.05-.63.07-1,.07-.49,0-.92-.06-1.3-.17-.38-.12-.7-.27-.97-.48-.27-.2-.5-.44-.69-.7-.18-.27-.33-.56-.44-.86-.11-.31-.19-.62-.24-.95-.05-.33-.07-.65-.07-.97s.02-.66.07-.99c.05-.34.13-.66.24-.98.11-.31.26-.61.45-.89.19-.28.42-.52.7-.72.28-.21.61-.37.98-.49.38-.12.81-.18,1.3-.18.39,0,.75.03,1.06.08.32.06.6.13.85.21.25.09.47.18.65.29.18.11.34.21.46.31.05-.14.13-.25.23-.34.1-.09.24-.16.4-.22.17-.06.37-.1.62-.12.25-.03.54-.04.88-.04.52,0,.98.03,1.38.08.4.05.74.13,1.02.24.28.11.49.25.63.42.14.17.21.37.21.61,0,.09-.03.16-.08.2-.05.04-.12.07-.2.09-.08.02-.17.04-.25.06-.09.02-.17.05-.25.1-.08.05-.14.12-.2.21-.05.09-.08.22-.08.39v6.8c0,.17.03.3.08.39.05.09.12.16.2.21s.17.08.25.1c.09.02.17.04.25.06s.15.05.2.09.08.1.08.2c0,.24-.07.44-.21.61-.14.17-.35.31-.63.42-.28.11-.62.19-1.02.24-.4.05-.86.07-1.38.07-1.08,0-1.91-.1-2.48-.31s-.86-.55-.86-1.02c0-.09.03-.16.08-.2.05-.04.12-.07.2-.09.08-.02.16-.04.26-.06.09-.02.18-.05.26-.1.08-.05.14-.12.2-.21.05-.09.08-.23.08-.4v-1.74ZM44.53,94.13c.19,0,.39-.03.58-.09.19-.06.37-.12.52-.19v-4.59c-.14-.08-.29-.14-.45-.2s-.33-.08-.52-.08c-.22,0-.41.04-.57.13s-.28.23-.38.44-.17.48-.21.83c-.04.35-.07.78-.07,1.29s0,.89.02,1.21c.01.32.05.57.12.76.07.19.17.32.32.39.15.07.36.11.63.11Z" fill="#fff" stroke="#000" stroke-miterlimit="10" stroke-width=".5"/>
      <path d="M63.96,88.12c.11.15.2.33.27.53.07.2.1.43.09.7,0,.27-.07.52-.19.77-.12.25-.28.45-.48.62-.19.17-.43.32-.7.45-.49.24-1.07.4-1.74.5l.37.45c.1.12.23.29.4.5s.3.38.39.49c.1.12.22.27.37.44.15.17.29.32.41.44.28.29.57.53.87.73s.78.31,1.44.32c.08.07.12.16.12.25,0,.33-.41.48-1.22.47-.81-.01-1.41-.14-1.81-.38h0c-.63-.46-1.34-1.36-2.15-2.69l-.59-.95-2.01-.04-.05,2.78c0,.08.1.14.3.2s.41.11.61.16c.2.05.3.11.3.17,0,.14-.04.24-.12.32-.08.08-.22.13-.42.16-.26.03-.59.04-.99.04s-.67-.01-.81-.01-.28,0-.43,0c-.14,0-.28-.01-.41-.02-.13,0-.25-.02-.35-.05-.11-.02-.2-.06-.29-.09-.16-.07-.24-.18-.24-.31,0-.13.07-.22.19-.27.13-.05.27-.07.42-.07.41,0,.61-.09.62-.26l.11-6.59c0-.1-.1-.17-.3-.22-.2-.04-.41-.09-.61-.12-.2-.04-.3-.1-.3-.19,0-.08.04-.16.1-.22.07-.06.17-.11.3-.15.13-.04.27-.07.4-.09s.31-.04.51-.04c.29-.01.63-.01,1.04,0l1.26.02c1.24.02,2.07.06,2.5.13.43.06.78.13,1.06.19.28.06.52.13.72.22.2.08.39.18.58.31.19.12.34.26.45.41ZM62.69,89.52c0-.29-.06-.55-.19-.78-.13-.23-.3-.41-.51-.55-.21-.14-.48-.25-.79-.33-.53-.15-1.12-.22-1.77-.24s-1.07.04-1.26.15c-.19.11-.28.35-.29.71l-.04,2.5,1.96.03c1.91.03,2.87-.46,2.89-1.5Z"/>
      <path d="M67.88,91.64c-.18,0-.38-.07-.61-.19-.22-.13-.33-.29-.33-.48,0-.2.07-.38.21-.55.13-.17.31-.31.52-.42s.45-.19.73-.26c.51-.13,1.05-.19,1.63-.18.98.02,1.69.21,2.12.59.44.38.65.99.63,1.85l-.04,1.83c0,.44.05.72.18.84.03.03.14.07.32.12.49.14.74.25.74.32,0,.43-.53.64-1.57.62-.39,0-.65-.09-.76-.24s-.18-.42-.18-.82c-.22.33-.56.6-1.01.8s-.93.29-1.44.29c-.51,0-.94-.07-1.29-.19-.35-.12-.64-.3-.85-.56-.22-.25-.32-.53-.32-.82,0-.29.05-.52.13-.7.08-.17.18-.32.3-.44s.28-.22.48-.31c.2-.09.39-.16.57-.22.18-.05.4-.1.68-.14.41-.06.75-.1,1.03-.12.28-.02.42-.04.43-.04.03,0,.2-.02.5-.04.3-.02.54-.07.72-.15.01-.79-.1-1.3-.34-1.55-.21-.21-.57-.32-1.07-.33-.5,0-.88.09-1.13.31-.25.21-.38.55-.39,1.03v.14c-.2.02-.39.02-.57.02ZM71.37,92.58c-.33.1-.7.16-1.12.19-.41.03-.74.07-.98.12s-.44.11-.6.19c-.37.18-.56.49-.57.93-.01.71.46,1.08,1.43,1.09.84.01,1.37-.32,1.61-1,.14-.39.21-.9.22-1.53Z"/>
      <path d="M77.5,95.62h-.62c-.63-.02-1.03-.11-1.17-.27-.07-.08-.1-.17-.1-.27s.05-.18.15-.22.21-.06.32-.06c.12,0,.23-.03.33-.09s.15-.15.15-.29l.06-3.34c0-.38-.16-.58-.51-.62-.03,0-.08,0-.13-.01-.05,0-.09,0-.12-.01-.02,0-.05,0-.09-.01s-.06-.01-.08-.02c-.02,0-.04-.02-.05-.03-.03-.02-.05-.08-.05-.18,0-.1.08-.2.22-.3.28-.19.65-.27,1.11-.27.43,0,.68.03.75.06s.14.06.19.1c.1.06.15.17.15.33l-.08,4.33c0,.24.15.37.46.39.31.02.47.13.46.33,0,.23-.15.37-.44.41-.22.04-.53.05-.92.05ZM76.12,87.8c0-.18.11-.35.32-.51.21-.16.44-.23.68-.23s.48.07.71.21c.23.13.34.3.34.52,0,.21-.1.39-.3.53s-.43.21-.72.2-.52-.08-.73-.21c-.2-.14-.3-.3-.3-.5Z"/>
      <path d="M82.42,95.62h-.62c-.63-.02-1.03-.11-1.17-.27-.07-.08-.1-.17-.1-.27s.05-.18.15-.22c.1-.04.2-.06.32-.06s.22-.03.32-.09c.1-.06.15-.15.15-.29l.11-6.56c0-.38-.16-.58-.51-.62-.03,0-.08,0-.13-.01-.05,0-.09,0-.12-.01-.02,0-.05,0-.09-.01-.04,0-.06-.01-.08-.02-.02,0-.03-.02-.05-.03-.03-.03-.05-.09-.05-.18,0-.1.08-.19.23-.29.27-.19.64-.27,1.1-.27.49,0,.77.04.86.09.16.1.24.23.24.4l-.13,7.55c0,.24.15.37.46.39.31.02.47.13.46.33,0,.23-.15.37-.44.42-.22.04-.53.05-.92.05Z"/>
    </g>
  </g>
</svg>