<?xml version="1.0" encoding="UTF-8"?>
<svg id="visit" xmlns="http://www.w3.org/2000/svg" viewBox="0 0 200 200">
  <g id="support">
    <rect x="95.67" y="27.71" width="11.33" height="171.79" fill="#fff"/>
    <path d="M106.5,28.21v170.79h-10.33V28.21h10.33M107.5,27.21h-12.33v172.79h12.33V27.21h0Z"/>
  </g>
  <g id="topPane">
    <g id="topPane-2" data-name="topPane">
      <rect x="74.09" y=".5" width="54.48" height="28.93" rx="4.97" ry="4.97" fill="#fff"/>
      <path d="M123.6,1c2.47,0,4.47,2.01,4.47,4.47v18.98c0,2.47-2.01,4.47-4.47,4.47h-44.54c-2.47,0-4.47-2.01-4.47-4.47V5.47c0-2.47,2.01-4.47,4.47-4.47h44.54M123.6,0h-44.54C76.04,0,73.59,2.45,73.59,5.47v18.98c0,3.02,2.45,5.47,5.47,5.47h44.54c3.02,0,5.47-2.45,5.47-5.47V5.47C129.08,2.45,126.63,0,123.6,0h0Z"/>
    </g>
    <g>
      <path d="M87.73,14.74v3.3c0,.24.04.42.11.56.07.13.16.23.27.3.11.07.23.12.35.14.13.03.24.06.35.09.11.03.2.08.27.13.07.06.11.15.11.27,0,.33-.08.61-.25.85-.17.24-.38.43-.64.59s-.55.26-.87.33-.64.11-.94.11c-.36,0-.71-.04-1.05-.11-.34-.07-.64-.18-.9-.33-.26-.15-.47-.35-.63-.59-.16-.24-.24-.52-.24-.85,0-.13.04-.22.11-.27.07-.06.16-.1.27-.13.11-.03.22-.06.34-.08.12-.03.24-.07.34-.14.1-.07.19-.16.27-.29.07-.13.11-.31.11-.55v-6.01c0-.23-.04-.42-.11-.55-.07-.13-.16-.23-.27-.29-.11-.07-.22-.11-.34-.14-.12-.03-.24-.05-.34-.08s-.19-.07-.27-.13-.11-.15-.11-.27c0-.33.09-.61.26-.85.17-.24.41-.43.72-.58.3-.15.66-.26,1.07-.33.41-.07.84-.11,1.31-.11.45,0,.82.04,1.12.11.3.07.58.19.82.35s.47.37.68.63c.21.26.45.57.71.94l2.42,3.46,2.19-3.28c.2-.3.41-.59.64-.86.23-.27.48-.5.75-.71.28-.2.59-.36.93-.48.34-.12.73-.18,1.17-.18.73,0,1.37.04,1.9.11.53.07.96.18,1.3.33s.59.35.75.58.24.52.24.85c0,.13-.04.22-.11.27s-.16.1-.27.13-.23.06-.35.08c-.13.03-.24.07-.35.14s-.2.17-.27.29c-.07.13-.11.31-.11.55v5.98c0,.24.04.42.11.56.07.13.16.23.27.3.11.07.23.12.35.14.13.03.24.06.35.09.11.03.2.08.27.13.07.06.11.15.11.27,0,.66-.39,1.14-1.17,1.44-.78.29-1.9.44-3.37.44-.71,0-1.34-.04-1.89-.11s-1.01-.18-1.39-.33c-.38-.15-.66-.35-.86-.59-.2-.24-.29-.52-.29-.85,0-.13.04-.22.11-.27.07-.06.16-.1.27-.13.11-.03.22-.06.34-.08.12-.03.24-.07.34-.14.1-.07.19-.16.27-.29.07-.13.11-.31.11-.55v-3.32l-3.23,4.78c-.07.12-.19.18-.34.18-.14,0-.26-.06-.36-.18l-3.46-4.8Z"/>
      <path d="M111.6,20.6c-.16.13-.36.25-.58.37-.23.12-.49.23-.79.33-.3.1-.63.17-1.01.23-.37.06-.79.09-1.25.09-.61,0-1.15-.07-1.61-.22-.47-.15-.87-.35-1.21-.61-.34-.26-.62-.56-.85-.9-.23-.35-.41-.71-.55-1.11-.14-.39-.24-.8-.29-1.22s-.09-.83-.09-1.24.03-.85.09-1.28c.06-.43.16-.85.3-1.25s.33-.78.56-1.14c.23-.36.53-.67.87-.93.35-.26.75-.47,1.22-.63.47-.15,1-.23,1.61-.23.49,0,.93.04,1.32.11.39.07.74.16,1.05.27s.58.24.81.37c.23.14.42.27.58.4.07-.18.16-.32.29-.44.13-.12.29-.21.5-.28s.46-.12.77-.16c.3-.03.67-.05,1.09-.05.64,0,1.22.03,1.72.1.5.06.92.17,1.26.31.34.14.6.32.78.53.18.22.27.47.27.78,0,.12-.03.2-.09.25-.06.05-.14.09-.24.12-.1.03-.21.05-.32.07-.11.02-.22.06-.32.12s-.18.15-.24.27c-.06.12-.1.28-.1.49v8.73c0,.22.03.38.1.5.06.11.14.2.24.26s.2.1.32.12c.11.02.22.04.32.07.1.03.18.06.24.12.06.05.09.13.09.25,0,.3-.09.56-.27.78-.18.22-.44.39-.78.53-.34.14-.76.24-1.26.31-.5.06-1.07.1-1.72.1-1.34,0-2.37-.13-3.08-.4-.71-.27-1.07-.71-1.07-1.31,0-.12.03-.2.1-.25.07-.05.15-.09.24-.12.1-.03.2-.05.32-.08.12-.02.22-.07.32-.13.1-.06.18-.15.24-.27.07-.12.1-.29.1-.51l-.02-2.23ZM110.23,19.51c.24,0,.48-.04.72-.11.24-.07.45-.16.64-.25v-5.89c-.17-.1-.35-.19-.56-.26-.2-.07-.42-.1-.65-.1-.28,0-.51.06-.7.17-.19.11-.35.3-.47.56s-.21.62-.26,1.06c-.05.44-.08,1-.08,1.65s0,1.15.02,1.55c.01.41.06.73.15.97.08.24.22.41.4.5s.44.14.78.14Z"/>
    </g>
  </g>
  <g id="paneRight">
    <path id="directLeft" d="M61.08,86.15l79.13,9.46c1.72.21,2.92,1.79,2.66,3.5l-1.63,10.63c-.36,2.34-2.51,3.97-4.85,3.69l-78.65-9.41c-1.33-.16-2.55-.8-3.45-1.79-2.93-3.24-5.15-5.26-7.79-8.73,0,0,6.35-4.11,9.39-6.13,1.53-1.01,3.37-1.45,5.19-1.23Z" fill="#fff" stroke="#000" stroke-miterlimit="10"/>
    <line x1="92.5" y1="101.5" x2="133.5" y2="106.5" fill="none" stroke="#000" stroke-miterlimit="10"/>
  </g>
  <g id="paneLeft">
    <path id="directRight" d="M140.41,60.81l-78,7.21c-2.02.19-3.82-1.27-4.06-3.29l-1.29-10.91c-.23-1.91,1.17-3.63,3.08-3.81l78.16-7.22c2.59-.24,5.19.31,7.47,1.58,3.11,1.74,7.47,4.3,9.74,6.13,0,0-4.26,4.26-9.16,8.01-1.72,1.31-3.78,2.1-5.94,2.3Z" fill="#fff" stroke="#000" stroke-miterlimit="10"/>
    <line x1="73.5" y1="61.5" x2="118.5" y2="57.5" fill="none" stroke="#000" stroke-miterlimit="10"/>
  </g>
</svg>