<?xml version="1.0" encoding="UTF-8"?>
<svg id="visit2" xmlns="http://www.w3.org/2000/svg" viewBox="0 0 200 200">
  <g id="support">
    <rect x="96.2" y="38.27" width="14.02" height="160.23" fill="#fff"/>
    <path d="M108.72,39.77v157.23h-11.02V39.77h11.02M111.72,36.77h-17.02v163.23h17.02V36.77h0Z"/>
  </g>
  <g id="topPane">
    <g id="topPane-2" data-name="topPane">
      <path d="M72.39,1.5h61.65c3.3,0,5.98,2.68,5.98,5.98v25.49c0,3.3-2.68,5.98-5.98,5.98h-61.65c-3.3,0-5.98-2.68-5.98-5.98V7.48c0-3.3,2.68-5.98,5.98-5.98Z" fill="#fff"/>
      <path d="M134.04,3c2.47,0,4.48,2.01,4.48,4.48v25.49c0,2.47-2.01,4.48-4.48,4.48h-61.65c-2.47,0-4.48-2.01-4.48-4.48V7.48c0-2.47,2.01-4.48,4.48-4.48h61.65M134.04,0h-61.65C68.26,0,64.91,3.35,64.91,7.48v25.49c0,4.13,3.35,7.48,7.48,7.48h61.65c4.13,0,7.48-3.35,7.48-7.48V7.48C141.52,3.35,138.17,0,134.04,0h0Z"/>
    </g>
    <g>
      <path d="M84.42,19.93v4.46c0,.32.05.57.15.75.1.18.22.32.37.41.15.09.31.16.49.19.17.04.34.08.49.12.15.04.27.1.37.18.1.08.15.2.15.37,0,.45-.11.83-.34,1.15-.23.32-.52.59-.88.79-.36.2-.76.36-1.2.45-.44.1-.88.15-1.3.15-.5,0-.98-.05-1.45-.15-.47-.1-.89-.25-1.25-.45-.36-.21-.65-.47-.87-.79-.22-.32-.33-.71-.33-1.15,0-.17.05-.3.15-.37s.22-.13.37-.17.3-.08.47-.11c.17-.04.33-.1.47-.19s.27-.22.37-.39c.1-.17.15-.42.15-.74v-8.12c0-.32-.05-.56-.15-.74-.1-.18-.22-.31-.37-.4s-.3-.15-.47-.19c-.17-.04-.33-.07-.47-.11s-.27-.1-.37-.17c-.1-.08-.15-.2-.15-.37,0-.45.12-.83.36-1.15.24-.32.57-.58.99-.79.42-.2.91-.36,1.47-.45.56-.1,1.17-.15,1.81-.15s1.13.05,1.55.15.8.26,1.13.48c.33.22.65.5.94.86.29.35.62.78.98,1.27l3.34,4.68,3.02-4.44c.27-.41.57-.8.88-1.16.31-.36.66-.68,1.04-.95.38-.27.81-.49,1.28-.65.47-.16,1.01-.24,1.62-.24,1.01,0,1.89.05,2.62.15.73.1,1.33.25,1.8.45.47.21.82.47,1.04.79.22.32.34.7.34,1.15,0,.17-.05.3-.15.37-.1.08-.22.13-.37.17-.15.04-.31.08-.49.11-.17.04-.34.1-.49.19-.15.09-.27.22-.37.4-.1.18-.15.42-.15.74v8.08c0,.32.05.57.15.75.1.18.22.32.37.41.15.09.31.16.49.19.17.04.34.08.49.12.15.04.27.1.37.18.1.08.15.2.15.37,0,.9-.54,1.55-1.61,1.94-1.07.4-2.62.6-4.65.6-.98,0-1.85-.05-2.61-.15-.76-.1-1.4-.25-1.92-.45-.52-.21-.91-.47-1.18-.79s-.41-.71-.41-1.15c0-.17.05-.3.15-.37.1-.08.22-.13.37-.17s.3-.08.47-.11c.17-.04.33-.1.47-.19s.27-.22.37-.39.15-.42.15-.74v-4.48l-4.46,6.46c-.1.17-.26.25-.47.25-.19,0-.36-.08-.5-.25l-4.78-6.49Z"/>
      <path d="M117.38,27.83c-.22.17-.49.34-.8.51-.31.17-.67.31-1.08.44-.41.13-.88.24-1.39.32-.52.08-1.09.12-1.72.12-.84,0-1.58-.1-2.23-.3-.64-.2-1.2-.48-1.67-.82-.47-.35-.86-.76-1.18-1.22-.32-.47-.57-.97-.76-1.5-.19-.53-.33-1.08-.41-1.65s-.12-1.13-.12-1.68.04-1.14.12-1.72c.08-.58.22-1.15.42-1.69s.46-1.06.78-1.54.73-.9,1.2-1.26c.48-.36,1.04-.64,1.68-.85.64-.21,1.39-.31,2.23-.31.67,0,1.28.05,1.82.15.54.1,1.02.22,1.45.37.43.15.8.32,1.12.51.32.19.58.37.8.54.09-.24.22-.43.4-.59.17-.16.41-.29.69-.38.29-.1.64-.17,1.06-.21s.92-.06,1.5-.06c.89,0,1.68.04,2.37.13.69.09,1.27.22,1.75.42s.83.43,1.08.72.37.64.37,1.05c0,.16-.04.27-.13.34-.09.07-.2.12-.34.16-.14.04-.28.07-.44.1-.15.03-.3.08-.44.17-.14.08-.25.2-.34.36-.09.16-.13.38-.13.67v11.8c0,.29.04.52.13.67s.2.27.34.36c.14.08.28.14.44.17.15.03.3.06.44.1.14.04.25.09.34.16.09.07.13.18.13.34,0,.41-.12.76-.37,1.05s-.61.53-1.08.72-1.06.33-1.75.42c-.69.09-1.48.13-2.37.13-1.85,0-3.27-.18-4.25-.54-.98-.36-1.47-.95-1.47-1.77,0-.16.05-.27.14-.34.09-.07.2-.12.34-.16.13-.04.28-.07.44-.1s.31-.09.44-.17.25-.2.34-.37c.09-.16.14-.39.14-.69l-.02-3.02ZM115.5,26.37c.33,0,.67-.05,1-.15s.63-.21.89-.33v-7.96c-.23-.14-.49-.25-.77-.34s-.58-.14-.89-.14c-.38,0-.71.08-.97.23-.27.15-.48.4-.65.76-.17.36-.29.83-.36,1.43-.07.6-.11,1.34-.11,2.24s.01,1.55.03,2.1c.02.55.09.99.21,1.31s.3.55.55.67.61.19,1.08.19Z"/>
    </g>
  </g>
  <g id="paneRight">
    <path id="directLeft" d="M47.62,116.41l109.26,12.79c2.37.28,4.04,2.42,3.68,4.74l-2.25,14.36c-.5,3.16-3.46,5.36-6.7,4.98l-108.59-12.71c-1.83-.21-3.52-1.08-4.76-2.42-4.05-4.38-7.11-7.11-10.75-11.8,0,0,8.77-5.55,12.96-8.28,2.11-1.37,4.65-1.95,7.16-1.66Z" fill="#fff" stroke="#000" stroke-miterlimit="10" stroke-width="3"/>
    <line x1="91.01" y1="137.16" x2="147.62" y2="143.92" fill="none" stroke="#000" stroke-miterlimit="10" stroke-width="1.5"/>
  </g>
  <g id="paneLeft">
    <path id="directRight" d="M157.16,82.18l-107.7,9.74c-2.79.25-5.28-1.72-5.61-4.44l-1.79-14.74c-.31-2.58,1.61-4.91,4.26-5.15l107.92-9.76c3.58-.32,7.17.42,10.31,2.14,4.3,2.35,10.32,5.8,13.44,8.28,0,0-5.89,5.76-12.64,10.82-2.37,1.78-5.22,2.84-8.2,3.11Z" fill="#fff" stroke="#000" stroke-miterlimit="10" stroke-width="3"/>
    <line x1="64.78" y1="83.11" x2="126.91" y2="77.7" fill="none" stroke="#000" stroke-miterlimit="10" stroke-width="1.5"/>
  </g>
</svg>