<?xml version="1.0" encoding="UTF-8"?>
<svg id="visit-illus" xmlns="http://www.w3.org/2000/svg" viewBox="0 0 1652.74 842.55">
  <g id="support">
    <rect x="316.38" y="206.04" width="44.92" height="526.27" fill="#fff"/>
    <path d="M360.8,206.54v525.27h-43.92V206.54h43.92M361.8,205.54h-45.92v527.27h45.92V205.54h0Z"/>
  </g>
  <g id="topPane">
    <g id="topPane-2" data-name="topPane">
      <path d="M253.98,123h169.73c9.91,0,17.96,8.05,17.96,17.96v54.43c0,9.91-8.05,17.96-17.96,17.96h-169.73c-9.91,0-17.96-8.05-17.96-17.96v-54.43c0-9.91,8.05-17.96,17.96-17.96Z" fill="#fff"/>
      <path d="M423.71,123.5c9.62,0,17.46,7.83,17.46,17.46v54.43c0,9.62-7.83,17.46-17.46,17.46h-169.73c-9.62,0-17.46-7.83-17.46-17.46v-54.43c0-9.62,7.83-17.46,17.46-17.46h169.73M423.71,122.5h-169.73c-10.19,0-18.46,8.26-18.46,18.46v54.43c0,10.19,8.26,18.46,18.46,18.46h169.73c10.19,0,18.46-8.26,18.46-18.46v-54.43c0-10.19-8.26-18.46-18.46-18.46h0Z"/>
    </g>
    <g>
      <path d="M288.17,167.5v10.07c0,.73.13,1.3.4,1.7.27.41.6.71,1.01.92.4.21.84.36,1.31.44.47.08.91.17,1.31.27.4.1.74.23,1.01.4.27.17.4.45.4.84,0,1.01-.31,1.87-.93,2.6-.62.73-1.41,1.33-2.37,1.79-.96.46-2.05.8-3.25,1.02-1.2.22-2.37.33-3.51.33-1.35,0-2.65-.11-3.92-.33-1.27-.22-2.39-.56-3.36-1.02-.98-.46-1.76-1.06-2.35-1.79-.59-.73-.89-1.6-.89-2.6,0-.39.13-.67.4-.84.27-.17.6-.3.99-.39.39-.09.82-.17,1.28-.25.46-.08.89-.22,1.28-.43.39-.2.72-.5.99-.89.27-.39.4-.95.4-1.68v-18.34c0-.71-.13-1.27-.4-1.67s-.6-.7-.99-.9c-.39-.2-.82-.34-1.28-.43-.46-.08-.89-.17-1.28-.26-.39-.09-.72-.22-.99-.39-.27-.17-.4-.45-.4-.84,0-1,.32-1.87.98-2.59.65-.72,1.54-1.31,2.67-1.78,1.13-.46,2.46-.8,3.97-1.02s3.14-.33,4.89-.33c1.66,0,3.06.11,4.19.34,1.13.23,2.15.59,3.04,1.08.9.49,1.74,1.14,2.54,1.93.8.79,1.68,1.75,2.64,2.87l9.01,10.56,8.14-10.02c.74-.92,1.53-1.8,2.37-2.62.84-.82,1.78-1.54,2.81-2.15,1.03-.62,2.19-1.1,3.46-1.46,1.28-.36,2.74-.54,4.37-.54,2.74,0,5.09.11,7.06.33s3.59.56,4.86,1.02c1.27.46,2.2,1.05,2.81,1.78.61.72.91,1.59.91,2.59,0,.39-.13.67-.4.84-.27.17-.6.3-1.01.39-.4.09-.84.17-1.31.26-.47.08-.91.22-1.31.43-.4.2-.74.5-1.01.9s-.4.95-.4,1.67v18.25c0,.73.13,1.3.4,1.7s.61.71,1.01.92c.4.21.84.36,1.31.44.47.08.91.17,1.31.27.4.1.74.23,1.01.4.27.17.4.45.4.84,0,2.03-1.45,3.49-4.34,4.39-2.89.9-7.07,1.35-12.54,1.35-2.65,0-4.99-.11-7.05-.33-2.05-.22-3.78-.56-5.18-1.02-1.4-.46-2.47-1.06-3.2-1.79-.73-.73-1.09-1.6-1.09-2.6,0-.39.13-.67.4-.84.27-.17.6-.3.99-.39.39-.09.82-.17,1.28-.25s.89-.22,1.28-.43c.39-.2.72-.5.99-.89.27-.39.4-.95.4-1.68v-10.12l-12.04,14.6c-.27.37-.7.56-1.28.56-.52,0-.96-.19-1.35-.56l-12.88-14.64Z"/>
      <path d="M377.06,185.35c-.61.39-1.33.77-2.17,1.14s-1.82.71-2.93,1c-1.11.29-2.36.53-3.75.72-1.39.19-2.94.28-4.64.28-2.27,0-4.27-.23-6-.68-1.74-.45-3.24-1.07-4.51-1.86-1.27-.79-2.33-1.71-3.18-2.76-.85-1.05-1.54-2.18-2.05-3.38-.52-1.2-.88-2.44-1.09-3.72-.21-1.28-.32-2.55-.32-3.79s.11-2.58.34-3.89c.22-1.31.6-2.59,1.13-3.82s1.23-2.39,2.1-3.48c.87-1.09,1.96-2.03,3.25-2.83,1.29-.8,2.8-1.44,4.54-1.91,1.74-.47,3.74-.71,6-.71,1.82,0,3.45.11,4.91.33,1.46.22,2.76.5,3.92.84,1.15.34,2.16.72,3.01,1.14s1.57.83,2.15,1.22c.25-.54.61-.98,1.08-1.34.47-.36,1.09-.64,1.87-.86s1.73-.38,2.86-.47c1.13-.1,2.48-.15,4.05-.15,2.4,0,4.53.1,6.39.29,1.86.19,3.43.51,4.71.94,1.28.43,2.25.97,2.91,1.63.66.66.99,1.45.99,2.37,0,.36-.12.61-.35.77-.24.15-.54.27-.91.35-.37.08-.76.15-1.18.22-.42.06-.81.19-1.18.38s-.67.46-.91.81c-.24.36-.35.86-.35,1.51v26.64c0,.67.12,1.17.35,1.52s.54.62.91.8.76.31,1.18.38c.41.06.81.14,1.18.22.37.08.67.2.91.35.24.15.35.41.35.77,0,.92-.33,1.71-.99,2.37-.66.66-1.63,1.2-2.91,1.63-1.28.43-2.85.74-4.71.94-1.86.19-3.99.29-6.39.29-5,0-8.82-.41-11.47-1.23-2.65-.82-3.97-2.15-3.97-4,0-.36.12-.61.37-.77.25-.15.55-.27.91-.35.36-.08.76-.16,1.19-.23.44-.07.83-.2,1.19-.39.36-.19.66-.46.91-.83.25-.37.37-.89.37-1.57l-.07-6.81ZM371.98,182.05c.9,0,1.79-.11,2.69-.34.9-.23,1.69-.48,2.39-.75v-17.98c-.63-.31-1.32-.57-2.07-.78-.75-.21-1.55-.32-2.4-.32-1.03,0-1.91.17-2.62.51-.72.34-1.3.91-1.75,1.71-.45.8-.77,1.88-.98,3.24-.2,1.35-.3,3.04-.3,5.05s.03,3.5.08,4.74c.06,1.25.24,2.24.56,2.97.31.73.81,1.24,1.5,1.52.68.28,1.65.42,2.91.42Z"/>
    </g>
  </g>
  <g id="paneRight">
    <path id="directLeft" d="M188.9,385.38l294.72,28.88c6.4.63,10.89,5.47,9.92,10.69l-6.08,32.44c-1.34,7.13-9.33,12.11-18.08,11.26l-292.92-28.7c-4.95-.48-9.51-2.45-12.85-5.47-10.92-9.88-19.18-16.06-28.99-26.64,0,0,23.65-12.54,34.97-18.69,5.68-3.09,12.55-4.41,19.32-3.75Z" fill="#fff" stroke="#000" stroke-miterlimit="10"/>
    <line x1="305.94" y1="432.24" x2="458.64" y2="447.49" fill="none" stroke="#000" stroke-miterlimit="10"/>
  </g>
  <g id="paneLeft">
    <path id="directRight" d="M484.36,308.07l-290.5,22c-7.53.57-14.24-3.88-15.13-10.03l-4.82-33.28c-.84-5.83,4.34-11.09,11.48-11.63l291.11-22.05c9.66-.73,19.34.94,27.8,4.83,11.59,5.31,27.84,13.11,36.27,18.7,0,0-15.88,13.01-34.11,24.44-6.4,4.01-14.08,6.41-22.11,7.02Z" fill="#fff" stroke="#000" stroke-miterlimit="10"/>
    <line x1="235.18" y1="310.17" x2="402.77" y2="297.97" fill="none" stroke="#000" stroke-miterlimit="10"/>
  </g>
  <g>
    <path d="M493.67,748.18c2,.24,3.99.47,5.96.7" fill="none" stroke="#000" stroke-miterlimit="10" stroke-width="2"/>
    <path d="M511.52,750.25c180.79,20.66,237.98,17.82,247.18,8.06,13.24-14.05-81.39-33.37-91.91-73.77-14.57-55.92,139.89-122.26,186.89-111.37,42.82,9.92,30.37,91.77-35.23,104.86-80.72,16.1-264.9-67.29-235.91-103.42,43.21-53.86,584.61-33.19,706.21,3.62,6.93,2.1,29.35,9.35,49.02,5.79,37.76-6.84,69.59-79.65,33.7-84.61-166.03-22.98-226.12-26.04-170.04-65.87,56.09-39.83,149.53,27.57,204.68-12.26,55.15-39.83-59.74-44.43-82.72-70.47-22.98-26.04-58.21-55.15,42.89-32.17,50.85,11.56,75.78,15.75,88.01,17.07" fill="none" stroke="#000" stroke-dasharray="11.96 11.96" stroke-miterlimit="10" stroke-width="2"/>
    <path d="M1460.24,336.18c6.01.26,5.8-.7,5.8-.7" fill="none" stroke="#000" stroke-miterlimit="10" stroke-width="2"/>
  </g>
  <path d="M1480.5,222.92c-4.59-2.24-9.25-3.6-13.78-3.6-4.1,0-8.36,1.1-12.63,2.95-27.59,11.95-35.06,41.95-16.93,65.94l26.61,35.19c1.35,1.78,4.04,1.76,5.35-.05l26.8-36.9c16.31-22.46,9.53-51.36-15.42-63.53ZM1466.03,274.98c-10.6,0-19.19-8.59-19.19-19.19s8.59-19.19,19.19-19.19,19.19,8.59,19.19,19.19-8.59,19.19-19.19,19.19Z" fill="#fff" stroke="#000" stroke-miterlimit="10"/>
</svg>